<svg xmlns="http://www.w3.org/2000/svg" width="1024" height="1024" viewBox="0 0 1024 1024" role="img" aria-labelledby="title desc">
  <title id="title">Digital Fabric app icon</title>
  <desc id="desc">Rounded square app icon with braided topological Digital Fabric symbol.</desc>
  <defs>
    <linearGradient id="icon-bg" x1="0" y1="0" x2="1024" y2="1024" gradientUnits="userSpaceOnUse">
      <stop offset="0%" stop-color="#111927"/>
      <stop offset="54%" stop-color="#0A0E17"/>
      <stop offset="100%" stop-color="#07111F"/>
    </linearGradient>
    <radialGradient id="icon-radial" cx="50%" cy="42%" r="68%">
      <stop offset="0%" stop-color="#00D1C1" stop-opacity="0.20"/>
      <stop offset="56%" stop-color="#4B5BFF" stop-opacity="0.08"/>
      <stop offset="100%" stop-color="#8A2BE2" stop-opacity="0"/>
    </radialGradient>
    <linearGradient id="icon-stroke" x1="120" y1="80" x2="900" y2="940" gradientUnits="userSpaceOnUse">
      <stop offset="0%" stop-color="#8A2BE2"/>
      <stop offset="48%" stop-color="#4B5BFF"/>
      <stop offset="100%" stop-color="#00D1C1"/>
    </linearGradient>
    <filter id="icon-shadow" x="-20%" y="-20%" width="140%" height="140%">
      <feDropShadow dx="0" dy="30" stdDeviation="34" flood-color="#000000" flood-opacity="0.48"/>
    </filter>
    <filter id="icon-glow" x="-45%" y="-45%" width="190%" height="190%">
      <feGaussianBlur stdDeviation="10" result="blur"/>
      <feColorMatrix in="blur" type="matrix" values="0 0 0 0 0.12  0 0 0 0 0.75  0 0 0 0 1  0 0 0 0.80 0" result="coloredBlur"/>
      <feMerge><feMergeNode in="coloredBlur"/><feMergeNode in="SourceGraphic"/></feMerge>
    </filter>
    <clipPath id="icon-clip"><rect x="64" y="64" width="896" height="896" rx="214"/></clipPath>
  </defs>
  <g filter="url(#icon-shadow)">
    <rect x="64" y="64" width="896" height="896" rx="214" fill="url(#icon-bg)"/>
    <rect x="64" y="64" width="896" height="896" rx="214" fill="url(#icon-radial)"/>
    <rect x="92" y="92" width="840" height="840" rx="188" fill="none" stroke="#FFFFFF" stroke-opacity="0.08" stroke-width="2"/>
  </g>
  <g clip-path="url(#icon-clip)">
    <path d="M -40 730 C 250 575 499 640 1064 368" fill="none" stroke="#00D1C1" stroke-width="1.5" opacity="0.16"/>
    <path d="M -70 775 C 250 585 518 657 1090 405" fill="none" stroke="#4B5BFF" stroke-width="1.2" opacity="0.13"/>
  </g>
  
    <defs>
      <linearGradient id="iconmark-braid-grad" x1="70" y1="90" x2="730" y2="410" gradientUnits="userSpaceOnUse">
        <stop offset="0%" stop-color="#8A2BE2"/>
        <stop offset="48%" stop-color="#4B5BFF"/>
        <stop offset="100%" stop-color="#00D1C1"/>
      </linearGradient>
      <linearGradient id="iconmark-braid-grad-rev" x1="730" y1="90" x2="70" y2="410" gradientUnits="userSpaceOnUse">
        <stop offset="0%" stop-color="#00D1C1"/>
        <stop offset="52%" stop-color="#4B5BFF"/>
        <stop offset="100%" stop-color="#8A2BE2"/>
      </linearGradient>
      <radialGradient id="iconmark-glow" cx="50%" cy="50%" r="70%">
        <stop offset="0%" stop-color="#00D1C1" stop-opacity="0.55"/>
        <stop offset="55%" stop-color="#4B5BFF" stop-opacity="0.18"/>
        <stop offset="100%" stop-color="#8A2BE2" stop-opacity="0"/>
      </radialGradient>
      <filter id="iconmark-soft-glow" x="-40%" y="-40%" width="180%" height="180%">
        <feGaussianBlur stdDeviation="7" result="blur"/>
        <feColorMatrix in="blur" type="matrix" values="0 0 0 0 0.15  0 0 0 0 0.84  0 0 0 0 0.95  0 0 0 0.75 0" result="coloredBlur"/>
        <feMerge>
          <feMergeNode in="coloredBlur"/>
          <feMergeNode in="SourceGraphic"/>
        </feMerge>
      </filter>
    </defs>
    
  <g transform="translate(112 262) scale(1 1)" filter="url(#icon-glow)">
    <g filter="url(#iconmark-soft-glow)">
<ellipse cx="400" cy="250" rx="330" ry="205" fill="url(#iconmark-glow)" opacity="0.18"/>
<path d="M 419.09 221.87 L 424.27 225.38 L 429.44 228.88 L 434.59 232.37 L 439.72 235.83 L 444.83 239.26 L 449.92 242.66 L 454.98 246.02 L 460.02 249.33 L 465.02 252.60 L 470.00 255.82 L 474.94 258.98 L 479.85 262.09 L 484.71 265.12 L 489.54 268.09 L 494.33 270.98 L 499.06 273.79 L 503.76 276.53 L 508.40 279.18 L 512.98 281.73 L 517.52 284.20 L 521.99 286.57 L 526.40 288.84 L 530.75 291.01 L 535.03 293.07 L 539.24 295.03 L 543.38 296.87 L 547.44 298.61 L 551.42 300.23 L 555.32 301.73 L 559.13 303.13 L 562.85 304.40 L 566.48 305.56 L 570.01 306.60 L 573.45 307.53 L 576.78 308.34 L 580.01 309.03 L 583.13 309.62 L 586.14 310.10 L 589.04 310.47 L 591.83 310.74 L 594.50 310.92 L 597.06 310.99 L 599.51 310.98 L 601.84 310.89 L 604.06 310.71 L 606.18 310.46 L 608.20 310.14 L 610.12 309.76 L 611.94 309.31 L 613.68 308.80 L 615.35 308.24 L 616.94 307.62 L 618.46 306.95 L 619.93 306.22 L 621.35 305.43 L 622.72 304.58 L 624.06 303.68 L 625.36 302.71 L 626.63 301.67 L 627.88 300.56 L 629.10 299.37 L 630.29 298.11 L 631.46 296.77 L 632.60 295.34 L 633.72 293.83 L 634.80 292.24 L 635.85 290.56 L 636.87 288.80 L 637.85 286.96 L 638.78 285.04 L 639.67 283.04 L 640.52 280.96 L 641.31 278.82 L 642.05 276.60 L 642.73 274.33 L 643.35 272.00 L 643.91 269.61 L 644.41 267.18 L 644.84 264.71 L 645.21 262.20 L 645.50 259.67 L 645.73 257.11 L 645.89 254.53 L 645.98 251.94 L 646.00 249.35 L 645.94 246.76 L 645.82 244.18 L 645.63 241.61 L 645.36 239.06 L 645.03 236.54 L 644.63 234.05 L 644.17 231.60 L 643.64 229.19 L 643.05 226.83 L 642.39 224.53 L 641.68 222.28 L 640.92 220.10 L 640.10 217.99 L 639.23 215.95 L 638.32 213.99 L 637.36 212.11 L 636.36 210.31 L 635.33 208.59 L 634.26 206.95 L 633.16 205.40 L 632.03 203.94 L 630.88 202.55 L 629.70 201.25 L 628.49 200.03 L 627.26 198.88 L 626.00 197.80 L 624.71 196.80 L 623.40 195.86 L 622.04 194.99 L 620.65 194.17 L 619.20 193.41 L 617.71 192.71 L 616.15 192.06 L 614.52 191.47 L 612.82 190.94 L 611.04 190.46 L 609.17 190.04 L 607.20 189.69 L 605.14 189.40 L 602.97 189.19 L 600.69 189.05 L 598.30 189.00 L 595.79 189.03 L 593.18 189.16 L 590.45 189.38 L 587.60 189.70 L 584.65 190.13 L 581.58 190.66 L 578.41 191.30 L 575.13 192.05 L 571.74 192.92 L 568.26 193.91 L 564.68 195.01 L 561.00 196.22 L 557.23 197.56 L 553.38 199.00 L 549.44 200.57 L 545.42 202.25 L 541.32 204.04 L 537.15 205.94 L 532.90 207.95 L 528.58 210.06 L 524.20 212.28 L 519.76 214.60 L 515.26 217.02 L 510.70 219.53 L 506.08 222.14 L 501.42 224.83 L 496.70 227.60 L 491.94 230.46 L 487.13 233.39 L 482.28 236.39 L 477.40 239.46 L 472.47 242.59 L 467.52 245.78 L 462.52 249.02 L 457.50 252.32 L 452.45 255.66 L 447.38 259.04 L 442.28 262.45 L 437.16 265.90 L 432.02 269.37 L 426.86 272.86 L 421.68 276.37 L 416.49 279.90 L 411.29 283.42 L 406.08 286.95 L 400.86 290.48 L 395.63 294.00 L 390.39 297.51 L 385.15 301.00 L 379.91 304.46 L 374.66 307.91 L 369.42 311.31 L 364.18 314.69 L 358.94 318.02 L 353.70 321.31 L 348.47 324.55 L 343.24 327.73 L 338.03 330.86 L 332.81 333.93 L 327.61 336.93 L 322.42 339.86 L 317.24 342.71 L 312.07 345.49 L 306.91 348.18 L 301.76 350.79 L 296.63 353.31 L 291.50 355.73 L 286.39 358.06 L 281.29 360.29 L 276.21 362.41 L 271.14 364.42 L 266.08 366.32 L 261.03 368.11 L 255.99 369.78 L 250.97 371.32 L 245.95 372.73 L 240.95 374.02 L 235.96 375.16 L 230.98 376.17 L 226.02 377.03 L 221.06 377.74 L 216.12 378.30 L 211.20 378.70 L 206.29 378.93 L 201.40 379.00 L 196.54 378.89 L 191.70 378.60 L 186.90 378.13 L 182.13 377.47 L 177.42 376.62 L 172.75 375.58 L 168.15 374.35 L 163.62 372.92 L 159.17 371.30 L 154.80 369.48 L 150.54 367.48 L 146.38 365.30 L 142.34 362.94 L 138.42 360.41 L 134.63 357.71 L 130.98 354.86 L 127.47 351.86 L 124.11 348.73 L 120.89 345.47 L 117.83 342.09 L 114.91 338.60 L 112.14 335.00 L 109.53 331.32 L 107.06 327.54 L 104.74 323.69 L 102.57 319.76 L 100.54 315.77 L 98.65 311.71 L 96.90 307.61 L 95.29 303.45 L 93.81 299.24 L 92.47 294.99 L 91.26 290.71 L 90.17 286.39 L 89.22 282.05 L 88.39 277.67 L 87.68 273.28 L 87.10 268.87 L 86.64 264.44 L 86.31 260.01 L 86.09 255.56 L 86.00 251.11 L 86.03 246.66 L 86.19 242.22 L 86.46 237.77 L 86.86 233.34 L 87.38 228.92 L 88.02 224.52 L 88.78 220.14 L 89.68 215.78 L 90.70 211.45 L 91.85 207.14 L 93.12 202.88 L 94.53 198.65 L 96.08 194.47 L 97.76 190.33 L 99.58 186.25 L 101.54 182.23 L 103.64 178.27 L 105.88 174.38 L 108.28 170.56 L 110.82 166.83 L 113.51 163.19 L 116.35 159.64 L 119.34 156.21 L 122.48 152.88 L 125.77 149.69 L 129.21 146.62 L 132.79 143.69 L 136.51 140.92 L 140.36 138.31 L 144.35 135.86 L 148.45 133.59 L 152.66 131.49 L 156.97 129.59 L 161.38 127.87 L 165.88 126.34 L 170.44 125.01 L 175.08 123.87 L 179.77 122.93 L 184.51 122.18 L 189.30 121.61 L 194.12 121.23 L 198.97 121.03 L 203.84 121.01 L 208.74 121.16 L 213.66 121.48 L 218.59 121.96 L 223.54 122.59 L 228.50 123.38 L 233.47 124.31 L 238.45 125.39 L 243.45 126.61 L 248.46 127.96 L 253.48 129.44 L 258.51 131.04 L 263.55 132.77 L 268.60 134.61 L 273.67 136.57 L 278.75 138.64 L 283.84 140.81 L 288.95 143.09 L 294.06 145.47 L 299.19 147.94 L 304.33 150.50 L 309.49 153.16 L 314.65 155.89 L 319.83 158.71 L 325.02 161.60 L 330.21 164.56 L 335.42 167.60 L 340.63 170.69 L 345.86 173.85 L 351.08 177.06 L 356.32 180.33 L 361.56 183.64 L 366.80 186.99 L 372.04 190.39 L 377.29 193.81 L 382.53 197.27 L 387.77 200.75 L 393.01 204.24 L 398.24 207.76 L 403.47 211.28 L 408.69 214.81 L 413.89 218.34 L 419.09 221.87" fill="none" stroke="#0A0E17" stroke-width="16.0" stroke-linecap="round" stroke-linejoin="round" opacity="0.82"/>
<path d="M 409.55 235.93 L 414.73 239.45 L 419.91 242.96 L 425.08 246.46 L 430.23 249.93 L 435.37 253.38 L 440.50 256.81 L 445.60 260.20 L 450.69 263.55 L 455.76 266.86 L 460.80 270.12 L 465.82 273.33 L 470.80 276.48 L 475.76 279.58 L 480.69 282.60 L 485.59 285.56 L 490.44 288.45 L 495.26 291.25 L 500.04 293.98 L 504.78 296.62 L 509.47 299.18 L 514.12 301.64 L 518.72 304.00 L 523.26 306.27 L 527.76 308.44 L 532.19 310.50 L 536.57 312.45 L 540.89 314.30 L 545.15 316.03 L 549.34 317.65 L 553.46 319.15 L 557.51 320.54 L 561.49 321.81 L 565.40 322.96 L 569.22 323.99 L 572.97 324.90 L 576.64 325.70 L 580.22 326.37 L 583.72 326.93 L 587.13 327.36 L 590.46 327.69 L 593.69 327.90 L 596.83 327.99 L 599.89 327.98 L 602.85 327.86 L 605.72 327.63 L 608.51 327.30 L 611.21 326.88 L 613.82 326.35 L 616.35 325.73 L 618.79 325.02 L 621.16 324.21 L 623.46 323.32 L 625.68 322.34 L 627.84 321.27 L 629.93 320.11 L 631.95 318.86 L 633.92 317.53 L 635.82 316.11 L 637.67 314.60 L 639.47 313.00 L 641.20 311.31 L 642.88 309.53 L 644.51 307.66 L 646.07 305.71 L 647.58 303.67 L 649.03 301.54 L 650.42 299.33 L 651.74 297.04 L 653.00 294.66 L 654.19 292.22 L 655.31 289.69 L 656.37 287.10 L 657.35 284.45 L 658.25 281.73 L 659.08 278.96 L 659.84 276.14 L 660.51 273.27 L 661.11 270.35 L 661.63 267.40 L 662.06 264.42 L 662.41 261.42 L 662.68 258.39 L 662.87 255.35 L 662.98 252.29 L 663.00 249.24 L 662.93 246.18 L 662.79 243.13 L 662.56 240.10 L 662.25 237.08 L 661.85 234.08 L 661.38 231.12 L 660.82 228.19 L 660.19 225.29 L 659.47 222.44 L 658.68 219.65 L 657.81 216.90 L 656.87 214.22 L 655.85 211.59 L 654.76 209.04 L 653.60 206.55 L 652.38 204.14 L 651.09 201.81 L 649.73 199.56 L 648.31 197.39 L 646.84 195.30 L 645.30 193.30 L 643.70 191.39 L 642.05 189.57 L 640.34 187.84 L 638.58 186.19 L 636.76 184.64 L 634.88 183.17 L 632.94 181.79 L 630.95 180.50 L 628.89 179.30 L 626.77 178.19 L 624.58 177.16 L 622.32 176.22 L 619.99 175.37 L 617.58 174.62 L 615.09 173.95 L 612.52 173.38 L 609.87 172.90 L 607.13 172.52 L 604.30 172.24 L 601.38 172.07 L 598.37 172.00 L 595.27 172.04 L 592.08 172.19 L 588.81 172.46 L 585.44 172.84 L 581.98 173.34 L 578.44 173.95 L 574.82 174.68 L 571.11 175.54 L 567.32 176.51 L 563.45 177.60 L 559.51 178.81 L 555.49 180.14 L 551.41 181.59 L 547.25 183.15 L 543.03 184.82 L 538.74 186.61 L 534.39 188.51 L 529.98 190.52 L 525.52 192.63 L 521.00 194.85 L 516.43 197.17 L 511.80 199.58 L 507.13 202.09 L 502.42 204.69 L 497.66 207.37 L 492.86 210.14 L 488.02 212.99 L 483.14 215.91 L 478.23 218.90 L 473.29 221.96 L 468.31 225.09 L 463.31 228.27 L 458.28 231.51 L 453.23 234.79 L 448.15 238.12 L 443.05 241.49 L 437.94 244.90 L 432.80 248.34 L 427.66 251.80 L 422.49 255.29 L 417.32 258.79 L 412.14 262.31 L 406.95 265.83 L 401.75 269.35 L 396.55 272.87 L 391.35 276.39 L 386.15 279.89 L 380.95 283.37 L 375.75 286.83 L 370.56 290.27 L 365.37 293.67 L 360.19 297.04 L 355.01 300.37 L 349.85 303.65 L 344.70 306.89 L 339.57 310.07 L 334.45 313.19 L 329.34 316.25 L 324.26 319.24 L 319.19 322.16 L 314.14 325.01 L 309.11 327.78 L 304.11 330.46 L 299.13 333.07 L 294.17 335.58 L 289.24 337.99 L 284.34 340.31 L 279.46 342.54 L 274.62 344.65 L 269.80 346.66 L 265.01 348.57 L 260.25 350.35 L 255.52 352.03 L 250.82 353.58 L 246.16 355.01 L 241.53 356.32 L 236.93 357.50 L 232.37 358.55 L 227.84 359.46 L 223.35 360.24 L 218.89 360.88 L 214.48 361.38 L 210.10 361.74 L 205.77 361.94 L 201.48 362.00 L 197.23 361.90 L 193.03 361.65 L 188.89 361.25 L 184.80 360.68 L 180.77 359.96 L 176.80 359.07 L 172.91 358.03 L 169.08 356.82 L 165.34 355.46 L 161.68 353.94 L 158.10 352.26 L 154.62 350.43 L 151.24 348.46 L 147.97 346.34 L 144.80 344.08 L 141.74 341.69 L 138.79 339.18 L 135.96 336.54 L 133.25 333.79 L 130.65 330.93 L 128.17 327.96 L 125.82 324.90 L 123.58 321.75 L 121.46 318.51 L 119.47 315.19 L 117.59 311.79 L 115.83 308.33 L 114.18 304.80 L 112.65 301.21 L 111.24 297.56 L 109.94 293.86 L 108.75 290.11 L 107.68 286.32 L 106.72 282.50 L 105.87 278.64 L 105.13 274.74 L 104.50 270.83 L 103.98 266.89 L 103.58 262.93 L 103.28 258.96 L 103.09 254.98 L 103.00 251.00 L 103.03 247.01 L 103.17 243.03 L 103.41 239.05 L 103.77 235.09 L 104.23 231.14 L 104.80 227.21 L 105.49 223.31 L 106.28 219.43 L 107.19 215.58 L 108.20 211.78 L 109.33 208.01 L 110.57 204.28 L 111.93 200.61 L 113.40 196.99 L 114.99 193.43 L 116.69 189.93 L 118.51 186.50 L 120.45 183.14 L 122.51 179.86 L 124.68 176.66 L 126.98 173.56 L 129.40 170.54 L 131.93 167.63 L 134.59 164.82 L 137.36 162.13 L 140.25 159.55 L 143.25 157.09 L 146.37 154.77 L 149.59 152.58 L 152.92 150.54 L 156.35 148.64 L 159.88 146.88 L 163.50 145.28 L 167.20 143.84 L 170.99 142.56 L 174.85 141.43 L 178.78 140.47 L 182.78 139.66 L 186.84 139.02 L 190.96 138.53 L 195.13 138.20 L 199.35 138.03 L 203.62 138.01 L 207.93 138.14 L 212.29 138.42 L 216.68 138.85 L 221.12 139.42 L 225.59 140.13 L 230.10 140.98 L 234.65 141.96 L 239.23 143.07 L 243.84 144.32 L 248.49 145.69 L 253.17 147.18 L 257.88 148.79 L 262.62 150.53 L 267.40 152.37 L 272.20 154.33 L 277.04 156.39 L 281.90 158.56 L 286.79 160.83 L 291.71 163.20 L 296.65 165.67 L 301.62 168.22 L 306.61 170.87 L 311.63 173.60 L 316.66 176.41 L 321.72 179.29 L 326.80 182.25 L 331.89 185.28 L 337.01 188.37 L 342.13 191.52 L 347.28 194.72 L 352.43 197.98 L 357.60 201.29 L 362.78 204.64 L 367.96 208.03 L 373.15 211.45 L 378.35 214.90 L 383.55 218.37 L 388.75 221.86 L 393.95 225.37 L 399.16 228.89 L 404.35 232.41 L 409.55 235.93" fill="none" stroke="#0A0E17" stroke-width="16.0" stroke-linecap="round" stroke-linejoin="round" opacity="0.82"/>
<path d="M 400.00 250.00 L 405.19 253.52 L 410.38 257.04 L 415.56 260.54 L 420.74 264.03 L 425.91 267.51 L 431.07 270.96 L 436.23 274.38 L 441.37 277.76 L 446.49 281.11 L 451.60 284.41 L 456.69 287.67 L 461.76 290.88 L 466.81 294.03 L 471.84 297.12 L 476.85 300.14 L 481.82 303.10 L 486.77 305.98 L 491.69 308.79 L 496.58 311.51 L 501.43 314.15 L 506.25 316.71 L 511.03 319.17 L 515.78 321.53 L 520.48 323.80 L 525.15 325.97 L 529.77 328.03 L 534.34 329.98 L 538.87 331.83 L 543.36 333.56 L 547.79 335.18 L 552.17 336.68 L 556.50 338.06 L 560.78 339.32 L 565.00 340.46 L 569.16 341.47 L 573.27 342.36 L 577.32 343.12 L 581.30 343.75 L 585.23 344.26 L 589.09 344.63 L 592.88 344.88 L 596.61 344.99 L 600.27 344.97 L 603.86 344.83 L 607.38 344.55 L 610.84 344.14 L 614.21 343.61 L 617.52 342.94 L 620.75 342.15 L 623.90 341.23 L 626.98 340.19 L 629.98 339.02 L 632.90 337.73 L 635.74 336.32 L 638.50 334.79 L 641.18 333.14 L 643.77 331.38 L 646.29 329.51 L 648.71 327.52 L 651.05 325.44 L 653.31 323.24 L 655.48 320.95 L 657.56 318.56 L 659.55 316.08 L 661.45 313.50 L 663.26 310.84 L 664.98 308.09 L 666.61 305.27 L 668.15 302.37 L 669.60 299.39 L 670.96 296.35 L 672.22 293.25 L 673.39 290.08 L 674.46 286.86 L 675.44 283.59 L 676.33 280.28 L 677.12 276.92 L 677.81 273.52 L 678.41 270.10 L 678.92 266.64 L 679.32 263.16 L 679.64 259.67 L 679.85 256.16 L 679.97 252.64 L 680.00 249.12 L 679.92 245.60 L 679.76 242.09 L 679.49 238.58 L 679.13 235.10 L 678.68 231.63 L 678.12 228.19 L 677.48 224.77 L 676.73 221.40 L 675.90 218.06 L 674.96 214.77 L 673.94 211.52 L 672.81 208.33 L 671.60 205.19 L 670.29 202.12 L 668.89 199.11 L 667.40 196.17 L 665.81 193.31 L 664.13 190.52 L 662.37 187.82 L 660.51 185.20 L 658.56 182.67 L 656.53 180.23 L 654.40 177.89 L 652.19 175.65 L 649.89 173.51 L 647.51 171.47 L 645.04 169.54 L 642.49 167.73 L 639.85 166.02 L 637.13 164.44 L 634.33 162.96 L 631.45 161.61 L 628.49 160.38 L 625.45 159.28 L 622.34 158.29 L 619.14 157.44 L 615.88 156.71 L 612.53 156.11 L 609.12 155.64 L 605.63 155.29 L 602.07 155.08 L 598.45 155.00 L 594.75 155.05 L 590.99 155.23 L 587.16 155.54 L 583.27 155.98 L 579.32 156.55 L 575.30 157.24 L 571.22 158.07 L 567.09 159.02 L 562.90 160.09 L 558.65 161.29 L 554.34 162.62 L 549.99 164.06 L 545.58 165.62 L 541.12 167.29 L 536.62 169.08 L 532.06 170.98 L 527.46 172.99 L 522.82 175.10 L 518.14 177.32 L 513.41 179.64 L 508.65 182.05 L 503.85 184.56 L 499.01 187.16 L 494.14 189.84 L 489.23 192.61 L 484.30 195.45 L 479.34 198.37 L 474.35 201.36 L 469.33 204.42 L 464.29 207.54 L 459.23 210.72 L 454.15 213.95 L 449.05 217.23 L 443.93 220.56 L 438.80 223.93 L 433.65 227.33 L 428.49 230.77 L 423.33 234.23 L 418.15 237.71 L 412.97 241.21 L 407.78 244.72 L 402.59 248.24 L 397.41 251.76 L 392.22 255.28 L 387.03 258.79 L 381.85 262.29 L 376.67 265.77 L 371.51 269.23 L 366.35 272.67 L 361.20 276.07 L 356.07 279.44 L 350.95 282.77 L 345.85 286.05 L 340.77 289.28 L 335.71 292.46 L 330.67 295.58 L 325.65 298.64 L 320.66 301.63 L 315.70 304.55 L 310.77 307.39 L 305.86 310.16 L 300.99 312.84 L 296.15 315.44 L 291.35 317.95 L 286.59 320.36 L 281.86 322.68 L 277.18 324.90 L 272.54 327.01 L 267.94 329.02 L 263.38 330.92 L 258.88 332.71 L 254.42 334.38 L 250.01 335.94 L 245.66 337.38 L 241.35 338.71 L 237.10 339.91 L 232.91 340.98 L 228.78 341.93 L 224.70 342.76 L 220.68 343.45 L 216.73 344.02 L 212.84 344.46 L 209.01 344.77 L 205.25 344.95 L 201.55 345.00 L 197.93 344.92 L 194.37 344.71 L 190.88 344.36 L 187.47 343.89 L 184.12 343.29 L 180.86 342.56 L 177.66 341.71 L 174.55 340.72 L 171.51 339.62 L 168.55 338.39 L 165.67 337.04 L 162.87 335.56 L 160.15 333.98 L 157.51 332.27 L 154.96 330.46 L 152.49 328.53 L 150.11 326.49 L 147.81 324.35 L 145.60 322.11 L 143.47 319.77 L 141.44 317.33 L 139.49 314.80 L 137.63 312.18 L 135.87 309.48 L 134.19 306.69 L 132.60 303.83 L 131.11 300.89 L 129.71 297.88 L 128.40 294.81 L 127.19 291.67 L 126.06 288.48 L 125.04 285.23 L 124.10 281.94 L 123.27 278.60 L 122.52 275.23 L 121.88 271.81 L 121.32 268.37 L 120.87 264.90 L 120.51 261.42 L 120.24 257.91 L 120.08 254.40 L 120.00 250.88 L 120.03 247.36 L 120.15 243.84 L 120.36 240.33 L 120.68 236.84 L 121.08 233.36 L 121.59 229.90 L 122.19 226.48 L 122.88 223.08 L 123.67 219.72 L 124.56 216.41 L 125.54 213.14 L 126.61 209.92 L 127.78 206.75 L 129.04 203.65 L 130.40 200.61 L 131.85 197.63 L 133.39 194.73 L 135.02 191.91 L 136.74 189.16 L 138.55 186.50 L 140.45 183.92 L 142.44 181.44 L 144.52 179.05 L 146.69 176.76 L 148.95 174.56 L 151.29 172.48 L 153.71 170.49 L 156.23 168.62 L 158.82 166.86 L 161.50 165.21 L 164.26 163.68 L 167.10 162.27 L 170.02 160.98 L 173.02 159.81 L 176.10 158.77 L 179.25 157.85 L 182.48 157.06 L 185.79 156.39 L 189.16 155.86 L 192.62 155.45 L 196.14 155.17 L 199.73 155.03 L 203.39 155.01 L 207.12 155.12 L 210.91 155.37 L 214.77 155.74 L 218.70 156.25 L 222.68 156.88 L 226.73 157.64 L 230.84 158.53 L 235.00 159.54 L 239.22 160.68 L 243.50 161.94 L 247.83 163.32 L 252.21 164.82 L 256.64 166.44 L 261.13 168.17 L 265.66 170.02 L 270.23 171.97 L 274.85 174.03 L 279.52 176.20 L 284.22 178.47 L 288.97 180.83 L 293.75 183.29 L 298.57 185.85 L 303.42 188.49 L 308.31 191.21 L 313.23 194.02 L 318.18 196.90 L 323.15 199.86 L 328.16 202.88 L 333.19 205.97 L 338.24 209.12 L 343.31 212.33 L 348.40 215.59 L 353.51 218.89 L 358.63 222.24 L 363.77 225.62 L 368.93 229.04 L 374.09 232.49 L 379.26 235.97 L 384.44 239.46 L 389.62 242.96 L 394.81 246.48 L 400.00 250.00" fill="none" stroke="#0A0E17" stroke-width="16.0" stroke-linecap="round" stroke-linejoin="round" opacity="0.82"/>
<path d="M 390.45 264.07 L 395.65 267.59 L 400.84 271.11 L 406.05 274.63 L 411.25 278.14 L 416.45 281.63 L 421.65 285.10 L 426.85 288.55 L 432.04 291.97 L 437.22 295.36 L 442.40 298.71 L 447.57 302.02 L 452.72 305.28 L 457.87 308.48 L 462.99 311.63 L 468.11 314.72 L 473.20 317.75 L 478.28 320.71 L 483.34 323.59 L 488.37 326.40 L 493.39 329.13 L 498.38 331.78 L 503.35 334.33 L 508.29 336.80 L 513.21 339.17 L 518.10 341.44 L 522.96 343.61 L 527.80 345.67 L 532.60 347.63 L 537.38 349.47 L 542.12 351.21 L 546.83 352.82 L 551.51 354.31 L 556.16 355.68 L 560.77 356.93 L 565.35 358.04 L 569.90 359.02 L 574.41 359.87 L 578.88 360.58 L 583.32 361.15 L 587.71 361.58 L 592.07 361.86 L 596.38 361.99 L 600.65 361.97 L 604.87 361.80 L 609.04 361.47 L 613.16 360.98 L 617.22 360.34 L 621.22 359.53 L 625.15 358.57 L 629.01 357.44 L 632.80 356.16 L 636.50 354.72 L 640.12 353.12 L 643.65 351.36 L 647.08 349.46 L 650.41 347.42 L 653.63 345.23 L 656.75 342.91 L 659.75 340.45 L 662.64 337.87 L 665.41 335.18 L 668.07 332.37 L 670.60 329.46 L 673.02 326.44 L 675.32 323.34 L 677.49 320.14 L 679.55 316.86 L 681.49 313.50 L 683.31 310.07 L 685.01 306.57 L 686.60 303.01 L 688.07 299.39 L 689.43 295.72 L 690.67 291.99 L 691.80 288.22 L 692.81 284.42 L 693.72 280.57 L 694.51 276.69 L 695.20 272.79 L 695.77 268.86 L 696.23 264.91 L 696.59 260.95 L 696.83 256.97 L 696.97 252.99 L 697.00 249.00 L 696.91 245.02 L 696.72 241.04 L 696.42 237.07 L 696.02 233.11 L 695.50 229.17 L 694.87 225.26 L 694.13 221.36 L 693.28 217.50 L 692.32 213.68 L 691.25 209.89 L 690.06 206.14 L 688.76 202.44 L 687.35 198.79 L 685.82 195.20 L 684.17 191.67 L 682.41 188.21 L 680.53 184.81 L 678.54 181.49 L 676.42 178.25 L 674.18 175.10 L 671.83 172.04 L 669.35 169.07 L 666.75 166.21 L 664.04 163.46 L 661.21 160.82 L 658.26 158.31 L 655.20 155.92 L 652.03 153.66 L 648.76 151.54 L 645.38 149.57 L 641.90 147.74 L 638.32 146.06 L 634.66 144.54 L 630.92 143.18 L 627.09 141.97 L 623.20 140.93 L 619.23 140.04 L 615.20 139.32 L 611.11 138.75 L 606.97 138.35 L 602.77 138.10 L 598.52 138.00 L 594.23 138.06 L 589.90 138.26 L 585.52 138.62 L 581.11 139.12 L 576.65 139.76 L 572.16 140.54 L 567.63 141.45 L 563.07 142.50 L 558.47 143.68 L 553.84 144.99 L 549.18 146.42 L 544.48 147.97 L 539.75 149.65 L 534.99 151.43 L 530.20 153.34 L 525.38 155.35 L 520.54 157.46 L 515.66 159.69 L 510.76 162.01 L 505.83 164.42 L 500.87 166.93 L 495.89 169.54 L 490.89 172.22 L 485.86 174.99 L 480.81 177.84 L 475.74 180.76 L 470.66 183.75 L 465.55 186.81 L 460.43 189.93 L 455.30 193.11 L 450.15 196.35 L 444.99 199.63 L 439.81 202.96 L 434.63 206.33 L 429.44 209.73 L 424.25 213.17 L 419.05 216.63 L 413.85 220.11 L 408.65 223.61 L 403.45 227.13 L 398.25 230.65 L 393.05 234.17 L 387.86 237.69 L 382.68 241.21 L 377.51 244.71 L 372.34 248.20 L 367.20 251.66 L 362.06 255.10 L 356.95 258.51 L 351.85 261.88 L 346.77 265.21 L 341.72 268.49 L 336.69 271.73 L 331.69 274.91 L 326.71 278.04 L 321.77 281.10 L 316.86 284.09 L 311.98 287.01 L 307.14 289.86 L 302.34 292.63 L 297.58 295.31 L 292.87 297.91 L 288.20 300.42 L 283.57 302.83 L 279.00 305.15 L 274.48 307.37 L 270.02 309.48 L 265.61 311.49 L 261.26 313.39 L 256.97 315.18 L 252.75 316.85 L 248.59 318.41 L 244.51 319.86 L 240.49 321.19 L 236.55 322.40 L 232.68 323.49 L 228.89 324.46 L 225.18 325.32 L 221.56 326.05 L 218.02 326.66 L 214.56 327.16 L 211.19 327.54 L 207.92 327.81 L 204.73 327.96 L 201.63 328.00 L 198.62 327.93 L 195.70 327.76 L 192.87 327.48 L 190.13 327.10 L 187.48 326.62 L 184.91 326.05 L 182.42 325.38 L 180.01 324.63 L 177.68 323.78 L 175.42 322.84 L 173.23 321.81 L 171.11 320.70 L 169.05 319.50 L 167.06 318.21 L 165.12 316.83 L 163.24 315.36 L 161.42 313.81 L 159.66 312.16 L 157.95 310.43 L 156.30 308.61 L 154.70 306.70 L 153.16 304.70 L 151.69 302.61 L 150.27 300.44 L 148.91 298.19 L 147.62 295.86 L 146.40 293.45 L 145.24 290.96 L 144.15 288.41 L 143.13 285.78 L 142.19 283.10 L 141.32 280.35 L 140.53 277.56 L 139.81 274.71 L 139.18 271.81 L 138.62 268.88 L 138.15 265.92 L 137.75 262.92 L 137.44 259.90 L 137.21 256.87 L 137.07 253.82 L 137.00 250.76 L 137.02 247.71 L 137.13 244.65 L 137.32 241.61 L 137.59 238.58 L 137.94 235.58 L 138.37 232.60 L 138.89 229.65 L 139.49 226.73 L 140.16 223.86 L 140.92 221.04 L 141.75 218.27 L 142.65 215.55 L 143.63 212.90 L 144.69 210.31 L 145.81 207.78 L 147.00 205.34 L 148.26 202.96 L 149.58 200.67 L 150.97 198.46 L 152.42 196.33 L 153.93 194.29 L 155.49 192.34 L 157.12 190.47 L 158.80 188.69 L 160.53 187.00 L 162.33 185.40 L 164.18 183.89 L 166.08 182.47 L 168.05 181.14 L 170.07 179.89 L 172.16 178.73 L 174.32 177.66 L 176.54 176.68 L 178.84 175.79 L 181.21 174.98 L 183.65 174.27 L 186.18 173.65 L 188.79 173.12 L 191.49 172.70 L 194.28 172.37 L 197.15 172.14 L 200.11 172.02 L 203.17 172.01 L 206.31 172.10 L 209.54 172.31 L 212.87 172.64 L 216.28 173.07 L 219.78 173.63 L 223.36 174.30 L 227.03 175.10 L 230.78 176.01 L 234.60 177.04 L 238.51 178.19 L 242.49 179.46 L 246.54 180.85 L 250.66 182.35 L 254.85 183.97 L 259.11 185.70 L 263.43 187.55 L 267.81 189.50 L 272.24 191.56 L 276.74 193.73 L 281.28 196.00 L 285.88 198.36 L 290.53 200.82 L 295.22 203.38 L 299.96 206.02 L 304.74 208.75 L 309.56 211.55 L 314.41 214.44 L 319.31 217.40 L 324.24 220.42 L 329.20 223.52 L 334.18 226.67 L 339.20 229.88 L 344.24 233.14 L 349.31 236.45 L 354.40 239.80 L 359.50 243.19 L 364.63 246.62 L 369.77 250.07 L 374.92 253.54 L 380.09 257.04 L 385.27 260.55 L 390.45 264.07" fill="none" stroke="#0A0E17" stroke-width="16.0" stroke-linecap="round" stroke-linejoin="round" opacity="0.82"/>
<path d="M 380.91 278.13 L 386.11 281.66 L 391.31 285.19 L 396.53 288.72 L 401.76 292.24 L 406.99 295.76 L 412.23 299.25 L 417.47 302.73 L 422.71 306.19 L 427.96 309.61 L 433.20 313.01 L 438.44 316.36 L 443.68 319.67 L 448.92 322.94 L 454.14 326.15 L 459.37 329.31 L 464.58 332.40 L 469.79 335.44 L 474.98 338.40 L 480.17 341.29 L 485.35 344.11 L 490.51 346.84 L 495.67 349.50 L 500.81 352.06 L 505.94 354.53 L 511.05 356.91 L 516.16 359.19 L 521.25 361.36 L 526.33 363.43 L 531.40 365.39 L 536.45 367.23 L 541.49 368.96 L 546.52 370.56 L 551.54 372.04 L 556.55 373.39 L 561.55 374.61 L 566.53 375.69 L 571.50 376.62 L 576.46 377.41 L 581.41 378.04 L 586.34 378.52 L 591.26 378.84 L 596.16 378.99 L 601.03 378.97 L 605.88 378.77 L 610.70 378.39 L 615.49 377.82 L 620.23 377.07 L 624.92 376.13 L 629.56 374.99 L 634.12 373.66 L 638.62 372.13 L 643.03 370.41 L 647.34 368.51 L 651.55 366.41 L 655.65 364.14 L 659.64 361.69 L 663.49 359.08 L 667.21 356.31 L 670.79 353.38 L 674.23 350.31 L 677.52 347.12 L 680.66 343.79 L 683.65 340.36 L 686.49 336.81 L 689.18 333.17 L 691.72 329.44 L 694.12 325.62 L 696.36 321.73 L 698.46 317.77 L 700.42 313.75 L 702.24 309.67 L 703.92 305.53 L 705.47 301.35 L 706.88 297.12 L 708.15 292.86 L 709.30 288.55 L 710.32 284.22 L 711.22 279.86 L 711.98 275.48 L 712.62 271.08 L 713.14 266.66 L 713.54 262.23 L 713.81 257.78 L 713.97 253.34 L 714.00 248.89 L 713.91 244.44 L 713.69 239.99 L 713.36 235.56 L 712.90 231.13 L 712.32 226.72 L 711.61 222.33 L 710.78 217.95 L 709.83 213.61 L 708.74 209.29 L 707.53 205.01 L 706.19 200.76 L 704.71 196.55 L 703.10 192.39 L 701.35 188.29 L 699.46 184.23 L 697.43 180.24 L 695.26 176.31 L 692.94 172.46 L 690.47 168.68 L 687.86 165.00 L 685.09 161.40 L 682.17 157.91 L 679.11 154.53 L 675.89 151.27 L 672.53 148.14 L 669.02 145.14 L 665.37 142.29 L 661.58 139.59 L 657.66 137.06 L 653.62 134.70 L 649.46 132.52 L 645.20 130.52 L 640.83 128.70 L 636.38 127.08 L 631.85 125.65 L 627.25 124.42 L 622.58 123.38 L 617.87 122.53 L 613.10 121.87 L 608.30 121.40 L 603.46 121.11 L 598.60 121.00 L 593.71 121.07 L 588.80 121.30 L 583.88 121.70 L 578.94 122.26 L 573.98 122.97 L 569.02 123.83 L 564.04 124.84 L 559.05 125.98 L 554.05 127.27 L 549.03 128.68 L 544.01 130.22 L 538.97 131.89 L 533.92 133.68 L 528.86 135.58 L 523.79 137.59 L 518.71 139.71 L 513.61 141.94 L 508.50 144.27 L 503.37 146.69 L 498.24 149.21 L 493.09 151.82 L 487.93 154.51 L 482.76 157.29 L 477.58 160.14 L 472.39 163.07 L 467.19 166.07 L 461.97 169.14 L 456.76 172.27 L 451.53 175.45 L 446.30 178.69 L 441.06 181.98 L 435.82 185.31 L 430.58 188.69 L 425.34 192.09 L 420.09 195.54 L 414.85 199.00 L 409.61 202.49 L 404.37 206.00 L 399.14 209.52 L 393.92 213.05 L 388.71 216.58 L 383.51 220.10 L 378.32 223.63 L 373.14 227.14 L 367.98 230.63 L 362.84 234.10 L 357.72 237.55 L 352.62 240.96 L 347.55 244.34 L 342.50 247.68 L 337.48 250.98 L 332.48 254.22 L 327.53 257.41 L 322.60 260.54 L 317.72 263.61 L 312.87 266.61 L 308.06 269.54 L 303.30 272.40 L 298.58 275.17 L 293.92 277.86 L 289.30 280.47 L 284.74 282.98 L 280.24 285.40 L 275.80 287.72 L 271.42 289.94 L 267.10 292.05 L 262.85 294.06 L 258.68 295.96 L 254.58 297.75 L 250.56 299.43 L 246.62 301.00 L 242.77 302.44 L 239.00 303.78 L 235.32 304.99 L 231.74 306.09 L 228.26 307.08 L 224.87 307.95 L 221.59 308.70 L 218.42 309.34 L 215.35 309.87 L 212.40 310.30 L 209.55 310.62 L 206.82 310.84 L 204.21 310.97 L 201.70 311.00 L 199.31 310.95 L 197.03 310.81 L 194.86 310.60 L 192.80 310.31 L 190.83 309.96 L 188.96 309.54 L 187.18 309.06 L 185.48 308.53 L 183.85 307.94 L 182.29 307.29 L 180.80 306.59 L 179.35 305.83 L 177.96 305.01 L 176.60 304.14 L 175.29 303.20 L 174.00 302.20 L 172.74 301.12 L 171.51 299.97 L 170.30 298.75 L 169.12 297.45 L 167.97 296.06 L 166.84 294.60 L 165.74 293.05 L 164.67 291.41 L 163.64 289.69 L 162.64 287.89 L 161.68 286.01 L 160.77 284.05 L 159.90 282.01 L 159.08 279.90 L 158.32 277.72 L 157.61 275.47 L 156.95 273.17 L 156.36 270.81 L 155.83 268.40 L 155.37 265.95 L 154.97 263.46 L 154.64 260.94 L 154.37 258.39 L 154.18 255.82 L 154.06 253.24 L 154.00 250.65 L 154.02 248.06 L 154.11 245.47 L 154.27 242.89 L 154.50 240.33 L 154.79 237.80 L 155.16 235.29 L 155.59 232.82 L 156.09 230.39 L 156.65 228.00 L 157.27 225.67 L 157.95 223.40 L 158.69 221.18 L 159.48 219.04 L 160.33 216.96 L 161.22 214.96 L 162.15 213.04 L 163.13 211.20 L 164.15 209.44 L 165.20 207.76 L 166.28 206.17 L 167.40 204.66 L 168.54 203.23 L 169.71 201.89 L 170.90 200.63 L 172.12 199.44 L 173.37 198.33 L 174.64 197.29 L 175.94 196.32 L 177.28 195.42 L 178.65 194.57 L 180.07 193.78 L 181.54 193.05 L 183.06 192.38 L 184.65 191.76 L 186.32 191.20 L 188.06 190.69 L 189.88 190.24 L 191.80 189.86 L 193.82 189.54 L 195.94 189.29 L 198.16 189.11 L 200.49 189.02 L 202.94 189.01 L 205.50 189.08 L 208.17 189.26 L 210.96 189.53 L 213.86 189.90 L 216.87 190.38 L 219.99 190.97 L 223.22 191.66 L 226.55 192.47 L 229.99 193.40 L 233.52 194.44 L 237.15 195.60 L 240.87 196.87 L 244.68 198.27 L 248.58 199.77 L 252.56 201.39 L 256.62 203.13 L 260.76 204.97 L 264.97 206.93 L 269.25 208.99 L 273.60 211.16 L 278.01 213.43 L 282.48 215.80 L 287.02 218.27 L 291.60 220.82 L 296.24 223.47 L 300.94 226.21 L 305.67 229.02 L 310.46 231.91 L 315.29 234.88 L 320.15 237.91 L 325.06 241.02 L 330.00 244.18 L 334.98 247.40 L 339.98 250.67 L 345.02 253.98 L 350.08 257.34 L 355.17 260.74 L 360.28 264.17 L 365.41 267.63 L 370.56 271.12 L 375.73 274.62 L 380.91 278.13" fill="none" stroke="#0A0E17" stroke-width="16.0" stroke-linecap="round" stroke-linejoin="round" opacity="0.82"/>
<path d="M 419.09 221.87 L 423.29 224.71 L 427.47 227.55 L 431.64 230.37 L 435.81 233.19 L 439.95 235.98 L 444.09 238.76 L 448.21 241.52 L 452.32 244.25 L 456.40 246.96 L 460.47 249.63 L 464.52 252.28 L 468.55 254.89 L 472.56 257.47 L 476.55 260.01 L 480.51 262.50 L 484.45 264.96 L 488.36 267.37 L 492.24 269.73 L 496.09 272.04 L 499.92 274.30 L 503.71 276.50 L 507.47 278.65 L 511.19 280.74 L 514.88 282.77 L 518.54 284.74 L 522.15 286.65 L 525.72 288.49 L 529.25 290.27 L 532.74 291.98 L 536.18 293.61 L 539.58 295.18 L 542.93 296.67 L 546.23 298.10 L 549.47 299.44 L 552.67 300.72 L 555.80 301.92 L 558.89 303.04 L 561.91 304.09 L 564.87 305.06 L 567.77 305.95 L 570.61 306.77 L 573.38 307.51 L 576.09 308.18 L 578.73 308.77 L 581.30 309.29 L 583.79 309.73 L 586.22 310.11 L 588.57 310.42 L 590.85 310.66 L 593.05 310.83 L 595.18 310.94 L 597.24 311.00 L 599.22 310.99 L 601.13 310.93 L 602.96 310.81 L 604.73 310.64 L 606.42 310.43 L 608.05 310.17 L 609.62 309.87 L 611.12 309.52 L 612.57 309.14 L 613.96 308.72 L 615.30 308.26 L 616.59 307.76 L 617.84 307.23 L 619.05 306.66 L 620.23 306.06 L 621.37 305.42 L 622.49 304.74 L 623.58 304.02 L 624.64 303.25 L 625.69 302.45 L 626.71 301.60 L 627.72 300.70 L 628.71 299.76 L 629.68 298.76 L 630.64 297.72 L 631.58 296.62 L 632.51 295.46 L 633.41 294.26 L 634.30 292.99 L 635.17 291.67 L 636.01 290.30 L 636.83 288.87 L 637.62 287.39 L 638.39 285.85 L 639.13 284.27 L 639.84 282.63 L 640.52 280.95 L 641.17 279.22 L 641.78 277.44 L 642.35 275.62 L 642.88 273.77 L 643.38 271.87 L 643.84 269.95 L 644.25 267.99 L 644.62 266.00 L 644.95 263.99 L 645.24 261.96 L 645.48 259.91 L 645.67 257.84 L 645.82 255.76 L 645.93 253.67 L 645.99 251.57 L 646.00 249.48 L 645.96 247.38 L 645.88 245.29 L 645.76 243.20 L 645.58 241.13 L 645.36 239.07 L 645.10 237.02 L 644.79 235.00 L 644.44 233.00 L 644.05 231.03 L 643.61 229.09 L 643.14 227.18 L 642.62 225.30 L 642.07 223.46 L 641.47 221.67 L 640.85 219.91 L 640.19 218.20 L 639.49 216.54 L 638.77 214.93 L 638.01 213.37 L 637.23 211.86 L 636.42 210.41 L 635.59 209.01 L 634.73 207.66 L 633.86 206.37 L 632.96 205.13 L 632.05 203.95 L 631.11 202.83 L 630.17 201.75 L 629.20 200.73 L 628.22 199.76 L 627.22 198.84 L 626.20 197.97 L 625.17 197.14 L 624.11 196.36 L 623.03 195.62 L 621.93 194.92 L 620.80 194.26 L 619.65 193.64 L 618.45 193.05 L 617.22 192.50 L 615.95 191.99 L 614.63 191.51 L 613.27 191.07 L 611.85 190.67 L 610.38 190.30 L 608.84 189.98 L 607.25 189.69 L 605.58 189.46 L 603.85 189.27 L 602.05 189.13 L 600.18 189.04 L 598.24 189.00 L 596.22 189.02 L 594.13 189.10 L 591.96 189.25 L 589.72 189.45 L 587.40 189.73 L 585.01 190.07 L 582.55 190.48 L 580.02 190.96 L 577.42 191.52 L 574.75 192.15 L 572.01 192.85 L 569.20 193.63 L 566.33 194.49 L 563.40 195.42 L 560.41 196.43 L 557.35 197.51 L 554.24 198.67 L 551.08 199.91 L 547.86 201.22 L 544.58 202.61 L 541.26 204.06 L 537.89 205.59 L 534.47 207.20 L 531.00 208.87 L 527.49 210.61 L 523.94 212.42 L 520.35 214.29 L 516.71 216.23 L 513.04 218.23 L 509.34 220.30 L 505.59 222.42 L 501.82 224.59 L 498.01 226.83 L 494.17 229.11 L 490.30 231.45 L 486.41 233.83 L 482.48 236.26 L 478.53 238.74 L 474.56 241.26 L 470.56 243.82 L 466.54 246.41 L 462.50 249.04 L 458.44 251.70 L 454.36 254.39 L 450.27 257.11 L 446.15 259.86 L 442.02 262.63 L 437.88 265.41 L 433.73 268.22 L 429.56 271.04 L 425.38 273.87 L 421.19 276.71 L 416.99 279.56 L 412.78 282.41 L 408.57 285.27 L 404.35 288.12 L 400.12 290.98 L 395.89 293.82 L 391.65 296.66 L 387.42 299.49 L 383.18 302.31 L 378.93 305.11 L 374.69 307.89 L 370.45 310.65 L 366.20 313.39 L 361.96 316.10 L 357.72 318.79 L 353.49 321.44 L 349.26 324.07 L 345.03 326.65 L 340.80 329.21 L 336.58 331.72 L 332.37 334.19 L 328.16 336.62 L 323.96 339.00 L 319.76 341.33 L 315.57 343.61 L 311.39 345.85 L 307.22 348.02 L 303.05 350.14 L 298.89 352.21 L 294.74 354.21 L 290.60 356.15 L 286.46 358.03 L 282.34 359.84 L 278.22 361.58 L 274.11 363.25 L 270.01 364.85 L 265.92 366.38 L 261.83 367.83 L 257.76 369.21 L 253.69 370.50 L 249.62 371.71 L 245.57 372.84 L 241.52 373.88 L 237.48 374.83 L 233.45 375.69 L 229.43 376.46 L 225.41 377.13 L 221.40 377.70 L 217.40 378.17 L 213.42 378.54 L 209.44 378.80 L 205.47 378.96 L 201.52 379.00 L 197.58 378.93 L 193.66 378.74 L 189.76 378.43 L 185.88 378.01 L 182.03 377.45 L 178.21 376.78 L 174.43 375.98 L 170.68 375.05 L 166.98 374.00 L 163.32 372.82 L 159.71 371.51 L 156.17 370.08 L 152.68 368.52 L 149.27 366.84 L 145.92 365.04 L 142.65 363.13 L 139.47 361.11 L 136.36 358.97 L 133.35 356.74 L 130.42 354.40 L 127.59 351.97 L 124.85 349.45 L 122.21 346.84 L 119.67 344.15 L 117.22 341.39 L 114.88 338.55 L 112.63 335.65 L 110.48 332.69 L 108.43 329.67 L 106.47 326.59 L 104.61 323.46 L 102.85 320.29 L 101.18 317.07 L 99.61 313.81 L 98.12 310.51 L 96.73 307.18 L 95.43 303.81 L 94.21 300.42 L 93.08 296.99 L 92.04 293.55 L 91.09 290.07 L 90.22 286.58 L 89.43 283.06 L 88.72 279.53 L 88.10 275.99 L 87.56 272.43 L 87.10 268.86 L 86.72 265.28 L 86.42 261.69 L 86.20 258.10 L 86.06 254.50 L 86.00 250.90 L 86.02 247.30 L 86.12 243.70 L 86.30 240.10 L 86.56 236.51 L 86.90 232.93 L 87.32 229.35 L 87.82 225.79 L 88.40 222.24 L 89.06 218.70 L 89.81 215.18 L 90.64 211.67 L 91.55 208.19 L 92.55 204.73 L 93.64 201.29 L 94.81 197.88 L 96.07 194.50 L 97.42 191.15 L 98.85 187.83 L 100.38 184.55 L 102.01 181.31 L 103.72 178.12 L 105.53 174.97 L 107.44 171.86 L 109.44 168.81 L 111.54 165.82 L 113.74 162.89 L 116.04 160.02 L 118.43 157.22 L 120.93 154.50 L 123.52 151.85 L 126.21 149.28 L 128.99 146.81 L 131.87 144.42 L 134.84 142.13 L 137.90 139.95 L 141.05 137.87 L 144.28 135.90 L 147.59 134.04 L 150.97 132.30 L 154.42 130.69 L 157.93 129.19 L 161.51 127.82 L 165.14 126.58 L 168.82 125.46 L 172.55 124.47 L 176.32 123.60 L 180.12 122.87 L 183.95 122.25 L 187.82 121.77 L 191.71 121.40 L 195.62 121.15 L 199.55 121.02 L 203.49 121.01 L 207.45 121.11 L 211.42 121.31 L 215.41 121.63 L 219.40 122.05 L 223.41 122.57 L 227.42 123.20 L 231.44 123.92 L 235.47 124.73 L 239.50 125.64 L 243.55 126.63 L 247.60 127.72 L 251.65 128.89 L 255.72 130.14 L 259.79 131.47 L 263.87 132.88 L 267.96 134.37 L 272.06 135.94 L 276.17 137.57 L 280.28 139.28 L 284.40 141.06 L 288.53 142.90 L 292.67 144.81 L 296.81 146.78 L 300.97 148.82 L 305.13 150.91 L 309.30 153.06 L 313.48 155.26 L 317.66 157.52 L 321.86 159.83 L 326.06 162.19 L 330.26 164.59 L 334.47 167.04 L 338.69 169.53 L 342.91 172.07 L 347.14 174.64 L 351.37 177.24 L 355.61 179.88 L 359.84 182.55 L 364.08 185.25 L 368.33 187.98 L 372.57 190.73 L 376.81 193.50 L 381.05 196.29 L 385.30 199.10 L 389.54 201.92 L 393.77 204.76 L 398.01 207.60 L 402.24 210.45 L 406.46 213.30 L 410.68 216.16 L 414.89 219.01 L 419.09 221.87" fill="none" stroke="url(#iconmark-braid-grad)" stroke-width="10.0" stroke-linecap="round" stroke-linejoin="round" opacity="0.95"/>
<path d="M 409.55 235.93 L 413.74 238.78 L 417.93 241.62 L 422.12 244.46 L 426.30 247.28 L 430.46 250.09 L 434.62 252.88 L 438.77 255.66 L 442.91 258.41 L 447.04 261.14 L 451.15 263.85 L 455.25 266.53 L 459.33 269.17 L 463.40 271.79 L 467.45 274.37 L 471.48 276.91 L 475.49 279.41 L 479.48 281.86 L 483.45 284.28 L 487.40 286.64 L 491.32 288.96 L 495.22 291.23 L 499.09 293.44 L 502.93 295.60 L 506.75 297.70 L 510.53 299.74 L 514.29 301.72 L 518.01 303.64 L 521.70 305.50 L 525.35 307.29 L 528.97 309.01 L 532.55 310.66 L 536.10 312.24 L 539.60 313.75 L 543.06 315.19 L 546.48 316.55 L 549.86 317.84 L 553.20 319.06 L 556.48 320.20 L 559.72 321.26 L 562.92 322.24 L 566.06 323.15 L 569.15 323.97 L 572.19 324.72 L 575.18 325.39 L 578.11 325.99 L 580.99 326.50 L 583.81 326.94 L 586.58 327.30 L 589.28 327.59 L 591.93 327.80 L 594.52 327.93 L 597.06 327.99 L 599.53 327.99 L 601.94 327.91 L 604.30 327.76 L 606.59 327.54 L 608.83 327.26 L 611.01 326.91 L 613.13 326.50 L 615.20 326.02 L 617.22 325.49 L 619.18 324.89 L 621.10 324.24 L 622.96 323.52 L 624.78 322.75 L 626.55 321.92 L 628.28 321.03 L 629.96 320.09 L 631.60 319.08 L 633.21 318.02 L 634.77 316.91 L 636.30 315.73 L 637.79 314.50 L 639.24 313.21 L 640.65 311.86 L 642.03 310.45 L 643.37 308.98 L 644.68 307.46 L 645.95 305.88 L 647.17 304.24 L 648.36 302.54 L 649.51 300.79 L 650.62 298.98 L 651.69 297.12 L 652.72 295.21 L 653.70 293.25 L 654.64 291.24 L 655.53 289.19 L 656.37 287.09 L 657.17 284.94 L 657.92 282.76 L 658.62 280.54 L 659.27 278.28 L 659.87 275.99 L 660.42 273.67 L 660.92 271.32 L 661.37 268.94 L 661.76 266.55 L 662.10 264.13 L 662.38 261.70 L 662.62 259.25 L 662.79 256.79 L 662.92 254.33 L 662.98 251.85 L 663.00 249.38 L 662.96 246.91 L 662.86 244.44 L 662.71 241.98 L 662.51 239.53 L 662.25 237.08 L 661.94 234.66 L 661.57 232.25 L 661.15 229.87 L 660.68 227.51 L 660.16 225.17 L 659.58 222.86 L 658.95 220.59 L 658.28 218.35 L 657.55 216.15 L 656.78 213.98 L 655.96 211.86 L 655.09 209.78 L 654.17 207.75 L 653.21 205.76 L 652.21 203.82 L 651.16 201.94 L 650.07 200.11 L 648.94 198.33 L 647.77 196.60 L 646.56 194.94 L 645.32 193.33 L 644.03 191.77 L 642.71 190.28 L 641.35 188.84 L 639.95 187.46 L 638.52 186.14 L 637.05 184.88 L 635.54 183.67 L 633.99 182.53 L 632.41 181.44 L 630.79 180.41 L 629.12 179.43 L 627.42 178.52 L 625.67 177.66 L 623.87 176.86 L 622.03 176.11 L 620.15 175.43 L 618.21 174.80 L 616.22 174.24 L 614.18 173.73 L 612.08 173.29 L 609.93 172.91 L 607.72 172.59 L 605.45 172.34 L 603.13 172.16 L 600.74 172.04 L 598.30 172.00 L 595.80 172.03 L 593.24 172.13 L 590.62 172.30 L 587.94 172.55 L 585.20 172.87 L 582.41 173.27 L 579.56 173.75 L 576.65 174.30 L 573.69 174.93 L 570.68 175.64 L 567.61 176.43 L 564.49 177.30 L 561.33 178.24 L 558.11 179.26 L 554.85 180.36 L 551.54 181.54 L 548.18 182.79 L 544.78 184.12 L 541.34 185.52 L 537.85 186.99 L 534.33 188.54 L 530.77 190.16 L 527.17 191.85 L 523.53 193.60 L 519.86 195.42 L 516.15 197.31 L 512.41 199.26 L 508.64 201.27 L 504.84 203.34 L 501.01 205.47 L 497.16 207.66 L 493.27 209.90 L 489.36 212.19 L 485.43 214.53 L 481.47 216.92 L 477.49 219.36 L 473.49 221.84 L 469.47 224.36 L 465.43 226.92 L 461.37 229.51 L 457.29 232.15 L 453.20 234.81 L 449.10 237.50 L 444.98 240.22 L 440.84 242.96 L 436.70 245.73 L 432.55 248.51 L 428.38 251.31 L 424.21 254.13 L 420.03 256.96 L 415.84 259.80 L 411.64 262.64 L 407.45 265.49 L 403.24 268.34 L 399.04 271.19 L 394.83 274.04 L 390.62 276.88 L 386.41 279.71 L 382.20 282.53 L 378.00 285.34 L 373.79 288.13 L 369.59 290.90 L 365.39 293.66 L 361.20 296.38 L 357.01 299.09 L 352.83 301.76 L 348.66 304.41 L 344.50 307.02 L 340.34 309.59 L 336.19 312.13 L 332.06 314.63 L 327.93 317.08 L 323.82 319.49 L 319.72 321.86 L 315.63 324.17 L 311.56 326.44 L 307.50 328.65 L 303.46 330.81 L 299.43 332.91 L 295.41 334.96 L 291.42 336.94 L 287.44 338.86 L 283.48 340.71 L 279.53 342.50 L 275.61 344.23 L 271.70 345.88 L 267.82 347.46 L 263.95 348.97 L 260.10 350.41 L 256.27 351.77 L 252.47 353.05 L 248.68 354.25 L 244.92 355.37 L 241.18 356.41 L 237.46 357.37 L 233.76 358.24 L 230.08 359.03 L 226.43 359.72 L 222.80 360.33 L 219.20 360.84 L 215.62 361.27 L 212.07 361.59 L 208.55 361.83 L 205.05 361.96 L 201.58 362.00 L 198.14 361.94 L 194.73 361.77 L 191.36 361.51 L 188.02 361.14 L 184.71 360.67 L 181.45 360.09 L 178.23 359.41 L 175.05 358.62 L 171.91 357.73 L 168.83 356.74 L 165.80 355.64 L 162.82 354.43 L 159.90 353.13 L 157.04 351.72 L 154.24 350.22 L 151.51 348.62 L 148.84 346.92 L 146.24 345.14 L 143.72 343.27 L 141.27 341.31 L 138.89 339.26 L 136.58 337.14 L 134.36 334.95 L 132.21 332.68 L 130.14 330.33 L 128.15 327.93 L 126.23 325.46 L 124.39 322.93 L 122.64 320.34 L 120.96 317.69 L 119.36 315.00 L 117.83 312.25 L 116.38 309.46 L 115.01 306.63 L 113.72 303.75 L 112.50 300.83 L 111.36 297.88 L 110.29 294.90 L 109.30 291.88 L 108.38 288.83 L 107.53 285.76 L 106.76 282.66 L 106.06 279.54 L 105.43 276.40 L 104.88 273.24 L 104.39 270.07 L 103.98 266.88 L 103.64 263.68 L 103.38 260.47 L 103.18 257.25 L 103.06 254.03 L 103.00 250.81 L 103.02 247.58 L 103.11 244.36 L 103.27 241.14 L 103.50 237.93 L 103.80 234.72 L 104.18 231.53 L 104.63 228.34 L 105.14 225.18 L 105.74 222.03 L 106.40 218.90 L 107.14 215.79 L 107.94 212.70 L 108.83 209.64 L 109.78 206.61 L 110.81 203.61 L 111.92 200.64 L 113.10 197.70 L 114.36 194.81 L 115.69 191.95 L 117.10 189.14 L 118.58 186.37 L 120.15 183.65 L 121.79 180.98 L 123.51 178.36 L 125.30 175.80 L 127.18 173.30 L 129.13 170.86 L 131.16 168.49 L 133.27 166.18 L 135.46 163.95 L 137.73 161.79 L 140.07 159.70 L 142.48 157.70 L 144.97 155.79 L 147.53 153.96 L 150.17 152.22 L 152.87 150.57 L 155.63 149.02 L 158.46 147.56 L 161.35 146.21 L 164.30 144.95 L 167.31 143.80 L 170.37 142.75 L 173.47 141.81 L 176.63 140.97 L 179.83 140.24 L 183.08 139.61 L 186.36 139.08 L 189.68 138.66 L 193.04 138.35 L 196.43 138.13 L 199.85 138.02 L 203.31 138.01 L 206.79 138.09 L 210.30 138.28 L 213.84 138.56 L 217.41 138.93 L 221.00 139.40 L 224.62 139.96 L 228.26 140.62 L 231.92 141.36 L 235.60 142.18 L 239.31 143.10 L 243.04 144.10 L 246.80 145.18 L 250.57 146.34 L 254.37 147.58 L 258.18 148.90 L 262.02 150.30 L 265.88 151.77 L 269.76 153.32 L 273.65 154.94 L 277.57 156.63 L 281.50 158.38 L 285.46 160.21 L 289.43 162.09 L 293.41 164.05 L 297.42 166.06 L 301.44 168.13 L 305.48 170.26 L 309.53 172.45 L 313.59 174.69 L 317.67 176.98 L 321.77 179.32 L 325.88 181.71 L 329.99 184.14 L 334.12 186.62 L 338.27 189.14 L 342.42 191.69 L 346.58 194.29 L 350.75 196.91 L 354.92 199.57 L 359.11 202.26 L 363.30 204.98 L 367.49 207.72 L 371.69 210.48 L 375.89 213.26 L 380.10 216.06 L 384.31 218.88 L 388.52 221.70 L 392.73 224.54 L 396.93 227.38 L 401.14 230.23 L 405.34 233.08 L 409.55 235.93" fill="none" stroke="url(#iconmark-braid-grad-rev)" stroke-width="10.0" stroke-linecap="round" stroke-linejoin="round" opacity="0.95"/>
<path d="M 400.00 250.00 L 404.20 252.85 L 408.40 255.69 L 412.59 258.54 L 416.79 261.37 L 420.97 264.19 L 425.16 267.00 L 429.34 269.80 L 433.51 272.58 L 437.67 275.33 L 441.83 278.07 L 445.98 280.78 L 450.11 283.46 L 454.24 286.11 L 458.35 288.73 L 462.45 291.31 L 466.54 293.86 L 470.61 296.36 L 474.66 298.83 L 478.70 301.25 L 482.72 303.63 L 486.72 305.95 L 490.71 308.23 L 494.67 310.46 L 498.61 312.63 L 502.53 314.74 L 506.42 316.80 L 510.30 318.79 L 514.14 320.73 L 517.96 322.60 L 521.76 324.40 L 525.52 326.14 L 529.26 327.81 L 532.97 329.41 L 536.65 330.94 L 540.30 332.39 L 543.92 333.77 L 547.51 335.08 L 551.06 336.31 L 554.58 337.46 L 558.06 338.53 L 561.51 339.53 L 564.92 340.44 L 568.29 341.27 L 571.63 342.02 L 574.93 342.69 L 578.19 343.27 L 581.41 343.77 L 584.58 344.18 L 587.72 344.51 L 590.81 344.76 L 593.87 344.92 L 596.87 344.99 L 599.84 344.98 L 602.76 344.89 L 605.63 344.71 L 608.45 344.44 L 611.23 344.09 L 613.97 343.65 L 616.65 343.13 L 619.29 342.53 L 621.87 341.84 L 624.41 341.07 L 626.89 340.22 L 629.33 339.28 L 631.71 338.27 L 634.04 337.18 L 636.32 336.01 L 638.55 334.76 L 640.72 333.43 L 642.84 332.03 L 644.90 330.56 L 646.91 329.01 L 648.86 327.40 L 650.76 325.71 L 652.60 323.96 L 654.38 322.13 L 656.10 320.25 L 657.77 318.30 L 659.38 316.29 L 660.94 314.22 L 662.43 312.09 L 663.86 309.91 L 665.24 307.67 L 666.55 305.38 L 667.81 303.04 L 669.00 300.65 L 670.14 298.22 L 671.21 295.74 L 672.23 293.22 L 673.18 290.67 L 674.07 288.08 L 674.90 285.45 L 675.66 282.79 L 676.37 280.10 L 677.01 277.39 L 677.59 274.65 L 678.11 271.88 L 678.57 269.10 L 678.96 266.30 L 679.29 263.49 L 679.56 260.66 L 679.76 257.83 L 679.90 254.98 L 679.98 252.14 L 680.00 249.29 L 679.95 246.44 L 679.84 243.59 L 679.67 240.75 L 679.43 237.92 L 679.13 235.10 L 678.77 232.30 L 678.35 229.51 L 677.86 226.73 L 677.31 223.98 L 676.70 221.25 L 676.03 218.55 L 675.29 215.88 L 674.49 213.23 L 673.63 210.62 L 672.71 208.05 L 671.73 205.51 L 670.68 203.01 L 669.58 200.56 L 668.41 198.15 L 667.19 195.79 L 665.90 193.47 L 664.56 191.21 L 663.15 189.00 L 661.69 186.84 L 660.17 184.74 L 658.59 182.70 L 656.95 180.72 L 655.25 178.80 L 653.49 176.95 L 651.68 175.16 L 649.81 173.44 L 647.89 171.79 L 645.91 170.20 L 643.87 168.69 L 641.78 167.26 L 639.64 165.89 L 637.44 164.61 L 635.19 163.40 L 632.88 162.27 L 630.53 161.21 L 628.12 160.24 L 625.66 159.35 L 623.15 158.54 L 620.59 157.81 L 617.97 157.16 L 615.31 156.60 L 612.61 156.12 L 609.85 155.73 L 607.05 155.42 L 604.20 155.19 L 601.30 155.05 L 598.36 155.00 L 595.38 155.03 L 592.35 155.15 L 589.27 155.35 L 586.16 155.64 L 583.00 156.01 L 579.80 156.47 L 576.56 157.01 L 573.28 157.64 L 569.97 158.35 L 566.61 159.14 L 563.22 160.01 L 559.79 160.96 L 556.32 161.99 L 552.82 163.11 L 549.29 164.30 L 545.72 165.57 L 542.12 166.91 L 538.48 168.33 L 534.82 169.82 L 531.12 171.38 L 527.40 173.02 L 523.64 174.72 L 519.86 176.49 L 516.06 178.33 L 512.22 180.23 L 508.36 182.20 L 504.48 184.22 L 500.57 186.31 L 496.64 188.45 L 492.69 190.65 L 488.72 192.90 L 484.73 195.20 L 480.71 197.55 L 476.69 199.95 L 472.64 202.40 L 468.58 204.88 L 464.50 207.41 L 460.40 209.98 L 456.30 212.58 L 452.18 215.21 L 448.05 217.88 L 443.91 220.58 L 439.75 223.30 L 435.59 226.04 L 431.42 228.81 L 427.25 231.60 L 423.07 234.40 L 418.88 237.22 L 414.69 240.05 L 410.49 242.88 L 406.30 245.73 L 402.10 248.58 L 397.90 251.42 L 393.70 254.27 L 389.51 257.12 L 385.31 259.95 L 381.12 262.78 L 376.93 265.60 L 372.75 268.40 L 368.58 271.19 L 364.41 273.96 L 360.25 276.70 L 356.09 279.42 L 351.95 282.12 L 347.82 284.79 L 343.70 287.42 L 339.60 290.02 L 335.50 292.59 L 331.42 295.12 L 327.36 297.60 L 323.31 300.05 L 319.29 302.45 L 315.27 304.80 L 311.28 307.10 L 307.31 309.35 L 303.36 311.55 L 299.43 313.69 L 295.52 315.78 L 291.64 317.80 L 287.78 319.77 L 283.94 321.67 L 280.14 323.51 L 276.36 325.28 L 272.60 326.98 L 268.88 328.62 L 265.18 330.18 L 261.52 331.67 L 257.88 333.09 L 254.28 334.43 L 250.71 335.70 L 247.18 336.89 L 243.68 338.01 L 240.21 339.04 L 236.78 339.99 L 233.39 340.86 L 230.03 341.65 L 226.72 342.36 L 223.44 342.99 L 220.20 343.53 L 217.00 343.99 L 213.84 344.36 L 210.73 344.65 L 207.65 344.85 L 204.62 344.97 L 201.64 345.00 L 198.70 344.95 L 195.80 344.81 L 192.95 344.58 L 190.15 344.27 L 187.39 343.88 L 184.69 343.40 L 182.03 342.84 L 179.41 342.19 L 176.85 341.46 L 174.34 340.65 L 171.88 339.76 L 169.47 338.79 L 167.12 337.73 L 164.81 336.60 L 162.56 335.39 L 160.36 334.11 L 158.22 332.74 L 156.13 331.31 L 154.09 329.80 L 152.11 328.21 L 150.19 326.56 L 148.32 324.84 L 146.51 323.05 L 144.75 321.20 L 143.05 319.28 L 141.41 317.30 L 139.83 315.26 L 138.31 313.16 L 136.85 311.00 L 135.44 308.79 L 134.10 306.53 L 132.81 304.21 L 131.59 301.85 L 130.42 299.44 L 129.32 296.99 L 128.27 294.49 L 127.29 291.95 L 126.37 289.38 L 125.51 286.77 L 124.71 284.12 L 123.97 281.45 L 123.30 278.75 L 122.69 276.02 L 122.14 273.27 L 121.65 270.49 L 121.23 267.70 L 120.87 264.90 L 120.57 262.08 L 120.33 259.25 L 120.16 256.41 L 120.05 253.56 L 120.00 250.71 L 120.02 247.86 L 120.10 245.02 L 120.24 242.17 L 120.44 239.34 L 120.71 236.51 L 121.04 233.70 L 121.43 230.90 L 121.89 228.12 L 122.41 225.35 L 122.99 222.61 L 123.63 219.90 L 124.34 217.21 L 125.10 214.55 L 125.93 211.92 L 126.82 209.33 L 127.77 206.78 L 128.79 204.26 L 129.86 201.78 L 131.00 199.35 L 132.19 196.96 L 133.45 194.62 L 134.76 192.33 L 136.14 190.09 L 137.57 187.91 L 139.06 185.78 L 140.62 183.71 L 142.23 181.70 L 143.90 179.75 L 145.62 177.87 L 147.40 176.04 L 149.24 174.29 L 151.14 172.60 L 153.09 170.99 L 155.10 169.44 L 157.16 167.97 L 159.28 166.57 L 161.45 165.24 L 163.68 163.99 L 165.96 162.82 L 168.29 161.73 L 170.67 160.72 L 173.11 159.78 L 175.59 158.93 L 178.13 158.16 L 180.71 157.47 L 183.35 156.87 L 186.03 156.35 L 188.77 155.91 L 191.55 155.56 L 194.37 155.29 L 197.24 155.11 L 200.16 155.02 L 203.13 155.01 L 206.13 155.08 L 209.19 155.24 L 212.28 155.49 L 215.42 155.82 L 218.59 156.23 L 221.81 156.73 L 225.07 157.31 L 228.37 157.98 L 231.71 158.73 L 235.08 159.56 L 238.49 160.47 L 241.94 161.47 L 245.42 162.54 L 248.94 163.69 L 252.49 164.92 L 256.08 166.23 L 259.70 167.61 L 263.35 169.06 L 267.03 170.59 L 270.74 172.19 L 274.48 173.86 L 278.24 175.60 L 282.04 177.40 L 285.86 179.27 L 289.70 181.21 L 293.58 183.20 L 297.47 185.26 L 301.39 187.37 L 305.33 189.54 L 309.29 191.77 L 313.28 194.05 L 317.28 196.37 L 321.30 198.75 L 325.34 201.17 L 329.39 203.64 L 333.46 206.14 L 337.55 208.69 L 341.65 211.27 L 345.76 213.89 L 349.89 216.54 L 354.02 219.22 L 358.17 221.93 L 362.33 224.67 L 366.49 227.42 L 370.66 230.20 L 374.84 233.00 L 379.03 235.81 L 383.21 238.63 L 387.41 241.46 L 391.60 244.31 L 395.80 247.15 L 400.00 250.00" fill="none" stroke="url(#iconmark-braid-grad)" stroke-width="10.0" stroke-linecap="round" stroke-linejoin="round" opacity="0.95"/>
<path d="M 390.45 264.07 L 394.66 266.92 L 398.86 269.77 L 403.07 272.62 L 407.27 275.46 L 411.48 278.30 L 415.69 281.12 L 419.90 283.94 L 424.11 286.74 L 428.31 289.52 L 432.51 292.28 L 436.70 295.02 L 440.89 297.74 L 445.08 300.43 L 449.25 303.09 L 453.42 305.71 L 457.58 308.31 L 461.73 310.86 L 465.88 313.38 L 470.01 315.86 L 474.12 318.29 L 478.23 320.68 L 482.33 323.02 L 486.41 325.31 L 490.47 327.55 L 494.52 329.74 L 498.56 331.87 L 502.58 333.94 L 506.59 335.95 L 510.57 337.91 L 514.54 339.79 L 518.50 341.62 L 522.43 343.37 L 526.35 345.06 L 530.24 346.68 L 534.12 348.23 L 537.98 349.70 L 541.82 351.10 L 545.63 352.42 L 549.43 353.66 L 553.20 354.82 L 556.96 355.90 L 560.69 356.90 L 564.40 357.82 L 568.08 358.64 L 571.74 359.38 L 575.38 360.04 L 579.00 360.60 L 582.59 361.07 L 586.16 361.44 L 589.70 361.72 L 593.21 361.91 L 596.69 361.99 L 600.15 361.98 L 603.57 361.87 L 606.96 361.65 L 610.32 361.34 L 613.64 360.92 L 616.92 360.39 L 620.17 359.76 L 623.37 359.03 L 626.53 358.19 L 629.63 357.25 L 632.69 356.20 L 635.70 355.05 L 638.65 353.79 L 641.54 352.44 L 644.37 350.98 L 647.13 349.43 L 649.83 347.78 L 652.47 346.04 L 655.03 344.21 L 657.52 342.30 L 659.93 340.30 L 662.27 338.21 L 664.54 336.05 L 666.73 333.82 L 668.84 331.51 L 670.87 329.14 L 672.82 326.70 L 674.70 324.20 L 676.49 321.64 L 678.21 319.02 L 679.85 316.35 L 681.42 313.63 L 682.90 310.86 L 684.31 308.05 L 685.64 305.19 L 686.90 302.30 L 688.08 299.36 L 689.19 296.39 L 690.22 293.39 L 691.17 290.36 L 692.06 287.30 L 692.86 284.21 L 693.60 281.10 L 694.26 277.97 L 694.86 274.82 L 695.37 271.66 L 695.82 268.47 L 696.20 265.28 L 696.50 262.07 L 696.73 258.86 L 696.89 255.64 L 696.98 252.42 L 697.00 249.19 L 696.94 245.97 L 696.82 242.75 L 696.62 239.53 L 696.36 236.32 L 696.02 233.12 L 695.61 229.93 L 695.12 226.76 L 694.57 223.60 L 693.94 220.46 L 693.24 217.34 L 692.47 214.24 L 691.62 211.17 L 690.70 208.12 L 689.71 205.10 L 688.64 202.12 L 687.50 199.17 L 686.28 196.25 L 684.99 193.37 L 683.62 190.54 L 682.17 187.75 L 680.64 185.00 L 679.04 182.31 L 677.36 179.66 L 675.61 177.07 L 673.77 174.54 L 671.85 172.07 L 669.86 169.67 L 667.79 167.32 L 665.64 165.05 L 663.42 162.86 L 661.11 160.74 L 658.73 158.69 L 656.28 156.73 L 653.76 154.86 L 651.16 153.08 L 648.49 151.38 L 645.76 149.78 L 642.96 148.28 L 640.10 146.87 L 637.18 145.57 L 634.20 144.36 L 631.17 143.26 L 628.09 142.27 L 624.95 141.38 L 621.77 140.59 L 618.55 139.91 L 615.29 139.33 L 611.98 138.86 L 608.64 138.49 L 605.27 138.23 L 601.86 138.06 L 598.42 138.00 L 594.95 138.04 L 591.45 138.17 L 587.93 138.41 L 584.38 138.73 L 580.80 139.16 L 577.20 139.67 L 573.57 140.28 L 569.92 140.97 L 566.24 141.76 L 562.54 142.63 L 558.82 143.59 L 555.08 144.63 L 551.32 145.75 L 547.53 146.95 L 543.73 148.23 L 539.90 149.59 L 536.05 151.03 L 532.18 152.54 L 528.30 154.12 L 524.39 155.77 L 520.47 157.50 L 516.52 159.29 L 512.56 161.14 L 508.58 163.06 L 504.59 165.04 L 500.57 167.09 L 496.54 169.19 L 492.50 171.35 L 488.44 173.56 L 484.37 175.83 L 480.28 178.14 L 476.18 180.51 L 472.07 182.92 L 467.94 185.37 L 463.81 187.87 L 459.66 190.41 L 455.50 192.98 L 451.34 195.59 L 447.17 198.24 L 442.99 200.91 L 438.80 203.62 L 434.61 206.34 L 430.41 209.10 L 426.21 211.87 L 422.00 214.66 L 417.80 217.47 L 413.59 220.29 L 409.38 223.12 L 405.17 225.96 L 400.96 228.81 L 396.76 231.66 L 392.55 234.51 L 388.36 237.36 L 384.16 240.20 L 379.97 243.04 L 375.79 245.87 L 371.62 248.69 L 367.45 251.49 L 363.30 254.27 L 359.16 257.04 L 355.02 259.78 L 350.90 262.50 L 346.80 265.19 L 342.71 267.85 L 338.63 270.49 L 334.57 273.08 L 330.53 275.64 L 326.51 278.16 L 322.51 280.64 L 318.53 283.08 L 314.57 285.47 L 310.64 287.81 L 306.73 290.10 L 302.84 292.34 L 298.99 294.53 L 295.16 296.66 L 291.36 298.73 L 287.59 300.74 L 283.85 302.69 L 280.14 304.58 L 276.47 306.40 L 272.83 308.15 L 269.23 309.84 L 265.67 311.46 L 262.15 313.01 L 258.66 314.48 L 255.22 315.88 L 251.82 317.21 L 248.46 318.46 L 245.15 319.64 L 241.89 320.74 L 238.67 321.76 L 235.51 322.70 L 232.39 323.57 L 229.32 324.36 L 226.31 325.07 L 223.35 325.70 L 220.44 326.25 L 217.59 326.73 L 214.80 327.13 L 212.06 327.45 L 209.38 327.70 L 206.76 327.87 L 204.20 327.97 L 201.70 328.00 L 199.26 327.96 L 196.87 327.84 L 194.55 327.66 L 192.28 327.41 L 190.07 327.09 L 187.92 326.71 L 185.82 326.27 L 183.78 325.76 L 181.79 325.20 L 179.85 324.57 L 177.97 323.89 L 176.13 323.14 L 174.33 322.34 L 172.58 321.48 L 170.88 320.57 L 169.21 319.59 L 167.59 318.56 L 166.01 317.47 L 164.46 316.33 L 162.95 315.12 L 161.48 313.86 L 160.05 312.54 L 158.65 311.16 L 157.29 309.72 L 155.97 308.23 L 154.68 306.67 L 153.44 305.06 L 152.23 303.40 L 151.06 301.67 L 149.93 299.89 L 148.84 298.06 L 147.79 296.18 L 146.79 294.24 L 145.83 292.25 L 144.91 290.22 L 144.04 288.14 L 143.22 286.02 L 142.45 283.85 L 141.72 281.65 L 141.05 279.41 L 140.42 277.14 L 139.84 274.83 L 139.32 272.49 L 138.85 270.13 L 138.43 267.75 L 138.06 265.34 L 137.75 262.92 L 137.49 260.47 L 137.29 258.02 L 137.14 255.56 L 137.04 253.09 L 137.00 250.62 L 137.02 248.15 L 137.08 245.67 L 137.21 243.21 L 137.38 240.75 L 137.62 238.30 L 137.90 235.87 L 138.24 233.45 L 138.63 231.06 L 139.08 228.68 L 139.58 226.33 L 140.13 224.01 L 140.73 221.72 L 141.38 219.46 L 142.08 217.24 L 142.83 215.06 L 143.63 212.91 L 144.47 210.81 L 145.36 208.76 L 146.30 206.75 L 147.28 204.79 L 148.31 202.88 L 149.38 201.02 L 150.49 199.21 L 151.64 197.46 L 152.83 195.76 L 154.05 194.12 L 155.32 192.54 L 156.63 191.02 L 157.97 189.55 L 159.35 188.14 L 160.76 186.79 L 162.21 185.50 L 163.70 184.27 L 165.23 183.09 L 166.79 181.98 L 168.40 180.92 L 170.04 179.91 L 171.72 178.97 L 173.45 178.08 L 175.22 177.25 L 177.04 176.48 L 178.90 175.76 L 180.82 175.11 L 182.78 174.51 L 184.80 173.98 L 186.87 173.50 L 188.99 173.09 L 191.17 172.74 L 193.41 172.46 L 195.70 172.24 L 198.06 172.09 L 200.47 172.01 L 202.94 172.01 L 205.48 172.07 L 208.07 172.20 L 210.72 172.41 L 213.42 172.70 L 216.19 173.06 L 219.01 173.50 L 221.89 174.01 L 224.82 174.61 L 227.81 175.28 L 230.85 176.03 L 233.94 176.85 L 237.08 177.76 L 240.28 178.74 L 243.52 179.80 L 246.80 180.94 L 250.14 182.16 L 253.52 183.45 L 256.94 184.81 L 260.40 186.25 L 263.90 187.76 L 267.45 189.34 L 271.03 190.99 L 274.65 192.71 L 278.30 194.50 L 281.99 196.36 L 285.71 198.28 L 289.47 200.26 L 293.25 202.30 L 297.07 204.40 L 300.91 206.56 L 304.78 208.77 L 308.68 211.04 L 312.60 213.36 L 316.55 215.72 L 320.52 218.14 L 324.51 220.59 L 328.52 223.09 L 332.55 225.63 L 336.60 228.21 L 340.67 230.83 L 344.75 233.47 L 348.85 236.15 L 352.96 238.86 L 357.09 241.59 L 361.23 244.34 L 365.38 247.12 L 369.54 249.91 L 373.70 252.72 L 377.88 255.54 L 382.07 258.38 L 386.26 261.22 L 390.45 264.07" fill="none" stroke="url(#iconmark-braid-grad-rev)" stroke-width="10.0" stroke-linecap="round" stroke-linejoin="round" opacity="0.95"/>
<path d="M 380.91 278.13 L 385.11 280.99 L 389.32 283.84 L 393.54 286.70 L 397.76 289.55 L 401.99 292.40 L 406.23 295.24 L 410.46 298.08 L 414.70 300.90 L 418.95 303.71 L 423.19 306.50 L 427.43 309.27 L 431.67 312.02 L 435.92 314.75 L 440.16 317.45 L 444.39 320.12 L 448.63 322.76 L 452.86 325.36 L 457.09 327.93 L 461.31 330.47 L 465.53 332.96 L 469.74 335.41 L 473.94 337.81 L 478.14 340.17 L 482.34 342.48 L 486.52 344.74 L 490.70 346.94 L 494.87 349.09 L 499.03 351.18 L 503.19 353.22 L 507.33 355.19 L 511.47 357.10 L 515.60 358.94 L 519.72 360.72 L 523.83 362.43 L 527.94 364.06 L 532.04 365.63 L 536.13 367.12 L 540.21 368.53 L 544.28 369.86 L 548.35 371.11 L 552.40 372.28 L 556.45 373.37 L 560.50 374.36 L 564.53 375.27 L 568.56 376.08 L 572.58 376.80 L 576.59 377.43 L 580.60 377.95 L 584.59 378.37 L 588.58 378.69 L 592.55 378.89 L 596.51 378.99 L 600.45 378.98 L 604.38 378.85 L 608.29 378.60 L 612.18 378.23 L 616.05 377.75 L 619.88 377.13 L 623.68 376.40 L 627.45 375.53 L 631.18 374.54 L 634.86 373.42 L 638.49 372.18 L 642.07 370.81 L 645.58 369.31 L 649.03 367.70 L 652.41 365.96 L 655.72 364.10 L 658.95 362.13 L 662.10 360.05 L 665.16 357.87 L 668.13 355.58 L 671.01 353.19 L 673.79 350.72 L 676.48 348.15 L 679.07 345.50 L 681.57 342.78 L 683.96 339.98 L 686.26 337.11 L 688.46 334.18 L 690.56 331.19 L 692.56 328.14 L 694.47 325.03 L 696.28 321.88 L 697.99 318.69 L 699.62 315.45 L 701.15 312.17 L 702.58 308.85 L 703.93 305.50 L 705.19 302.12 L 706.36 298.71 L 707.45 295.27 L 708.45 291.81 L 709.36 288.33 L 710.19 284.82 L 710.94 281.30 L 711.60 277.76 L 712.18 274.21 L 712.68 270.65 L 713.10 267.07 L 713.44 263.49 L 713.70 259.90 L 713.88 256.30 L 713.98 252.70 L 714.00 249.10 L 713.94 245.50 L 713.80 241.90 L 713.58 238.31 L 713.28 234.72 L 712.90 231.14 L 712.44 227.57 L 711.90 224.01 L 711.28 220.47 L 710.57 216.94 L 709.78 213.42 L 708.91 209.93 L 707.96 206.45 L 706.92 203.01 L 705.79 199.58 L 704.57 196.19 L 703.27 192.82 L 701.88 189.49 L 700.39 186.19 L 698.82 182.93 L 697.15 179.71 L 695.39 176.54 L 693.53 173.41 L 691.57 170.33 L 689.52 167.31 L 687.37 164.35 L 685.12 161.45 L 682.78 158.61 L 680.33 155.85 L 677.79 153.16 L 675.15 150.55 L 672.41 148.03 L 669.58 145.60 L 666.65 143.26 L 663.64 141.03 L 660.53 138.89 L 657.35 136.87 L 654.08 134.96 L 650.73 133.16 L 647.32 131.48 L 643.83 129.92 L 640.29 128.49 L 636.68 127.18 L 633.02 126.00 L 629.32 124.95 L 625.57 124.02 L 621.79 123.22 L 617.97 122.55 L 614.12 121.99 L 610.24 121.57 L 606.34 121.26 L 602.42 121.07 L 598.48 121.00 L 594.53 121.04 L 590.56 121.20 L 586.58 121.46 L 582.60 121.83 L 578.60 122.30 L 574.59 122.87 L 570.57 123.54 L 566.55 124.31 L 562.52 125.17 L 558.48 126.12 L 554.43 127.16 L 550.38 128.29 L 546.31 129.50 L 542.24 130.79 L 538.17 132.17 L 534.08 133.62 L 529.99 135.15 L 525.89 136.75 L 521.78 138.42 L 517.66 140.16 L 513.54 141.97 L 509.40 143.85 L 505.26 145.79 L 501.11 147.79 L 496.95 149.86 L 492.78 151.98 L 488.61 154.15 L 484.43 156.39 L 480.24 158.67 L 476.04 161.00 L 471.84 163.38 L 467.63 165.81 L 463.42 168.28 L 459.20 170.79 L 454.97 173.35 L 450.74 175.93 L 446.51 178.56 L 442.28 181.21 L 438.04 183.90 L 433.80 186.61 L 429.55 189.35 L 425.31 192.11 L 421.07 194.89 L 416.82 197.69 L 412.58 200.51 L 408.35 203.34 L 404.11 206.18 L 399.88 209.02 L 395.65 211.88 L 391.43 214.73 L 387.22 217.59 L 383.01 220.44 L 378.81 223.29 L 374.62 226.13 L 370.44 228.96 L 366.27 231.78 L 362.12 234.59 L 357.98 237.37 L 353.85 240.14 L 349.73 242.89 L 345.64 245.61 L 341.56 248.30 L 337.50 250.96 L 333.46 253.59 L 329.44 256.18 L 325.44 258.74 L 321.47 261.26 L 317.52 263.74 L 313.59 266.17 L 309.70 268.55 L 305.83 270.89 L 301.99 273.17 L 298.18 275.41 L 294.41 277.58 L 290.66 279.70 L 286.96 281.77 L 283.29 283.77 L 279.65 285.71 L 276.06 287.58 L 272.51 289.39 L 269.00 291.13 L 265.53 292.80 L 262.11 294.41 L 258.74 295.94 L 255.42 297.39 L 252.14 298.78 L 248.92 300.09 L 245.76 301.33 L 242.65 302.49 L 239.59 303.57 L 236.60 304.58 L 233.67 305.51 L 230.80 306.37 L 227.99 307.15 L 225.25 307.85 L 222.58 308.48 L 219.98 309.04 L 217.45 309.52 L 214.99 309.93 L 212.60 310.27 L 210.28 310.55 L 208.04 310.75 L 205.87 310.90 L 203.78 310.98 L 201.76 311.00 L 199.82 310.96 L 197.95 310.87 L 196.15 310.73 L 194.42 310.54 L 192.75 310.31 L 191.16 310.02 L 189.62 309.70 L 188.15 309.33 L 186.73 308.93 L 185.37 308.49 L 184.05 308.01 L 182.78 307.50 L 181.55 306.95 L 180.35 306.36 L 179.20 305.74 L 178.07 305.08 L 176.97 304.38 L 175.89 303.64 L 174.83 302.86 L 173.80 302.03 L 172.78 301.16 L 171.78 300.24 L 170.80 299.27 L 169.83 298.25 L 168.89 297.17 L 167.95 296.05 L 167.04 294.87 L 166.14 293.63 L 165.27 292.34 L 164.41 290.99 L 163.58 289.59 L 162.77 288.14 L 161.99 286.63 L 161.23 285.07 L 160.51 283.46 L 159.81 281.80 L 159.15 280.09 L 158.53 278.33 L 157.93 276.54 L 157.38 274.70 L 156.86 272.82 L 156.39 270.91 L 155.95 268.97 L 155.56 267.00 L 155.21 265.00 L 154.90 262.98 L 154.64 260.93 L 154.42 258.87 L 154.24 256.80 L 154.12 254.71 L 154.04 252.62 L 154.00 250.52 L 154.01 248.43 L 154.07 246.33 L 154.18 244.24 L 154.33 242.16 L 154.52 240.09 L 154.76 238.04 L 155.05 236.01 L 155.38 234.00 L 155.75 232.01 L 156.16 230.05 L 156.62 228.13 L 157.12 226.23 L 157.65 224.38 L 158.22 222.56 L 158.83 220.78 L 159.48 219.05 L 160.16 217.37 L 160.87 215.73 L 161.61 214.15 L 162.38 212.61 L 163.17 211.13 L 163.99 209.70 L 164.83 208.33 L 165.70 207.01 L 166.59 205.74 L 167.49 204.54 L 168.42 203.38 L 169.36 202.28 L 170.32 201.24 L 171.29 200.24 L 172.28 199.30 L 173.29 198.40 L 174.31 197.55 L 175.36 196.75 L 176.42 195.98 L 177.51 195.26 L 178.63 194.58 L 179.77 193.94 L 180.95 193.34 L 182.16 192.77 L 183.41 192.24 L 184.70 191.74 L 186.04 191.28 L 187.43 190.86 L 188.88 190.48 L 190.38 190.13 L 191.95 189.83 L 193.58 189.57 L 195.27 189.36 L 197.04 189.19 L 198.87 189.07 L 200.78 189.01 L 202.76 189.00 L 204.82 189.06 L 206.95 189.17 L 209.15 189.34 L 211.43 189.58 L 213.78 189.89 L 216.21 190.27 L 218.70 190.71 L 221.27 191.23 L 223.91 191.82 L 226.62 192.49 L 229.39 193.23 L 232.23 194.05 L 235.13 194.94 L 238.09 195.91 L 241.11 196.96 L 244.20 198.08 L 247.33 199.28 L 250.53 200.56 L 253.77 201.90 L 257.07 203.33 L 260.42 204.82 L 263.82 206.39 L 267.26 208.02 L 270.75 209.73 L 274.28 211.51 L 277.85 213.35 L 281.46 215.26 L 285.12 217.23 L 288.81 219.26 L 292.53 221.35 L 296.29 223.50 L 300.08 225.70 L 303.91 227.96 L 307.76 230.27 L 311.64 232.63 L 315.55 235.04 L 319.49 237.50 L 323.45 239.99 L 327.44 242.53 L 331.45 245.11 L 335.48 247.72 L 339.53 250.37 L 343.60 253.04 L 347.68 255.75 L 351.79 258.48 L 355.91 261.24 L 360.05 264.02 L 364.19 266.81 L 368.36 269.63 L 372.53 272.45 L 376.71 275.29 L 380.91 278.13" fill="none" stroke="url(#iconmark-braid-grad)" stroke-width="10.0" stroke-linecap="round" stroke-linejoin="round" opacity="0.95"/>
<path d="M 479.21 238.31 L 477.74 239.24 L 476.26 240.18 L 474.78 241.11 L 473.30 242.06 L 471.82 243.01 L 470.33 243.96 L 468.84 244.92 L 467.34 245.89 L 465.85 246.86 L 464.35 247.83 L 462.85 248.81 L 461.34 249.80 L 459.83 250.79 L 458.32 251.78 L 456.81 252.78 L 455.29 253.78 L 453.78 254.78 L 452.26 255.79 L 450.73 256.80 L 449.21 257.82 L 447.68 258.84 L 446.15 259.86 L 444.62 260.88 L 443.09 261.91 L 441.55 262.94 L 440.01 263.98 L 438.47 265.01 L 436.93 266.05 L 435.39 267.09 L 433.84 268.14 L 432.30 269.18 L 430.75 270.23 L 429.20 271.28 L 427.65 272.33 L 426.10 273.38 L 424.54 274.44 L 422.99 275.49 L 421.43 276.55 L 419.87 277.61 L 418.31 278.66 L 416.75 279.72 L 415.19 280.78 L 413.63 281.84 L 412.06 282.90 L 410.50 283.96 L 408.93 285.02 L 407.36 286.08 L 405.80 287.15 L 404.23 288.21 L 402.66 289.27 L 401.09 290.33 L 399.52 291.38 L 397.95 292.44 L 396.37 293.50 L 394.80 294.55 L 393.23 295.61 L 391.66 296.66 L 390.08 297.71 L 388.51 298.76 L 386.93 299.81 L 385.36 300.86 L 383.78 301.90 L 382.21 302.95 L 380.63 303.99 L 379.06 305.03 L 377.48 306.06 L 375.90 307.09 L 374.33 308.13 L 372.75 309.15 L 371.18 310.18 L 369.60 311.20 L 368.02 312.22 L 366.45 313.23 L 364.87 314.24 L 363.30 315.25 L 361.72 316.25 L 360.15 317.25 L 358.57 318.25 L 357.00 319.24" fill="none" stroke="#0A0E17" stroke-width="17.0" stroke-linecap="round" stroke-linejoin="round" opacity="0.94"/>
<path d="M 479.21 238.31 L 477.74 239.24 L 476.26 240.18 L 474.78 241.11 L 473.30 242.06 L 471.82 243.01 L 470.33 243.96 L 468.84 244.92 L 467.34 245.89 L 465.85 246.86 L 464.35 247.83 L 462.85 248.81 L 461.34 249.80 L 459.83 250.79 L 458.32 251.78 L 456.81 252.78 L 455.29 253.78 L 453.78 254.78 L 452.26 255.79 L 450.73 256.80 L 449.21 257.82 L 447.68 258.84 L 446.15 259.86 L 444.62 260.88 L 443.09 261.91 L 441.55 262.94 L 440.01 263.98 L 438.47 265.01 L 436.93 266.05 L 435.39 267.09 L 433.84 268.14 L 432.30 269.18 L 430.75 270.23 L 429.20 271.28 L 427.65 272.33 L 426.10 273.38 L 424.54 274.44 L 422.99 275.49 L 421.43 276.55 L 419.87 277.61 L 418.31 278.66 L 416.75 279.72 L 415.19 280.78 L 413.63 281.84 L 412.06 282.90 L 410.50 283.96 L 408.93 285.02 L 407.36 286.08 L 405.80 287.15 L 404.23 288.21 L 402.66 289.27 L 401.09 290.33 L 399.52 291.38 L 397.95 292.44 L 396.37 293.50 L 394.80 294.55 L 393.23 295.61 L 391.66 296.66 L 390.08 297.71 L 388.51 298.76 L 386.93 299.81 L 385.36 300.86 L 383.78 301.90 L 382.21 302.95 L 380.63 303.99 L 379.06 305.03 L 377.48 306.06 L 375.90 307.09 L 374.33 308.13 L 372.75 309.15 L 371.18 310.18 L 369.60 311.20 L 368.02 312.22 L 366.45 313.23 L 364.87 314.24 L 363.30 315.25 L 361.72 316.25 L 360.15 317.25 L 358.57 318.25 L 357.00 319.24" fill="none" stroke="url(#iconmark-braid-grad)" stroke-width="10.0" stroke-linecap="round" stroke-linejoin="round" opacity="1"/>
<path d="M 470.16 223.93 L 468.66 224.87 L 467.16 225.82 L 465.66 226.77 L 464.15 227.73 L 462.64 228.70 L 461.14 229.67 L 459.62 230.64 L 458.11 231.62 L 456.59 232.60 L 455.07 233.59 L 453.55 234.58 L 452.03 235.58 L 450.50 236.57 L 448.98 237.58 L 447.45 238.59 L 445.92 239.60 L 444.39 240.61 L 442.85 241.63 L 441.32 242.65 L 439.78 243.67 L 438.24 244.70 L 436.70 245.73 L 435.16 246.76 L 433.61 247.80 L 432.07 248.83 L 430.52 249.87 L 428.98 250.91 L 427.43 251.96 L 425.88 253.00 L 424.33 254.05 L 422.77 255.10 L 421.22 256.15 L 419.67 257.20 L 418.11 258.26 L 416.56 259.31 L 415.00 260.37 L 413.44 261.42 L 411.88 262.48 L 410.33 263.54 L 408.77 264.60 L 407.21 265.65 L 405.65 266.71 L 404.08 267.77 L 402.52 268.83 L 400.96 269.89 L 399.40 270.95 L 397.84 272.01 L 396.27 273.06 L 394.71 274.12 L 393.15 275.18 L 391.58 276.23 L 390.02 277.28 L 388.46 278.34 L 386.89 279.39 L 385.33 280.44 L 383.77 281.49 L 382.20 282.53 L 380.64 283.58 L 379.08 284.62 L 377.52 285.66 L 375.95 286.70 L 374.39 287.73 L 372.83 288.77 L 371.27 289.80 L 369.71 290.82 L 368.15 291.85 L 366.59 292.87 L 365.03 293.89 L 363.48 294.91 L 361.92 295.92 L 360.36 296.93 L 358.81 297.93 L 357.25 298.93 L 355.70 299.93 L 354.15 300.92 L 352.60 301.91 L 351.05 302.90 L 349.50 303.88 L 347.95 304.85" fill="none" stroke="#0A0E17" stroke-width="17.0" stroke-linecap="round" stroke-linejoin="round" opacity="0.94"/>
<path d="M 470.16 223.93 L 468.66 224.87 L 467.16 225.82 L 465.66 226.77 L 464.15 227.73 L 462.64 228.70 L 461.14 229.67 L 459.62 230.64 L 458.11 231.62 L 456.59 232.60 L 455.07 233.59 L 453.55 234.58 L 452.03 235.58 L 450.50 236.57 L 448.98 237.58 L 447.45 238.59 L 445.92 239.60 L 444.39 240.61 L 442.85 241.63 L 441.32 242.65 L 439.78 243.67 L 438.24 244.70 L 436.70 245.73 L 435.16 246.76 L 433.61 247.80 L 432.07 248.83 L 430.52 249.87 L 428.98 250.91 L 427.43 251.96 L 425.88 253.00 L 424.33 254.05 L 422.77 255.10 L 421.22 256.15 L 419.67 257.20 L 418.11 258.26 L 416.56 259.31 L 415.00 260.37 L 413.44 261.42 L 411.88 262.48 L 410.33 263.54 L 408.77 264.60 L 407.21 265.65 L 405.65 266.71 L 404.08 267.77 L 402.52 268.83 L 400.96 269.89 L 399.40 270.95 L 397.84 272.01 L 396.27 273.06 L 394.71 274.12 L 393.15 275.18 L 391.58 276.23 L 390.02 277.28 L 388.46 278.34 L 386.89 279.39 L 385.33 280.44 L 383.77 281.49 L 382.20 282.53 L 380.64 283.58 L 379.08 284.62 L 377.52 285.66 L 375.95 286.70 L 374.39 287.73 L 372.83 288.77 L 371.27 289.80 L 369.71 290.82 L 368.15 291.85 L 366.59 292.87 L 365.03 293.89 L 363.48 294.91 L 361.92 295.92 L 360.36 296.93 L 358.81 297.93 L 357.25 298.93 L 355.70 299.93 L 354.15 300.92 L 352.60 301.91 L 351.05 302.90 L 349.50 303.88 L 347.95 304.85" fill="none" stroke="url(#iconmark-braid-grad)" stroke-width="10.0" stroke-linecap="round" stroke-linejoin="round" opacity="1"/>
<path d="M 461.10 209.54 L 459.58 210.50 L 458.06 211.46 L 456.53 212.43 L 455.00 213.40 L 453.47 214.38 L 451.94 215.37 L 450.41 216.35 L 448.87 217.35 L 447.34 218.34 L 445.80 219.34 L 444.26 220.34 L 442.72 221.35 L 441.18 222.36 L 439.63 223.38 L 438.09 224.39 L 436.54 225.41 L 435.00 226.44 L 433.45 227.46 L 431.90 228.49 L 430.35 229.53 L 428.80 230.56 L 427.25 231.60 L 425.70 232.64 L 424.14 233.68 L 422.59 234.72 L 421.03 235.77 L 419.48 236.81 L 417.92 237.86 L 416.37 238.91 L 414.81 239.97 L 413.25 241.02 L 411.69 242.07 L 410.13 243.13 L 408.58 244.18 L 407.02 245.24 L 405.46 246.30 L 403.90 247.35 L 402.34 248.41 L 400.78 249.47 L 399.22 250.53 L 397.66 251.59 L 396.10 252.65 L 394.54 253.70 L 392.98 254.76 L 391.42 255.82 L 389.87 256.87 L 388.31 257.93 L 386.75 258.98 L 385.19 260.03 L 383.63 261.09 L 382.08 262.14 L 380.52 263.19 L 378.97 264.23 L 377.41 265.28 L 375.86 266.32 L 374.30 267.36 L 372.75 268.40 L 371.20 269.44 L 369.65 270.47 L 368.10 271.51 L 366.55 272.54 L 365.00 273.56 L 363.46 274.59 L 361.91 275.61 L 360.37 276.62 L 358.82 277.64 L 357.28 278.65 L 355.74 279.66 L 354.20 280.66 L 352.66 281.66 L 351.13 282.65 L 349.59 283.65 L 348.06 284.63 L 346.53 285.62 L 345.00 286.60 L 343.47 287.57 L 341.94 288.54 L 340.42 289.50 L 338.90 290.46" fill="none" stroke="#0A0E17" stroke-width="17.0" stroke-linecap="round" stroke-linejoin="round" opacity="0.94"/>
<path d="M 461.10 209.54 L 459.58 210.50 L 458.06 211.46 L 456.53 212.43 L 455.00 213.40 L 453.47 214.38 L 451.94 215.37 L 450.41 216.35 L 448.87 217.35 L 447.34 218.34 L 445.80 219.34 L 444.26 220.34 L 442.72 221.35 L 441.18 222.36 L 439.63 223.38 L 438.09 224.39 L 436.54 225.41 L 435.00 226.44 L 433.45 227.46 L 431.90 228.49 L 430.35 229.53 L 428.80 230.56 L 427.25 231.60 L 425.70 232.64 L 424.14 233.68 L 422.59 234.72 L 421.03 235.77 L 419.48 236.81 L 417.92 237.86 L 416.37 238.91 L 414.81 239.97 L 413.25 241.02 L 411.69 242.07 L 410.13 243.13 L 408.58 244.18 L 407.02 245.24 L 405.46 246.30 L 403.90 247.35 L 402.34 248.41 L 400.78 249.47 L 399.22 250.53 L 397.66 251.59 L 396.10 252.65 L 394.54 253.70 L 392.98 254.76 L 391.42 255.82 L 389.87 256.87 L 388.31 257.93 L 386.75 258.98 L 385.19 260.03 L 383.63 261.09 L 382.08 262.14 L 380.52 263.19 L 378.97 264.23 L 377.41 265.28 L 375.86 266.32 L 374.30 267.36 L 372.75 268.40 L 371.20 269.44 L 369.65 270.47 L 368.10 271.51 L 366.55 272.54 L 365.00 273.56 L 363.46 274.59 L 361.91 275.61 L 360.37 276.62 L 358.82 277.64 L 357.28 278.65 L 355.74 279.66 L 354.20 280.66 L 352.66 281.66 L 351.13 282.65 L 349.59 283.65 L 348.06 284.63 L 346.53 285.62 L 345.00 286.60 L 343.47 287.57 L 341.94 288.54 L 340.42 289.50 L 338.90 290.46" fill="none" stroke="url(#iconmark-braid-grad)" stroke-width="10.0" stroke-linecap="round" stroke-linejoin="round" opacity="1"/>
<path d="M 452.05 195.15 L 450.50 196.12 L 448.95 197.10 L 447.40 198.09 L 445.85 199.08 L 444.30 200.07 L 442.75 201.07 L 441.19 202.07 L 439.64 203.07 L 438.08 204.08 L 436.52 205.09 L 434.97 206.11 L 433.41 207.13 L 431.85 208.15 L 430.29 209.18 L 428.73 210.20 L 427.17 211.23 L 425.61 212.27 L 424.05 213.30 L 422.48 214.34 L 420.92 215.38 L 419.36 216.42 L 417.80 217.47 L 416.23 218.51 L 414.67 219.56 L 413.11 220.61 L 411.54 221.66 L 409.98 222.72 L 408.42 223.77 L 406.85 224.82 L 405.29 225.88 L 403.73 226.94 L 402.16 227.99 L 400.60 229.05 L 399.04 230.11 L 397.48 231.17 L 395.92 232.23 L 394.35 233.29 L 392.79 234.35 L 391.23 235.40 L 389.67 236.46 L 388.12 237.52 L 386.56 238.58 L 385.00 239.63 L 383.44 240.69 L 381.89 241.74 L 380.33 242.80 L 378.78 243.85 L 377.23 244.90 L 375.67 245.95 L 374.12 247.00 L 372.57 248.04 L 371.02 249.09 L 369.48 250.13 L 367.93 251.17 L 366.39 252.20 L 364.84 253.24 L 363.30 254.27 L 361.76 255.30 L 360.22 256.33 L 358.68 257.35 L 357.15 258.37 L 355.61 259.39 L 354.08 260.40 L 352.55 261.41 L 351.02 262.42 L 349.50 263.43 L 347.97 264.42 L 346.45 265.42 L 344.93 266.41 L 343.41 267.40 L 341.89 268.38 L 340.38 269.36 L 338.86 270.33 L 337.36 271.30 L 335.85 272.27 L 334.34 273.23 L 332.84 274.18 L 331.34 275.13 L 329.84 276.07" fill="none" stroke="#0A0E17" stroke-width="17.0" stroke-linecap="round" stroke-linejoin="round" opacity="0.94"/>
<path d="M 452.05 195.15 L 450.50 196.12 L 448.95 197.10 L 447.40 198.09 L 445.85 199.08 L 444.30 200.07 L 442.75 201.07 L 441.19 202.07 L 439.64 203.07 L 438.08 204.08 L 436.52 205.09 L 434.97 206.11 L 433.41 207.13 L 431.85 208.15 L 430.29 209.18 L 428.73 210.20 L 427.17 211.23 L 425.61 212.27 L 424.05 213.30 L 422.48 214.34 L 420.92 215.38 L 419.36 216.42 L 417.80 217.47 L 416.23 218.51 L 414.67 219.56 L 413.11 220.61 L 411.54 221.66 L 409.98 222.72 L 408.42 223.77 L 406.85 224.82 L 405.29 225.88 L 403.73 226.94 L 402.16 227.99 L 400.60 229.05 L 399.04 230.11 L 397.48 231.17 L 395.92 232.23 L 394.35 233.29 L 392.79 234.35 L 391.23 235.40 L 389.67 236.46 L 388.12 237.52 L 386.56 238.58 L 385.00 239.63 L 383.44 240.69 L 381.89 241.74 L 380.33 242.80 L 378.78 243.85 L 377.23 244.90 L 375.67 245.95 L 374.12 247.00 L 372.57 248.04 L 371.02 249.09 L 369.48 250.13 L 367.93 251.17 L 366.39 252.20 L 364.84 253.24 L 363.30 254.27 L 361.76 255.30 L 360.22 256.33 L 358.68 257.35 L 357.15 258.37 L 355.61 259.39 L 354.08 260.40 L 352.55 261.41 L 351.02 262.42 L 349.50 263.43 L 347.97 264.42 L 346.45 265.42 L 344.93 266.41 L 343.41 267.40 L 341.89 268.38 L 340.38 269.36 L 338.86 270.33 L 337.36 271.30 L 335.85 272.27 L 334.34 273.23 L 332.84 274.18 L 331.34 275.13 L 329.84 276.07" fill="none" stroke="url(#iconmark-braid-grad)" stroke-width="10.0" stroke-linecap="round" stroke-linejoin="round" opacity="1"/>
<path d="M 443.00 180.76 L 441.43 181.75 L 439.85 182.75 L 438.28 183.75 L 436.70 184.75 L 435.13 185.76 L 433.55 186.77 L 431.98 187.78 L 430.40 188.80 L 428.82 189.82 L 427.25 190.85 L 425.67 191.87 L 424.10 192.91 L 422.52 193.94 L 420.94 194.97 L 419.37 196.01 L 417.79 197.05 L 416.22 198.10 L 414.64 199.14 L 413.07 200.19 L 411.49 201.24 L 409.92 202.29 L 408.34 203.34 L 406.77 204.39 L 405.20 205.45 L 403.63 206.50 L 402.05 207.56 L 400.48 208.62 L 398.91 209.67 L 397.34 210.73 L 395.77 211.79 L 394.20 212.85 L 392.64 213.92 L 391.07 214.98 L 389.50 216.04 L 387.94 217.10 L 386.37 218.16 L 384.81 219.22 L 383.25 220.28 L 381.69 221.34 L 380.13 222.39 L 378.57 223.45 L 377.01 224.51 L 375.46 225.56 L 373.90 226.62 L 372.35 227.67 L 370.80 228.72 L 369.25 229.77 L 367.70 230.82 L 366.16 231.86 L 364.61 232.91 L 363.07 233.95 L 361.53 234.99 L 359.99 236.02 L 358.45 237.06 L 356.91 238.09 L 355.38 239.12 L 353.85 240.14 L 352.32 241.16 L 350.79 242.18 L 349.27 243.20 L 347.74 244.21 L 346.22 245.22 L 344.71 246.22 L 343.19 247.22 L 341.68 248.22 L 340.17 249.21 L 338.66 250.20 L 337.15 251.19 L 335.65 252.17 L 334.15 253.14 L 332.66 254.11 L 331.16 255.08 L 329.67 256.04 L 328.18 256.99 L 326.70 257.94 L 325.22 258.89 L 323.74 259.82 L 322.26 260.76 L 320.79 261.69" fill="none" stroke="#0A0E17" stroke-width="17.0" stroke-linecap="round" stroke-linejoin="round" opacity="0.94"/>
<path d="M 443.00 180.76 L 441.43 181.75 L 439.85 182.75 L 438.28 183.75 L 436.70 184.75 L 435.13 185.76 L 433.55 186.77 L 431.98 187.78 L 430.40 188.80 L 428.82 189.82 L 427.25 190.85 L 425.67 191.87 L 424.10 192.91 L 422.52 193.94 L 420.94 194.97 L 419.37 196.01 L 417.79 197.05 L 416.22 198.10 L 414.64 199.14 L 413.07 200.19 L 411.49 201.24 L 409.92 202.29 L 408.34 203.34 L 406.77 204.39 L 405.20 205.45 L 403.63 206.50 L 402.05 207.56 L 400.48 208.62 L 398.91 209.67 L 397.34 210.73 L 395.77 211.79 L 394.20 212.85 L 392.64 213.92 L 391.07 214.98 L 389.50 216.04 L 387.94 217.10 L 386.37 218.16 L 384.81 219.22 L 383.25 220.28 L 381.69 221.34 L 380.13 222.39 L 378.57 223.45 L 377.01 224.51 L 375.46 225.56 L 373.90 226.62 L 372.35 227.67 L 370.80 228.72 L 369.25 229.77 L 367.70 230.82 L 366.16 231.86 L 364.61 232.91 L 363.07 233.95 L 361.53 234.99 L 359.99 236.02 L 358.45 237.06 L 356.91 238.09 L 355.38 239.12 L 353.85 240.14 L 352.32 241.16 L 350.79 242.18 L 349.27 243.20 L 347.74 244.21 L 346.22 245.22 L 344.71 246.22 L 343.19 247.22 L 341.68 248.22 L 340.17 249.21 L 338.66 250.20 L 337.15 251.19 L 335.65 252.17 L 334.15 253.14 L 332.66 254.11 L 331.16 255.08 L 329.67 256.04 L 328.18 256.99 L 326.70 257.94 L 325.22 258.89 L 323.74 259.82 L 322.26 260.76 L 320.79 261.69" fill="none" stroke="url(#iconmark-braid-grad)" stroke-width="10.0" stroke-linecap="round" stroke-linejoin="round" opacity="1"/>
</g>
  </g>
</svg>
