<svg xmlns="http://www.w3.org/2000/svg" width="1600" height="1000" viewBox="0 0 800 500" role="img" aria-labelledby="title desc">
  <title id="title">Digital Fabric monochrome symbol</title>
  <desc id="desc">Single-color scalable vector mark.</desc>
  
    <defs>
      <linearGradient id="symmono-braid-grad" x1="70" y1="90" x2="730" y2="410" gradientUnits="userSpaceOnUse">
        <stop offset="0%" stop-color="#8A2BE2"/>
        <stop offset="48%" stop-color="#4B5BFF"/>
        <stop offset="100%" stop-color="#00D1C1"/>
      </linearGradient>
      <linearGradient id="symmono-braid-grad-rev" x1="730" y1="90" x2="70" y2="410" gradientUnits="userSpaceOnUse">
        <stop offset="0%" stop-color="#00D1C1"/>
        <stop offset="52%" stop-color="#4B5BFF"/>
        <stop offset="100%" stop-color="#8A2BE2"/>
      </linearGradient>
      <radialGradient id="symmono-glow" cx="50%" cy="50%" r="70%">
        <stop offset="0%" stop-color="#00D1C1" stop-opacity="0.55"/>
        <stop offset="55%" stop-color="#4B5BFF" stop-opacity="0.18"/>
        <stop offset="100%" stop-color="#8A2BE2" stop-opacity="0"/>
      </radialGradient>
      <filter id="symmono-soft-glow" x="-40%" y="-40%" width="180%" height="180%">
        <feGaussianBlur stdDeviation="7" result="blur"/>
        <feColorMatrix in="blur" type="matrix" values="0 0 0 0 0.15  0 0 0 0 0.84  0 0 0 0 0.95  0 0 0 0.75 0" result="coloredBlur"/>
        <feMerge>
          <feMergeNode in="coloredBlur"/>
          <feMergeNode in="SourceGraphic"/>
        </feMerge>
      </filter>
    </defs>
    
  <rect width="800" height="500" fill="none"/>
  <g filter="url(#symmono-soft-glow)">
<ellipse cx="400" cy="250" rx="330" ry="205" fill="url(#symmono-glow)" opacity="0.18"/>
<path d="M 421.34 218.56 L 426.52 222.07 L 431.68 225.57 L 436.83 229.05 L 441.96 232.51 L 447.06 235.94 L 452.14 239.33 L 457.19 242.68 L 462.21 245.99 L 467.20 249.25 L 472.16 252.46 L 477.09 255.61 L 481.97 258.70 L 486.82 261.72 L 491.62 264.67 L 496.38 267.55 L 501.09 270.35 L 505.75 273.06 L 510.36 275.69 L 514.91 278.23 L 519.41 280.67 L 523.84 283.02 L 528.21 285.27 L 532.51 287.42 L 536.74 289.45 L 540.90 291.39 L 544.98 293.21 L 548.98 294.92 L 552.90 296.51 L 556.73 297.99 L 560.46 299.35 L 564.11 300.60 L 567.66 301.73 L 571.10 302.75 L 574.44 303.65 L 577.68 304.44 L 580.80 305.11 L 583.81 305.68 L 586.71 306.14 L 589.49 306.50 L 592.15 306.76 L 594.69 306.92 L 597.11 306.99 L 599.42 306.98 L 601.60 306.89 L 603.67 306.73 L 605.64 306.50 L 607.49 306.21 L 609.25 305.85 L 610.91 305.45 L 612.48 304.99 L 613.98 304.48 L 615.40 303.93 L 616.76 303.32 L 618.07 302.67 L 619.33 301.98 L 620.55 301.22 L 621.74 300.42 L 622.90 299.55 L 624.04 298.62 L 625.15 297.63 L 626.25 296.56 L 627.33 295.42 L 628.39 294.20 L 629.43 292.90 L 630.45 291.52 L 631.45 290.05 L 632.42 288.50 L 633.37 286.87 L 634.28 285.15 L 635.16 283.35 L 635.99 281.47 L 636.79 279.52 L 637.53 277.49 L 638.23 275.40 L 638.88 273.24 L 639.47 271.02 L 640.00 268.75 L 640.48 266.44 L 640.89 264.08 L 641.24 261.68 L 641.53 259.26 L 641.74 256.81 L 641.90 254.34 L 641.98 251.86 L 642.00 249.38 L 641.95 246.90 L 641.83 244.42 L 641.64 241.96 L 641.39 239.53 L 641.07 237.12 L 640.69 234.74 L 640.25 232.40 L 639.74 230.10 L 639.18 227.86 L 638.56 225.67 L 637.89 223.55 L 637.17 221.49 L 636.39 219.50 L 635.58 217.58 L 634.72 215.74 L 633.83 213.98 L 632.90 212.31 L 631.94 210.71 L 630.96 209.20 L 629.94 207.78 L 628.91 206.44 L 627.86 205.18 L 626.79 204.00 L 625.70 202.89 L 624.60 201.86 L 623.47 200.90 L 622.32 200.01 L 621.15 199.17 L 619.95 198.39 L 618.71 197.67 L 617.42 196.99 L 616.09 196.37 L 614.70 195.79 L 613.24 195.26 L 611.70 194.78 L 610.09 194.34 L 608.38 193.96 L 606.58 193.64 L 604.67 193.38 L 602.65 193.18 L 600.52 193.05 L 598.28 193.00 L 595.92 193.03 L 593.44 193.15 L 590.83 193.36 L 588.11 193.67 L 585.28 194.08 L 582.32 194.59 L 579.25 195.21 L 576.07 195.94 L 572.79 196.79 L 569.39 197.74 L 565.89 198.82 L 562.30 200.01 L 558.61 201.31 L 554.82 202.74 L 550.95 204.27 L 546.99 205.93 L 542.95 207.69 L 538.83 209.57 L 534.64 211.55 L 530.37 213.64 L 526.03 215.84 L 521.63 218.14 L 517.17 220.54 L 512.65 223.03 L 508.06 225.61 L 503.43 228.28 L 498.74 231.04 L 494.01 233.88 L 489.23 236.79 L 484.40 239.78 L 479.53 242.84 L 474.63 245.96 L 469.69 249.14 L 464.71 252.37 L 459.70 255.66 L 454.67 258.99 L 449.60 262.36 L 444.51 265.77 L 439.40 269.22 L 434.26 272.68 L 429.10 276.18 L 423.93 279.68 L 418.74 283.21 L 413.54 286.74 L 408.32 290.27 L 403.09 293.80 L 397.86 297.32 L 392.61 300.83 L 387.36 304.33 L 382.11 307.80 L 376.85 311.25 L 371.59 314.67 L 366.33 318.06 L 361.07 321.40 L 355.82 324.70 L 350.56 327.96 L 345.31 331.16 L 340.07 334.30 L 334.83 337.38 L 329.59 340.40 L 324.37 343.35 L 319.15 346.22 L 313.94 349.02 L 308.74 351.74 L 303.55 354.37 L 298.36 356.91 L 293.19 359.36 L 288.02 361.71 L 282.86 363.97 L 277.72 366.11 L 272.58 368.15 L 267.45 370.08 L 262.32 371.89 L 257.21 373.59 L 252.10 375.16 L 246.99 376.60 L 241.90 377.90 L 236.81 379.07 L 231.72 380.10 L 226.64 380.98 L 221.57 381.71 L 216.51 382.28 L 211.45 382.69 L 206.41 382.93 L 201.38 383.00 L 196.37 382.89 L 191.39 382.59 L 186.43 382.10 L 181.51 381.42 L 176.63 380.54 L 171.80 379.47 L 167.03 378.19 L 162.33 376.71 L 157.71 375.02 L 153.19 373.14 L 148.76 371.07 L 144.44 368.80 L 140.24 366.35 L 136.18 363.72 L 132.24 360.92 L 128.45 357.96 L 124.81 354.85 L 121.32 351.60 L 117.99 348.22 L 114.81 344.71 L 111.79 341.10 L 108.93 337.38 L 106.22 333.57 L 103.67 329.67 L 101.28 325.69 L 99.04 321.64 L 96.94 317.52 L 95.00 313.34 L 93.20 309.11 L 91.54 304.83 L 90.02 300.51 L 88.64 296.14 L 87.39 291.74 L 86.28 287.31 L 85.30 282.85 L 84.45 278.36 L 83.72 273.86 L 83.13 269.34 L 82.66 264.80 L 82.32 260.25 L 82.10 255.70 L 82.00 251.14 L 82.04 246.58 L 82.19 242.02 L 82.47 237.47 L 82.88 232.93 L 83.41 228.40 L 84.07 223.89 L 84.85 219.39 L 85.77 214.92 L 86.82 210.47 L 88.00 206.05 L 89.31 201.67 L 90.76 197.33 L 92.35 193.02 L 94.08 188.77 L 95.95 184.56 L 97.97 180.41 L 100.14 176.33 L 102.46 172.31 L 104.93 168.37 L 107.55 164.52 L 110.34 160.75 L 113.28 157.08 L 116.38 153.52 L 119.63 150.08 L 123.05 146.76 L 126.61 143.58 L 130.33 140.54 L 134.19 137.66 L 138.19 134.95 L 142.33 132.41 L 146.59 130.04 L 150.96 127.87 L 155.44 125.89 L 160.01 124.11 L 164.67 122.53 L 169.41 121.15 L 174.21 119.97 L 179.06 118.99 L 183.96 118.21 L 188.90 117.63 L 193.88 117.24 L 198.88 117.04 L 203.89 117.01 L 208.93 117.17 L 213.98 117.49 L 219.04 117.98 L 224.11 118.63 L 229.18 119.44 L 234.26 120.39 L 239.35 121.49 L 244.44 122.73 L 249.54 124.11 L 254.65 125.61 L 259.76 127.24 L 264.88 129.00 L 270.01 130.87 L 275.15 132.85 L 280.29 134.95 L 285.44 137.15 L 290.60 139.45 L 295.77 141.85 L 300.95 144.35 L 306.14 146.94 L 311.34 149.61 L 316.54 152.37 L 321.76 155.20 L 326.98 158.12 L 332.21 161.10 L 337.45 164.15 L 342.69 167.26 L 347.94 170.44 L 353.19 173.66 L 358.45 176.94 L 363.70 180.26 L 368.96 183.63 L 374.22 187.03 L 379.48 190.47 L 384.74 193.93 L 389.99 197.42 L 395.24 200.92 L 400.48 204.44 L 405.71 207.97 L 410.93 211.50 L 416.14 215.03 L 421.34 218.56" fill="none" stroke="#0A0E17" stroke-width="13.5" stroke-linecap="round" stroke-linejoin="round" opacity="0.82"/>
<path d="M 412.91 230.97 L 418.10 234.49 L 423.27 237.99 L 428.43 241.48 L 433.58 244.95 L 438.71 248.40 L 443.82 251.81 L 448.91 255.19 L 453.98 258.53 L 459.03 261.83 L 464.05 265.07 L 469.04 268.27 L 474.00 271.40 L 478.92 274.47 L 483.81 277.48 L 488.67 280.42 L 493.49 283.28 L 498.26 286.06 L 502.99 288.76 L 507.68 291.37 L 512.31 293.89 L 516.90 296.32 L 521.43 298.65 L 525.91 300.88 L 530.32 303.01 L 534.68 305.04 L 538.98 306.95 L 543.20 308.76 L 547.36 310.45 L 551.45 312.03 L 555.46 313.50 L 559.40 314.84 L 563.25 316.07 L 567.03 317.19 L 570.72 318.18 L 574.32 319.06 L 577.83 319.82 L 581.25 320.46 L 584.58 320.99 L 587.81 321.40 L 590.94 321.71 L 593.98 321.90 L 596.91 321.99 L 599.75 321.98 L 602.49 321.87 L 605.14 321.66 L 607.69 321.36 L 610.14 320.97 L 612.51 320.49 L 614.79 319.93 L 616.99 319.29 L 619.11 318.57 L 621.16 317.78 L 623.13 316.90 L 625.05 315.95 L 626.90 314.93 L 628.69 313.82 L 630.44 312.64 L 632.13 311.38 L 633.78 310.03 L 635.38 308.61 L 636.93 307.09 L 638.44 305.50 L 639.90 303.82 L 641.32 302.05 L 642.69 300.20 L 644.01 298.26 L 645.28 296.24 L 646.49 294.13 L 647.65 291.94 L 648.75 289.68 L 649.79 287.34 L 650.77 284.94 L 651.69 282.46 L 652.53 279.92 L 653.31 277.33 L 654.02 274.68 L 654.65 271.98 L 655.21 269.23 L 655.70 266.45 L 656.11 263.64 L 656.45 260.80 L 656.70 257.94 L 656.88 255.06 L 656.98 252.17 L 657.00 249.28 L 656.94 246.39 L 656.80 243.50 L 656.58 240.63 L 656.29 237.78 L 655.92 234.95 L 655.47 232.15 L 654.94 229.39 L 654.34 226.67 L 653.67 223.99 L 652.93 221.37 L 652.12 218.80 L 651.24 216.29 L 650.29 213.85 L 649.28 211.48 L 648.21 209.18 L 647.08 206.95 L 645.89 204.81 L 644.65 202.74 L 643.35 200.76 L 642.01 198.87 L 640.62 197.06 L 639.18 195.33 L 637.69 193.69 L 636.16 192.14 L 634.58 190.67 L 632.96 189.29 L 631.29 187.98 L 629.57 186.76 L 627.80 185.62 L 625.98 184.55 L 624.10 183.56 L 622.15 182.65 L 620.14 181.81 L 618.06 181.06 L 615.90 180.38 L 613.66 179.78 L 611.34 179.26 L 608.93 178.82 L 606.43 178.48 L 603.83 178.22 L 601.14 178.06 L 598.35 178.00 L 595.46 178.04 L 592.47 178.18 L 589.39 178.43 L 586.20 178.79 L 582.92 179.26 L 579.55 179.85 L 576.08 180.55 L 572.53 181.37 L 568.88 182.30 L 565.15 183.36 L 561.33 184.53 L 557.44 185.82 L 553.46 187.22 L 549.41 188.74 L 545.29 190.38 L 541.10 192.13 L 536.84 193.99 L 532.51 195.96 L 528.12 198.04 L 523.68 200.22 L 519.17 202.50 L 514.61 204.88 L 510.00 207.36 L 505.34 209.93 L 500.63 212.58 L 495.88 215.32 L 491.08 218.14 L 486.25 221.04 L 481.37 224.01 L 476.46 227.05 L 471.52 230.16 L 466.54 233.32 L 461.54 236.54 L 456.51 239.82 L 451.45 243.13 L 446.37 246.49 L 441.27 249.89 L 436.15 253.32 L 431.01 256.78 L 425.86 260.26 L 420.69 263.76 L 415.51 267.27 L 410.32 270.79 L 405.12 274.32 L 399.92 277.84 L 394.71 281.36 L 389.50 284.87 L 384.28 288.36 L 379.07 291.83 L 373.86 295.28 L 368.65 298.70 L 363.45 302.08 L 358.25 305.42 L 353.06 308.72 L 347.88 311.98 L 342.71 315.18 L 337.55 318.32 L 332.41 321.40 L 327.28 324.42 L 322.16 327.37 L 317.06 330.25 L 311.98 333.05 L 306.92 335.77 L 301.88 338.40 L 296.85 340.95 L 291.85 343.40 L 286.87 345.76 L 281.91 348.02 L 276.97 350.17 L 272.06 352.22 L 267.17 354.16 L 262.30 355.99 L 257.46 357.70 L 252.65 359.30 L 247.86 360.77 L 243.09 362.11 L 238.35 363.33 L 233.64 364.41 L 228.95 365.36 L 224.29 366.17 L 219.66 366.83 L 215.06 367.35 L 210.49 367.72 L 205.95 367.94 L 201.45 368.00 L 196.99 367.90 L 192.56 367.63 L 188.19 367.20 L 183.86 366.61 L 179.59 365.84 L 175.37 364.90 L 171.23 363.79 L 167.15 362.50 L 163.16 361.05 L 159.25 359.42 L 155.43 357.63 L 151.72 355.68 L 148.10 353.57 L 144.60 351.30 L 141.21 348.89 L 137.94 346.34 L 134.80 343.66 L 131.78 340.84 L 128.89 337.91 L 126.12 334.87 L 123.49 331.72 L 120.99 328.47 L 118.62 325.13 L 116.38 321.70 L 114.27 318.19 L 112.29 314.61 L 110.43 310.95 L 108.70 307.24 L 107.09 303.46 L 105.61 299.64 L 104.25 295.76 L 103.01 291.84 L 101.88 287.87 L 100.88 283.87 L 99.99 279.84 L 99.22 275.78 L 98.57 271.69 L 98.03 267.59 L 97.60 263.46 L 97.29 259.33 L 97.09 255.19 L 97.00 251.04 L 97.03 246.89 L 97.17 242.74 L 97.43 238.60 L 97.80 234.47 L 98.28 230.36 L 98.88 226.26 L 99.59 222.19 L 100.42 218.14 L 101.37 214.12 L 102.43 210.14 L 103.61 206.20 L 104.91 202.30 L 106.34 198.44 L 107.88 194.64 L 109.55 190.90 L 111.34 187.21 L 113.26 183.59 L 115.31 180.05 L 117.48 176.58 L 119.79 173.19 L 122.23 169.90 L 124.79 166.70 L 127.49 163.60 L 130.32 160.61 L 133.27 157.73 L 136.35 154.98 L 139.56 152.37 L 142.89 149.88 L 146.34 147.54 L 149.90 145.36 L 153.56 143.32 L 157.33 141.45 L 161.19 139.74 L 165.15 138.20 L 169.18 136.83 L 173.29 135.64 L 177.47 134.61 L 181.72 133.76 L 186.02 133.07 L 190.37 132.56 L 194.77 132.21 L 199.21 132.03 L 203.70 132.01 L 208.22 132.15 L 212.77 132.44 L 217.35 132.89 L 221.97 133.48 L 226.62 134.22 L 231.29 135.10 L 235.99 136.11 L 240.72 137.26 L 245.47 138.54 L 250.25 139.95 L 255.05 141.48 L 259.88 143.14 L 264.73 144.91 L 269.61 146.79 L 274.51 148.79 L 279.44 150.89 L 284.39 153.10 L 289.36 155.41 L 294.35 157.82 L 299.36 160.32 L 304.39 162.91 L 309.45 165.58 L 314.52 168.34 L 319.61 171.18 L 324.72 174.09 L 329.84 177.08 L 334.98 180.13 L 340.13 183.24 L 345.29 186.42 L 350.47 189.64 L 355.65 192.92 L 360.85 196.24 L 366.05 199.61 L 371.25 203.01 L 376.46 206.44 L 381.68 209.90 L 386.89 213.38 L 392.10 216.88 L 397.31 220.40 L 402.52 223.92 L 407.72 227.44 L 412.91 230.97" fill="none" stroke="#0A0E17" stroke-width="13.5" stroke-linecap="round" stroke-linejoin="round" opacity="0.82"/>
<path d="M 404.49 243.38 L 409.68 246.90 L 414.86 250.41 L 420.04 253.91 L 425.21 257.40 L 430.36 260.86 L 435.51 264.30 L 440.64 267.70 L 445.75 271.07 L 450.85 274.40 L 455.93 277.69 L 460.99 280.92 L 466.02 284.10 L 471.03 287.23 L 476.01 290.29 L 480.96 293.28 L 485.88 296.20 L 490.77 299.05 L 495.62 301.82 L 500.44 304.51 L 505.22 307.11 L 509.95 309.62 L 514.65 312.03 L 519.30 314.35 L 523.91 316.57 L 528.46 318.69 L 532.97 320.70 L 537.43 322.60 L 541.83 324.39 L 546.17 326.07 L 550.46 327.64 L 554.69 329.08 L 558.85 330.41 L 562.95 331.62 L 566.99 332.71 L 570.96 333.68 L 574.86 334.52 L 578.68 335.24 L 582.44 335.83 L 586.12 336.31 L 589.73 336.66 L 593.26 336.89 L 596.71 336.99 L 600.09 336.98 L 603.39 336.84 L 606.60 336.59 L 609.74 336.22 L 612.80 335.73 L 615.78 335.13 L 618.68 334.42 L 621.50 333.60 L 624.24 332.67 L 626.91 331.63 L 629.50 330.48 L 632.02 329.23 L 634.47 327.88 L 636.84 326.42 L 639.14 324.86 L 641.36 323.20 L 643.52 321.44 L 645.60 319.58 L 647.61 317.63 L 649.55 315.58 L 651.41 313.43 L 653.21 311.20 L 654.92 308.87 L 656.56 306.46 L 658.13 303.97 L 659.62 301.39 L 661.02 298.74 L 662.35 296.02 L 663.60 293.22 L 664.76 290.36 L 665.84 287.43 L 666.83 284.45 L 667.74 281.41 L 668.57 278.33 L 669.30 275.20 L 669.95 272.03 L 670.51 268.83 L 670.98 265.60 L 671.37 262.34 L 671.66 259.07 L 671.86 255.78 L 671.97 252.48 L 672.00 249.17 L 671.93 245.87 L 671.77 242.58 L 671.52 239.29 L 671.19 236.03 L 670.76 232.78 L 670.24 229.57 L 669.64 226.38 L 668.95 223.23 L 668.17 220.12 L 667.30 217.06 L 666.35 214.05 L 665.31 211.10 L 664.19 208.20 L 662.98 205.37 L 661.70 202.61 L 660.33 199.92 L 658.88 197.31 L 657.36 194.77 L 655.75 192.32 L 654.07 189.95 L 652.32 187.67 L 650.49 185.48 L 648.59 183.39 L 646.61 181.38 L 644.57 179.48 L 642.45 177.67 L 640.26 175.96 L 638.00 174.35 L 635.66 172.84 L 633.25 171.43 L 630.77 170.13 L 628.22 168.93 L 625.59 167.84 L 622.88 166.85 L 620.10 165.97 L 617.24 165.21 L 614.30 164.55 L 611.28 164.01 L 608.18 163.58 L 605.00 163.27 L 601.75 163.08 L 598.41 163.00 L 595.00 163.05 L 591.51 163.21 L 587.94 163.50 L 584.29 163.91 L 580.57 164.45 L 576.78 165.11 L 572.91 165.89 L 568.98 166.79 L 564.98 167.82 L 560.91 168.97 L 556.78 170.24 L 552.58 171.63 L 548.32 173.13 L 544.01 174.75 L 539.63 176.49 L 535.21 178.34 L 530.72 180.29 L 526.19 182.36 L 521.61 184.53 L 516.98 186.80 L 512.31 189.16 L 507.59 191.63 L 502.83 194.18 L 498.03 196.83 L 493.20 199.55 L 488.33 202.36 L 483.42 205.25 L 478.49 208.21 L 473.52 211.23 L 468.53 214.33 L 463.50 217.48 L 458.46 220.69 L 453.39 223.95 L 448.31 227.26 L 443.20 230.61 L 438.08 234.00 L 432.94 237.42 L 427.79 240.87 L 422.62 244.34 L 417.45 247.84 L 412.27 251.34 L 407.09 254.86 L 401.90 258.38 L 396.70 261.90 L 391.51 265.42 L 386.32 268.92 L 381.13 272.42 L 375.95 275.89 L 370.77 279.33 L 365.60 282.75 L 360.45 286.14 L 355.30 289.48 L 350.16 292.79 L 345.04 296.04 L 339.94 299.25 L 334.86 302.40 L 329.79 305.49 L 324.75 308.51 L 319.73 311.46 L 314.73 314.34 L 309.76 317.15 L 304.81 319.87 L 299.90 322.51 L 295.01 325.06 L 290.16 327.52 L 285.34 329.89 L 280.55 332.15 L 275.80 334.32 L 271.08 336.38 L 266.40 338.33 L 261.76 340.17 L 257.16 341.90 L 252.60 343.51 L 248.09 345.01 L 243.61 346.38 L 239.19 347.63 L 234.80 348.75 L 230.47 349.75 L 226.18 350.62 L 221.94 351.35 L 217.75 351.96 L 213.61 352.42 L 209.52 352.75 L 205.49 352.95 L 201.52 353.00 L 197.60 352.91 L 193.74 352.68 L 189.94 352.31 L 186.21 351.79 L 182.55 351.13 L 178.95 350.33 L 175.43 349.39 L 171.98 348.30 L 168.60 347.07 L 165.31 345.70 L 162.11 344.20 L 158.99 342.56 L 155.96 340.79 L 153.02 338.89 L 150.18 336.87 L 147.43 334.72 L 144.78 332.46 L 142.23 330.09 L 139.78 327.61 L 137.44 325.02 L 135.20 322.33 L 133.06 319.55 L 131.02 316.68 L 129.09 313.73 L 127.26 310.69 L 125.54 307.58 L 123.92 304.39 L 122.40 301.14 L 120.99 297.82 L 119.68 294.44 L 118.48 291.01 L 117.37 287.53 L 116.38 284.00 L 115.48 280.44 L 114.69 276.83 L 114.00 273.19 L 113.41 269.53 L 112.92 265.84 L 112.54 262.13 L 112.26 258.41 L 112.08 254.67 L 112.00 250.94 L 112.03 247.20 L 112.16 243.46 L 112.39 239.73 L 112.72 236.01 L 113.15 232.32 L 113.69 228.64 L 114.33 224.99 L 115.07 221.36 L 115.91 217.78 L 116.86 214.23 L 117.91 210.72 L 119.07 207.27 L 120.32 203.86 L 121.68 200.52 L 123.15 197.23 L 124.71 194.01 L 126.39 190.86 L 128.16 187.78 L 130.04 184.78 L 132.03 181.87 L 134.11 179.04 L 136.30 176.31 L 138.60 173.67 L 141.00 171.14 L 143.49 168.71 L 146.09 166.39 L 148.79 164.19 L 151.59 162.10 L 154.48 160.14 L 157.46 158.31 L 160.54 156.60 L 163.70 155.03 L 166.95 153.60 L 170.28 152.30 L 173.69 151.14 L 177.18 150.12 L 180.74 149.25 L 184.37 148.52 L 188.07 147.93 L 191.83 147.49 L 195.66 147.19 L 199.55 147.03 L 203.50 147.01 L 207.50 147.13 L 211.56 147.39 L 215.67 147.79 L 219.84 148.33 L 224.05 149.00 L 228.32 149.80 L 232.63 150.73 L 236.99 151.79 L 241.39 152.98 L 245.85 154.29 L 250.34 155.73 L 254.88 157.28 L 259.46 158.95 L 264.08 160.74 L 268.74 162.63 L 273.43 164.64 L 278.17 166.75 L 282.94 168.97 L 287.74 171.28 L 292.58 173.70 L 297.45 176.20 L 302.35 178.80 L 307.28 181.48 L 312.24 184.24 L 317.22 187.09 L 322.23 190.01 L 327.27 193.00 L 332.32 196.05 L 337.40 199.17 L 342.49 202.35 L 347.60 205.58 L 352.73 208.86 L 357.87 212.18 L 363.02 215.55 L 368.19 218.95 L 373.36 222.39 L 378.54 225.85 L 383.73 229.33 L 388.92 232.83 L 394.11 236.34 L 399.30 239.86 L 404.49 243.38" fill="none" stroke="#0A0E17" stroke-width="13.5" stroke-linecap="round" stroke-linejoin="round" opacity="0.82"/>
<path d="M 395.51 256.62 L 400.70 260.14 L 405.89 263.66 L 411.08 267.17 L 416.27 270.67 L 421.46 274.15 L 426.64 277.61 L 431.81 281.05 L 436.98 284.45 L 442.13 287.82 L 447.27 291.14 L 452.40 294.42 L 457.51 297.65 L 462.60 300.83 L 467.68 303.95 L 472.73 307.00 L 477.77 309.99 L 482.78 312.91 L 487.76 315.76 L 492.72 318.52 L 497.65 321.20 L 502.55 323.80 L 507.42 326.30 L 512.26 328.72 L 517.06 331.03 L 521.83 333.25 L 526.57 335.36 L 531.26 337.37 L 535.92 339.26 L 540.54 341.05 L 545.12 342.72 L 549.66 344.27 L 554.15 345.71 L 558.61 347.02 L 563.01 348.21 L 567.37 349.27 L 571.68 350.20 L 575.95 351.00 L 580.16 351.67 L 584.33 352.21 L 588.44 352.61 L 592.50 352.87 L 596.50 352.99 L 600.45 352.97 L 604.34 352.81 L 608.17 352.51 L 611.93 352.07 L 615.63 351.48 L 619.26 350.75 L 622.82 349.88 L 626.31 348.86 L 629.72 347.70 L 633.05 346.40 L 636.30 344.97 L 639.46 343.40 L 642.54 341.69 L 645.52 339.86 L 648.41 337.90 L 651.21 335.81 L 653.91 333.61 L 656.51 331.29 L 659.00 328.86 L 661.40 326.33 L 663.70 323.69 L 665.89 320.96 L 667.97 318.13 L 669.96 315.22 L 671.84 312.22 L 673.61 309.14 L 675.29 305.99 L 676.85 302.77 L 678.32 299.48 L 679.68 296.14 L 680.93 292.73 L 682.09 289.28 L 683.14 285.77 L 684.09 282.22 L 684.93 278.64 L 685.67 275.01 L 686.31 271.36 L 686.85 267.68 L 687.28 263.99 L 687.61 260.27 L 687.84 256.54 L 687.97 252.80 L 688.00 249.06 L 687.92 245.33 L 687.74 241.59 L 687.46 237.87 L 687.08 234.16 L 686.59 230.47 L 686.00 226.81 L 685.31 223.17 L 684.52 219.56 L 683.62 216.00 L 682.63 212.47 L 681.52 208.99 L 680.32 205.56 L 679.01 202.18 L 677.60 198.86 L 676.08 195.61 L 674.46 192.42 L 672.74 189.31 L 670.91 186.27 L 668.98 183.32 L 666.94 180.45 L 664.80 177.67 L 662.56 174.98 L 660.22 172.39 L 657.77 169.91 L 655.22 167.54 L 652.57 165.28 L 649.82 163.13 L 646.98 161.11 L 644.04 159.21 L 641.01 157.44 L 637.89 155.80 L 634.69 154.30 L 631.40 152.93 L 628.02 151.70 L 624.57 150.61 L 621.05 149.67 L 617.45 148.87 L 613.79 148.21 L 610.06 147.69 L 606.26 147.32 L 602.40 147.09 L 598.48 147.00 L 594.51 147.05 L 590.48 147.25 L 586.39 147.58 L 582.25 148.04 L 578.06 148.65 L 573.82 149.38 L 569.53 150.25 L 565.20 151.25 L 560.81 152.37 L 556.39 153.62 L 551.91 154.99 L 547.40 156.49 L 542.84 158.10 L 538.24 159.83 L 533.60 161.67 L 528.92 163.62 L 524.20 165.68 L 519.45 167.85 L 514.66 170.11 L 509.84 172.48 L 504.99 174.94 L 500.10 177.49 L 495.19 180.13 L 490.24 182.85 L 485.27 185.66 L 480.27 188.54 L 475.25 191.49 L 470.21 194.51 L 465.14 197.60 L 460.06 200.75 L 454.96 203.96 L 449.84 207.21 L 444.70 210.52 L 439.55 213.86 L 434.40 217.25 L 429.23 220.67 L 424.05 224.11 L 418.87 227.58 L 413.68 231.08 L 408.49 234.58 L 403.30 238.10 L 398.10 241.62 L 392.91 245.14 L 387.73 248.66 L 382.55 252.16 L 377.38 255.66 L 372.21 259.13 L 367.06 262.58 L 361.92 266.00 L 356.80 269.39 L 351.69 272.74 L 346.61 276.05 L 341.54 279.31 L 336.50 282.52 L 331.47 285.67 L 326.48 288.77 L 321.51 291.79 L 316.58 294.75 L 311.67 297.64 L 306.80 300.45 L 301.97 303.17 L 297.17 305.82 L 292.41 308.37 L 287.69 310.84 L 283.02 313.20 L 278.39 315.47 L 273.81 317.64 L 269.28 319.71 L 264.79 321.66 L 260.37 323.51 L 255.99 325.25 L 251.68 326.87 L 247.42 328.37 L 243.22 329.76 L 239.09 331.03 L 235.02 332.18 L 231.02 333.21 L 227.09 334.11 L 223.22 334.89 L 219.43 335.55 L 215.71 336.09 L 212.06 336.50 L 208.49 336.79 L 205.00 336.95 L 201.59 337.00 L 198.25 336.92 L 195.00 336.73 L 191.82 336.42 L 188.72 335.99 L 185.70 335.45 L 182.76 334.79 L 179.90 334.03 L 177.12 333.15 L 174.41 332.16 L 171.78 331.07 L 169.23 329.87 L 166.75 328.57 L 164.34 327.16 L 162.00 325.65 L 159.74 324.04 L 157.55 322.33 L 155.43 320.52 L 153.39 318.62 L 151.41 316.61 L 149.51 314.52 L 147.68 312.33 L 145.93 310.05 L 144.25 307.68 L 142.64 305.23 L 141.12 302.69 L 139.67 300.08 L 138.30 297.39 L 137.02 294.63 L 135.81 291.80 L 134.69 288.90 L 133.65 285.95 L 132.70 282.94 L 131.83 279.88 L 131.05 276.77 L 130.36 273.62 L 129.76 270.43 L 129.24 267.22 L 128.81 263.97 L 128.48 260.71 L 128.23 257.42 L 128.07 254.13 L 128.00 250.83 L 128.03 247.52 L 128.14 244.22 L 128.34 240.93 L 128.63 237.66 L 129.02 234.40 L 129.49 231.17 L 130.05 227.97 L 130.70 224.80 L 131.43 221.67 L 132.26 218.59 L 133.17 215.55 L 134.16 212.57 L 135.24 209.64 L 136.40 206.78 L 137.65 203.98 L 138.98 201.26 L 140.38 198.61 L 141.87 196.03 L 143.44 193.54 L 145.08 191.13 L 146.79 188.80 L 148.59 186.57 L 150.45 184.42 L 152.39 182.37 L 154.40 180.42 L 156.48 178.56 L 158.64 176.80 L 160.86 175.14 L 163.16 173.58 L 165.53 172.12 L 167.98 170.77 L 170.50 169.52 L 173.09 168.37 L 175.76 167.33 L 178.50 166.40 L 181.32 165.58 L 184.22 164.87 L 187.20 164.27 L 190.26 163.78 L 193.40 163.41 L 196.61 163.16 L 199.91 163.02 L 203.29 163.01 L 206.74 163.11 L 210.27 163.34 L 213.88 163.69 L 217.56 164.17 L 221.32 164.76 L 225.14 165.48 L 229.04 166.32 L 233.01 167.29 L 237.05 168.38 L 241.15 169.59 L 245.31 170.92 L 249.54 172.36 L 253.83 173.93 L 258.17 175.61 L 262.57 177.40 L 267.03 179.30 L 271.54 181.31 L 276.09 183.43 L 280.70 185.65 L 285.35 187.97 L 290.05 190.38 L 294.78 192.89 L 299.56 195.49 L 304.38 198.18 L 309.23 200.95 L 314.12 203.80 L 319.04 206.72 L 323.99 209.71 L 328.97 212.77 L 333.98 215.90 L 339.01 219.08 L 344.07 222.31 L 349.15 225.60 L 354.25 228.93 L 359.36 232.30 L 364.49 235.70 L 369.64 239.14 L 374.79 242.60 L 379.96 246.09 L 385.14 249.59 L 390.32 253.10 L 395.51 256.62" fill="none" stroke="#0A0E17" stroke-width="13.5" stroke-linecap="round" stroke-linejoin="round" opacity="0.82"/>
<path d="M 387.09 269.03 L 392.28 272.56 L 397.48 276.08 L 402.69 279.60 L 407.90 283.12 L 413.11 286.62 L 418.32 290.10 L 423.54 293.56 L 428.75 296.99 L 433.95 300.39 L 439.15 303.76 L 444.35 307.08 L 449.53 310.36 L 454.71 313.58 L 459.87 316.76 L 465.02 319.87 L 470.16 322.92 L 475.28 325.91 L 480.39 328.82 L 485.48 331.66 L 490.55 334.42 L 495.61 337.09 L 500.64 339.68 L 505.65 342.18 L 510.64 344.59 L 515.61 346.90 L 520.56 349.11 L 525.49 351.21 L 530.39 353.21 L 535.27 355.09 L 540.12 356.86 L 544.95 358.52 L 549.75 360.05 L 554.53 361.46 L 559.28 362.74 L 564.01 363.89 L 568.71 364.90 L 573.38 365.78 L 578.03 366.52 L 582.65 367.11 L 587.23 367.56 L 591.78 367.85 L 596.30 367.99 L 600.79 367.97 L 605.23 367.79 L 609.63 367.44 L 613.98 366.93 L 618.28 366.24 L 622.53 365.39 L 626.71 364.36 L 630.82 363.17 L 634.85 361.80 L 638.81 360.26 L 642.67 358.55 L 646.44 356.68 L 650.10 354.64 L 653.66 352.46 L 657.11 350.12 L 660.44 347.63 L 663.65 345.02 L 666.73 342.27 L 669.68 339.39 L 672.51 336.40 L 675.21 333.30 L 677.77 330.10 L 680.21 326.81 L 682.52 323.42 L 684.69 319.95 L 686.74 316.41 L 688.66 312.79 L 690.45 309.10 L 692.12 305.36 L 693.66 301.56 L 695.09 297.70 L 696.39 293.80 L 697.57 289.86 L 698.63 285.88 L 699.58 281.86 L 700.41 277.81 L 701.12 273.74 L 701.72 269.64 L 702.20 265.53 L 702.57 261.40 L 702.83 257.26 L 702.97 253.11 L 703.00 248.96 L 702.91 244.81 L 702.71 240.67 L 702.40 236.54 L 701.97 232.41 L 701.43 228.31 L 700.78 224.22 L 700.01 220.16 L 699.12 216.13 L 698.12 212.13 L 696.99 208.16 L 695.75 204.24 L 694.39 200.36 L 692.91 196.54 L 691.30 192.76 L 689.57 189.05 L 687.71 185.39 L 685.73 181.81 L 683.62 178.30 L 681.38 174.87 L 679.01 171.53 L 676.51 168.28 L 673.88 165.13 L 671.11 162.09 L 668.22 159.16 L 665.20 156.34 L 662.06 153.66 L 658.79 151.11 L 655.40 148.70 L 651.90 146.43 L 648.28 144.32 L 644.57 142.37 L 640.75 140.58 L 636.84 138.95 L 632.85 137.50 L 628.77 136.21 L 624.63 135.10 L 620.41 134.16 L 616.14 133.39 L 611.81 132.80 L 607.44 132.37 L 603.01 132.10 L 598.55 132.00 L 594.05 132.06 L 589.51 132.28 L 584.94 132.65 L 580.34 133.17 L 575.71 133.83 L 571.05 134.64 L 566.36 135.59 L 561.65 136.67 L 556.91 137.89 L 552.14 139.23 L 547.35 140.70 L 542.54 142.30 L 537.70 144.01 L 532.83 145.84 L 527.94 147.78 L 523.03 149.83 L 518.09 151.98 L 513.13 154.24 L 508.15 156.60 L 503.15 159.05 L 498.12 161.60 L 493.08 164.23 L 488.02 166.95 L 482.94 169.75 L 477.84 172.63 L 472.72 175.58 L 467.59 178.60 L 462.45 181.68 L 457.29 184.82 L 452.12 188.02 L 446.94 191.28 L 441.75 194.58 L 436.55 197.92 L 431.35 201.30 L 426.14 204.72 L 420.93 208.17 L 415.72 211.64 L 410.50 215.13 L 405.29 218.64 L 400.08 222.16 L 394.88 225.68 L 389.68 229.21 L 384.49 232.73 L 379.31 236.24 L 374.14 239.74 L 368.99 243.22 L 363.85 246.68 L 358.73 250.11 L 353.63 253.51 L 348.55 256.87 L 343.49 260.18 L 338.46 263.46 L 333.46 266.68 L 328.48 269.84 L 323.54 272.95 L 318.63 275.99 L 313.75 278.96 L 308.92 281.86 L 304.12 284.68 L 299.37 287.42 L 294.66 290.07 L 290.00 292.64 L 285.39 295.12 L 280.83 297.50 L 276.32 299.78 L 271.88 301.96 L 267.49 304.04 L 263.16 306.01 L 258.90 307.87 L 254.71 309.62 L 250.59 311.26 L 246.54 312.78 L 242.56 314.18 L 238.67 315.47 L 234.85 316.64 L 231.12 317.70 L 227.47 318.63 L 223.92 319.45 L 220.45 320.15 L 217.08 320.74 L 213.80 321.21 L 210.61 321.57 L 207.53 321.82 L 204.54 321.96 L 201.65 322.00 L 198.86 321.94 L 196.17 321.78 L 193.57 321.52 L 191.07 321.18 L 188.66 320.74 L 186.34 320.22 L 184.10 319.62 L 181.94 318.94 L 179.86 318.19 L 177.85 317.35 L 175.90 316.44 L 174.02 315.45 L 172.20 314.38 L 170.43 313.24 L 168.71 312.02 L 167.04 310.71 L 165.42 309.33 L 163.84 307.86 L 162.31 306.31 L 160.82 304.67 L 159.38 302.94 L 157.99 301.13 L 156.65 299.24 L 155.35 297.26 L 154.11 295.19 L 152.92 293.05 L 151.79 290.82 L 150.72 288.52 L 149.71 286.15 L 148.76 283.71 L 147.88 281.20 L 147.07 278.63 L 146.33 276.01 L 145.66 273.33 L 145.06 270.61 L 144.53 267.85 L 144.08 265.05 L 143.71 262.22 L 143.42 259.37 L 143.20 256.50 L 143.06 253.61 L 143.00 250.72 L 143.02 247.83 L 143.12 244.94 L 143.30 242.06 L 143.55 239.20 L 143.89 236.36 L 144.30 233.55 L 144.79 230.77 L 145.35 228.02 L 145.98 225.32 L 146.69 222.67 L 147.47 220.08 L 148.31 217.54 L 149.23 215.06 L 150.21 212.66 L 151.25 210.32 L 152.35 208.06 L 153.51 205.87 L 154.72 203.76 L 155.99 201.74 L 157.31 199.80 L 158.68 197.95 L 160.10 196.18 L 161.56 194.50 L 163.07 192.91 L 164.62 191.39 L 166.22 189.97 L 167.87 188.62 L 169.56 187.36 L 171.31 186.18 L 173.10 185.07 L 174.95 184.05 L 176.87 183.10 L 178.84 182.22 L 180.89 181.43 L 183.01 180.71 L 185.21 180.07 L 187.49 179.51 L 189.86 179.03 L 192.31 178.64 L 194.86 178.34 L 197.51 178.13 L 200.25 178.02 L 203.09 178.01 L 206.02 178.10 L 209.06 178.29 L 212.19 178.60 L 215.42 179.01 L 218.75 179.54 L 222.17 180.18 L 225.68 180.94 L 229.28 181.82 L 232.97 182.81 L 236.75 183.93 L 240.60 185.16 L 244.54 186.50 L 248.55 187.97 L 252.64 189.55 L 256.80 191.24 L 261.02 193.05 L 265.32 194.96 L 269.68 196.99 L 274.09 199.12 L 278.57 201.35 L 283.10 203.68 L 287.69 206.11 L 292.32 208.63 L 297.01 211.24 L 301.74 213.94 L 306.51 216.72 L 311.33 219.58 L 316.19 222.52 L 321.08 225.53 L 326.00 228.60 L 330.96 231.73 L 335.95 234.93 L 340.97 238.17 L 346.02 241.47 L 351.09 244.81 L 356.18 248.19 L 361.29 251.60 L 366.42 255.05 L 371.57 258.52 L 376.73 262.01 L 381.90 265.51 L 387.09 269.03" fill="none" stroke="#0A0E17" stroke-width="13.5" stroke-linecap="round" stroke-linejoin="round" opacity="0.82"/>
<path d="M 378.66 281.44 L 383.86 284.97 L 389.07 288.50 L 394.29 292.03 L 399.52 295.56 L 404.76 299.08 L 410.01 302.58 L 415.26 306.07 L 420.52 309.53 L 425.78 312.97 L 431.04 316.37 L 436.30 319.74 L 441.55 323.06 L 446.81 326.34 L 452.06 329.56 L 457.31 332.74 L 462.55 335.85 L 467.79 338.90 L 473.02 341.88 L 478.24 344.80 L 483.46 347.63 L 488.66 350.39 L 493.86 353.06 L 499.05 355.65 L 504.23 358.15 L 509.40 360.55 L 514.56 362.85 L 519.71 365.05 L 524.85 367.15 L 529.99 369.13 L 535.12 371.00 L 540.24 372.76 L 545.35 374.39 L 550.46 375.89 L 555.56 377.27 L 560.65 378.51 L 565.74 379.61 L 570.82 380.56 L 575.89 381.37 L 580.96 382.02 L 586.02 382.51 L 591.07 382.83 L 596.11 382.99 L 601.12 382.96 L 606.12 382.76 L 611.10 382.37 L 616.04 381.79 L 620.94 381.01 L 625.79 380.03 L 630.59 378.85 L 635.33 377.47 L 639.99 375.89 L 644.56 374.11 L 649.04 372.13 L 653.41 369.96 L 657.67 367.59 L 661.81 365.05 L 665.81 362.34 L 669.67 359.46 L 673.39 356.42 L 676.95 353.24 L 680.37 349.92 L 683.62 346.48 L 686.72 342.92 L 689.66 339.25 L 692.45 335.48 L 695.07 331.63 L 697.54 327.69 L 699.86 323.67 L 702.03 319.59 L 704.05 315.44 L 705.92 311.23 L 707.65 306.98 L 709.24 302.67 L 710.69 298.33 L 712.00 293.95 L 713.18 289.53 L 714.23 285.08 L 715.15 280.61 L 715.93 276.11 L 716.59 271.60 L 717.12 267.07 L 717.53 262.53 L 717.81 257.98 L 717.96 253.42 L 718.00 248.86 L 717.90 244.30 L 717.68 239.75 L 717.34 235.20 L 716.87 230.66 L 716.28 226.14 L 715.55 221.64 L 714.70 217.15 L 713.72 212.69 L 712.61 208.26 L 711.36 203.86 L 709.98 199.49 L 708.46 195.17 L 706.80 190.89 L 705.00 186.66 L 703.06 182.48 L 700.96 178.36 L 698.72 174.31 L 696.33 170.33 L 693.78 166.43 L 691.07 162.62 L 688.21 158.90 L 685.19 155.29 L 682.01 151.78 L 678.68 148.40 L 675.19 145.15 L 671.55 142.04 L 667.76 139.08 L 663.82 136.28 L 659.76 133.65 L 655.56 131.20 L 651.24 128.93 L 646.81 126.86 L 642.29 124.98 L 637.67 123.29 L 632.97 121.81 L 628.20 120.53 L 623.37 119.46 L 618.49 118.58 L 613.57 117.90 L 608.61 117.41 L 603.63 117.11 L 598.62 117.00 L 593.59 117.07 L 588.55 117.31 L 583.49 117.72 L 578.43 118.29 L 573.36 119.02 L 568.28 119.90 L 563.19 120.93 L 558.10 122.10 L 553.01 123.40 L 547.90 124.84 L 542.79 126.41 L 537.68 128.11 L 532.55 129.92 L 527.42 131.85 L 522.28 133.89 L 517.14 136.03 L 511.98 138.29 L 506.81 140.64 L 501.64 143.09 L 496.45 145.63 L 491.26 148.26 L 486.06 150.98 L 480.85 153.78 L 475.63 156.65 L 470.41 159.60 L 465.17 162.62 L 459.93 165.70 L 454.69 168.84 L 449.44 172.04 L 444.18 175.30 L 438.93 178.60 L 433.67 181.94 L 428.41 185.33 L 423.15 188.75 L 417.89 192.20 L 412.64 195.67 L 407.39 199.17 L 402.14 202.68 L 396.91 206.20 L 391.68 209.73 L 386.46 213.26 L 381.26 216.79 L 376.07 220.32 L 370.90 223.82 L 365.74 227.32 L 360.60 230.78 L 355.49 234.23 L 350.40 237.64 L 345.33 241.01 L 340.30 244.34 L 335.29 247.63 L 330.31 250.86 L 325.37 254.04 L 320.47 257.16 L 315.60 260.22 L 310.77 263.21 L 305.99 266.12 L 301.26 268.96 L 296.57 271.72 L 291.94 274.39 L 287.35 276.97 L 282.83 279.46 L 278.37 281.86 L 273.97 284.16 L 269.63 286.36 L 265.36 288.45 L 261.17 290.43 L 257.05 292.31 L 253.01 294.07 L 249.05 295.73 L 245.18 297.26 L 241.39 298.69 L 237.70 299.99 L 234.11 301.18 L 230.61 302.26 L 227.21 303.21 L 223.93 304.06 L 220.75 304.79 L 217.68 305.41 L 214.72 305.92 L 211.89 306.33 L 209.17 306.64 L 206.56 306.85 L 204.08 306.97 L 201.72 307.00 L 199.48 306.95 L 197.35 306.82 L 195.33 306.62 L 193.42 306.36 L 191.62 306.04 L 189.91 305.66 L 188.30 305.22 L 186.76 304.74 L 185.30 304.21 L 183.91 303.63 L 182.58 303.01 L 181.29 302.33 L 180.05 301.61 L 178.85 300.83 L 177.68 299.99 L 176.53 299.10 L 175.40 298.14 L 174.30 297.11 L 173.21 296.00 L 172.14 294.82 L 171.09 293.56 L 170.06 292.22 L 169.04 290.80 L 168.06 289.29 L 167.10 287.69 L 166.17 286.02 L 165.28 284.26 L 164.42 282.42 L 163.61 280.50 L 162.83 278.51 L 162.11 276.45 L 161.44 274.33 L 160.82 272.14 L 160.26 269.90 L 159.75 267.60 L 159.31 265.26 L 158.93 262.88 L 158.61 260.47 L 158.36 258.04 L 158.17 255.58 L 158.05 253.10 L 158.00 250.62 L 158.02 248.14 L 158.10 245.66 L 158.26 243.19 L 158.47 240.74 L 158.76 238.32 L 159.11 235.92 L 159.52 233.56 L 160.00 231.25 L 160.53 228.98 L 161.12 226.76 L 161.77 224.60 L 162.47 222.51 L 163.21 220.48 L 164.01 218.53 L 164.84 216.65 L 165.72 214.85 L 166.63 213.13 L 167.58 211.50 L 168.55 209.95 L 169.55 208.48 L 170.57 207.10 L 171.61 205.80 L 172.67 204.58 L 173.75 203.44 L 174.85 202.37 L 175.96 201.38 L 177.10 200.45 L 178.26 199.58 L 179.45 198.78 L 180.67 198.02 L 181.93 197.33 L 183.24 196.68 L 184.60 196.07 L 186.02 195.52 L 187.52 195.01 L 189.09 194.55 L 190.75 194.15 L 192.51 193.79 L 194.36 193.50 L 196.33 193.27 L 198.40 193.11 L 200.58 193.02 L 202.89 193.01 L 205.31 193.08 L 207.85 193.24 L 210.51 193.50 L 213.29 193.86 L 216.19 194.32 L 219.20 194.89 L 222.32 195.56 L 225.56 196.35 L 228.90 197.25 L 232.34 198.27 L 235.89 199.40 L 239.54 200.65 L 243.27 202.01 L 247.10 203.49 L 251.02 205.08 L 255.02 206.79 L 259.10 208.61 L 263.26 210.55 L 267.49 212.58 L 271.79 214.73 L 276.16 216.98 L 280.59 219.33 L 285.09 221.77 L 289.64 224.31 L 294.25 226.94 L 298.91 229.65 L 303.62 232.45 L 308.38 235.33 L 313.18 238.28 L 318.03 241.30 L 322.91 244.39 L 327.84 247.54 L 332.80 250.75 L 337.79 254.01 L 342.81 257.32 L 347.86 260.67 L 352.94 264.06 L 358.04 267.49 L 363.17 270.95 L 368.32 274.43 L 373.48 277.93 L 378.66 281.44" fill="none" stroke="#0A0E17" stroke-width="13.5" stroke-linecap="round" stroke-linejoin="round" opacity="0.82"/>
<path d="M 421.34 218.56 L 425.53 221.40 L 429.71 224.24 L 433.88 227.06 L 438.04 229.87 L 442.19 232.66 L 446.32 235.44 L 450.43 238.19 L 454.53 240.92 L 458.61 243.62 L 462.67 246.29 L 466.71 248.93 L 470.72 251.53 L 474.72 254.10 L 478.69 256.63 L 482.63 259.11 L 486.55 261.56 L 490.45 263.95 L 494.31 266.30 L 498.14 268.60 L 501.94 270.85 L 505.71 273.04 L 509.44 275.17 L 513.14 277.25 L 516.80 279.26 L 520.42 281.22 L 524.00 283.11 L 527.54 284.93 L 531.03 286.69 L 534.48 288.37 L 537.88 289.99 L 541.23 291.54 L 544.54 293.01 L 547.79 294.41 L 550.98 295.74 L 554.12 296.99 L 557.20 298.17 L 560.23 299.27 L 563.19 300.29 L 566.08 301.24 L 568.92 302.12 L 571.68 302.91 L 574.38 303.63 L 577.01 304.28 L 579.56 304.86 L 582.05 305.36 L 584.45 305.79 L 586.78 306.15 L 589.04 306.45 L 591.22 306.67 L 593.32 306.84 L 595.34 306.95 L 597.28 307.00 L 599.15 306.99 L 600.94 306.93 L 602.65 306.82 L 604.29 306.67 L 605.86 306.47 L 607.36 306.23 L 608.79 305.95 L 610.16 305.64 L 611.47 305.29 L 612.73 304.91 L 613.93 304.50 L 615.09 304.05 L 616.21 303.58 L 617.29 303.07 L 618.34 302.53 L 619.35 301.96 L 620.34 301.36 L 621.31 300.72 L 622.26 300.04 L 623.19 299.32 L 624.11 298.57 L 625.01 297.76 L 625.90 296.91 L 626.78 296.01 L 627.65 295.07 L 628.50 294.07 L 629.35 293.01 L 630.17 291.91 L 630.99 290.75 L 631.79 289.53 L 632.57 288.26 L 633.33 286.93 L 634.07 285.55 L 634.79 284.11 L 635.49 282.63 L 636.15 281.09 L 636.79 279.50 L 637.40 277.87 L 637.98 276.19 L 638.52 274.47 L 639.03 272.71 L 639.50 270.91 L 639.93 269.07 L 640.33 267.21 L 640.68 265.31 L 641.00 263.39 L 641.27 261.45 L 641.50 259.48 L 641.69 257.51 L 641.83 255.51 L 641.93 253.51 L 641.99 251.51 L 642.00 249.50 L 641.97 247.49 L 641.89 245.49 L 641.77 243.49 L 641.60 241.50 L 641.39 239.53 L 641.14 237.58 L 640.85 235.65 L 640.51 233.74 L 640.14 231.86 L 639.72 230.01 L 639.27 228.19 L 638.78 226.41 L 638.25 224.67 L 637.69 222.97 L 637.10 221.31 L 636.48 219.70 L 635.82 218.14 L 635.14 216.62 L 634.44 215.16 L 633.71 213.75 L 632.95 212.40 L 632.18 211.10 L 631.39 209.86 L 630.58 208.67 L 629.76 207.53 L 628.93 206.45 L 628.08 205.43 L 627.21 204.45 L 626.34 203.53 L 625.46 202.66 L 624.56 201.83 L 623.65 201.05 L 622.73 200.31 L 621.79 199.61 L 620.83 198.96 L 619.85 198.33 L 618.85 197.75 L 617.82 197.19 L 616.75 196.67 L 615.66 196.18 L 614.52 195.72 L 613.34 195.29 L 612.11 194.90 L 610.82 194.53 L 609.48 194.20 L 608.08 193.90 L 606.62 193.64 L 605.08 193.43 L 603.48 193.25 L 601.80 193.12 L 600.05 193.03 L 598.22 193.00 L 596.32 193.02 L 594.34 193.10 L 592.28 193.23 L 590.14 193.43 L 587.92 193.69 L 585.63 194.02 L 583.26 194.42 L 580.81 194.88 L 578.29 195.42 L 575.70 196.03 L 573.04 196.72 L 570.31 197.48 L 567.51 198.31 L 564.64 199.22 L 561.71 200.21 L 558.72 201.27 L 555.67 202.41 L 552.56 203.62 L 549.39 204.91 L 546.17 206.28 L 542.89 207.72 L 539.56 209.23 L 536.19 210.81 L 532.76 212.46 L 529.29 214.18 L 525.77 215.97 L 522.21 217.83 L 518.61 219.75 L 514.97 221.74 L 511.30 223.78 L 507.58 225.89 L 503.83 228.05 L 500.05 230.27 L 496.23 232.54 L 492.38 234.87 L 488.50 237.24 L 484.60 239.66 L 480.67 242.12 L 476.71 244.63 L 472.72 247.18 L 468.72 249.77 L 464.69 252.39 L 460.64 255.04 L 456.57 257.73 L 452.48 260.44 L 448.38 263.18 L 444.25 265.95 L 440.12 268.73 L 435.97 271.53 L 431.80 274.35 L 427.62 277.18 L 423.44 280.02 L 419.24 282.87 L 415.03 285.72 L 410.81 288.58 L 406.59 291.44 L 402.36 294.29 L 398.12 297.14 L 393.88 299.99 L 389.63 302.82 L 385.38 305.64 L 381.13 308.45 L 376.88 311.24 L 372.62 314.01 L 368.37 316.75 L 364.11 319.48 L 359.86 322.17 L 355.60 324.84 L 351.35 327.47 L 347.10 330.07 L 342.86 332.64 L 338.62 335.16 L 334.38 337.65 L 330.14 340.09 L 325.91 342.48 L 321.69 344.83 L 317.47 347.13 L 313.26 349.38 L 309.05 351.58 L 304.85 353.72 L 300.65 355.80 L 296.46 357.82 L 292.27 359.78 L 288.10 361.68 L 283.92 363.51 L 279.76 365.28 L 275.59 366.97 L 271.44 368.59 L 267.29 370.14 L 263.14 371.61 L 259.00 373.01 L 254.86 374.32 L 250.73 375.55 L 246.60 376.70 L 242.48 377.76 L 238.36 378.73 L 234.24 379.61 L 230.13 380.39 L 226.02 381.08 L 221.92 381.67 L 217.82 382.15 L 213.73 382.53 L 209.65 382.80 L 205.57 382.96 L 201.50 383.00 L 197.45 382.93 L 193.41 382.73 L 189.38 382.42 L 185.38 381.97 L 181.40 381.40 L 177.45 380.71 L 173.53 379.88 L 169.65 378.92 L 165.81 377.83 L 162.02 376.60 L 158.28 375.24 L 154.60 373.76 L 150.99 372.14 L 147.44 370.40 L 143.96 368.53 L 140.57 366.55 L 137.26 364.44 L 134.04 362.23 L 130.91 359.90 L 127.87 357.48 L 124.93 354.96 L 122.09 352.34 L 119.35 349.64 L 116.72 346.85 L 114.18 343.99 L 111.75 341.05 L 109.43 338.05 L 107.20 334.99 L 105.08 331.86 L 103.06 328.69 L 101.15 325.46 L 99.33 322.18 L 97.61 318.86 L 95.98 315.50 L 94.45 312.11 L 93.02 308.67 L 91.68 305.21 L 90.43 301.72 L 89.27 298.20 L 88.20 294.65 L 87.22 291.09 L 86.32 287.50 L 85.51 283.89 L 84.79 280.27 L 84.15 276.64 L 83.60 272.99 L 83.13 269.33 L 82.74 265.66 L 82.43 261.98 L 82.21 258.30 L 82.06 254.61 L 82.00 250.92 L 82.02 247.23 L 82.12 243.55 L 82.31 239.86 L 82.57 236.18 L 82.92 232.51 L 83.35 228.84 L 83.86 225.19 L 84.46 221.54 L 85.14 217.92 L 85.91 214.30 L 86.76 210.70 L 87.70 207.13 L 88.72 203.57 L 89.84 200.04 L 91.04 196.53 L 92.34 193.05 L 93.72 189.61 L 95.21 186.19 L 96.78 182.81 L 98.45 179.47 L 100.22 176.17 L 102.09 172.92 L 104.06 169.72 L 106.13 166.57 L 108.30 163.47 L 110.58 160.44 L 112.96 157.47 L 115.44 154.57 L 118.02 151.75 L 120.71 149.00 L 123.50 146.34 L 126.39 143.77 L 129.38 141.30 L 132.46 138.92 L 135.64 136.65 L 138.90 134.49 L 142.26 132.45 L 145.69 130.52 L 149.20 128.71 L 152.79 127.03 L 156.44 125.48 L 160.15 124.06 L 163.91 122.77 L 167.73 121.61 L 171.59 120.59 L 175.49 119.69 L 179.42 118.93 L 183.39 118.29 L 187.38 117.79 L 191.39 117.41 L 195.43 117.16 L 199.47 117.02 L 203.53 117.01 L 207.61 117.11 L 211.69 117.32 L 215.78 117.65 L 219.87 118.08 L 223.97 118.61 L 228.08 119.25 L 232.19 119.99 L 236.30 120.82 L 240.42 121.74 L 244.54 122.76 L 248.67 123.86 L 252.80 125.05 L 256.93 126.33 L 261.07 127.68 L 265.21 129.11 L 269.36 130.62 L 273.52 132.21 L 277.67 133.87 L 281.84 135.60 L 286.01 137.40 L 290.18 139.26 L 294.37 141.19 L 298.55 143.18 L 302.75 145.23 L 306.95 147.34 L 311.15 149.51 L 315.36 151.73 L 319.58 154.01 L 323.80 156.33 L 328.03 158.71 L 332.26 161.13 L 336.50 163.59 L 340.74 166.10 L 344.98 168.64 L 349.23 171.22 L 353.48 173.84 L 357.73 176.49 L 361.98 179.17 L 366.24 181.88 L 370.49 184.62 L 374.75 187.38 L 379.00 190.15 L 383.26 192.95 L 387.51 195.77 L 391.76 198.59 L 396.00 201.43 L 400.24 204.28 L 404.47 207.13 L 408.70 209.99 L 412.92 212.85 L 417.13 215.70 L 421.34 218.56" fill="none" stroke="#F5F7FA" stroke-width="7.5" stroke-linecap="round" stroke-linejoin="round" opacity="0.92"/>
<path d="M 412.91 230.97 L 417.11 233.81 L 421.30 236.65 L 425.48 239.49 L 429.65 242.31 L 433.81 245.11 L 437.97 247.90 L 442.10 250.67 L 446.23 253.41 L 450.34 256.14 L 454.44 258.83 L 458.52 261.50 L 462.59 264.13 L 466.63 266.73 L 470.66 269.30 L 474.67 271.82 L 478.65 274.31 L 482.62 276.75 L 486.55 279.14 L 490.47 281.49 L 494.36 283.79 L 498.22 286.03 L 502.05 288.22 L 505.85 290.36 L 509.62 292.43 L 513.36 294.45 L 517.06 296.40 L 520.73 298.30 L 524.36 300.12 L 527.96 301.88 L 531.52 303.57 L 535.03 305.20 L 538.51 306.75 L 541.94 308.23 L 545.33 309.63 L 548.67 310.97 L 551.96 312.22 L 555.20 313.40 L 558.40 314.51 L 561.54 315.54 L 564.63 316.49 L 567.67 317.37 L 570.65 318.16 L 573.57 318.88 L 576.43 319.53 L 579.24 320.09 L 581.98 320.58 L 584.66 321.00 L 587.28 321.34 L 589.84 321.61 L 592.33 321.81 L 594.76 321.94 L 597.12 322.00 L 599.42 321.99 L 601.65 321.91 L 603.83 321.78 L 605.93 321.58 L 607.98 321.32 L 609.97 321.00 L 611.89 320.63 L 613.76 320.20 L 615.58 319.72 L 617.34 319.18 L 619.05 318.60 L 620.71 317.96 L 622.33 317.27 L 623.90 316.53 L 625.44 315.75 L 626.93 314.91 L 628.39 314.02 L 629.81 313.08 L 631.20 312.09 L 632.55 311.04 L 633.88 309.95 L 635.17 308.79 L 636.44 307.59 L 637.67 306.32 L 638.88 305.01 L 640.06 303.63 L 641.20 302.20 L 642.32 300.71 L 643.40 299.17 L 644.45 297.57 L 645.47 295.92 L 646.45 294.21 L 647.39 292.45 L 648.30 290.64 L 649.16 288.78 L 649.99 286.87 L 650.78 284.92 L 651.52 282.92 L 652.22 280.88 L 652.88 278.80 L 653.49 276.69 L 654.05 274.54 L 654.57 272.35 L 655.04 270.14 L 655.46 267.90 L 655.83 265.64 L 656.15 263.36 L 656.42 261.06 L 656.64 258.75 L 656.80 256.43 L 656.92 254.09 L 656.99 251.76 L 657.00 249.41 L 656.96 247.07 L 656.87 244.74 L 656.73 242.41 L 656.53 240.09 L 656.29 237.78 L 655.99 235.49 L 655.65 233.22 L 655.25 230.97 L 654.81 228.75 L 654.32 226.55 L 653.78 224.39 L 653.19 222.25 L 652.56 220.15 L 651.88 218.09 L 651.16 216.07 L 650.39 214.10 L 649.58 212.17 L 648.74 210.28 L 647.85 208.45 L 646.92 206.66 L 645.96 204.93 L 644.96 203.25 L 643.93 201.62 L 642.86 200.05 L 641.76 198.54 L 640.63 197.08 L 639.47 195.67 L 638.28 194.33 L 637.06 193.04 L 635.81 191.80 L 634.53 190.62 L 633.22 189.50 L 631.88 188.43 L 630.51 187.41 L 629.10 186.44 L 627.66 185.53 L 626.19 184.67 L 624.67 183.85 L 623.12 183.09 L 621.53 182.38 L 619.89 181.72 L 618.20 181.10 L 616.46 180.54 L 614.68 180.03 L 612.83 179.58 L 610.94 179.18 L 608.98 178.83 L 606.96 178.54 L 604.89 178.32 L 602.75 178.15 L 600.54 178.04 L 598.28 178.00 L 595.95 178.03 L 593.55 178.12 L 591.09 178.28 L 588.57 178.51 L 585.98 178.82 L 583.33 179.20 L 580.62 179.65 L 577.84 180.18 L 575.01 180.79 L 572.11 181.47 L 569.16 182.23 L 566.16 183.06 L 563.09 183.98 L 559.98 184.97 L 556.81 186.03 L 553.59 187.18 L 550.32 188.40 L 547.00 189.69 L 543.64 191.06 L 540.23 192.50 L 536.78 194.02 L 533.28 195.61 L 529.74 197.26 L 526.17 198.99 L 522.55 200.78 L 518.90 202.64 L 515.21 204.57 L 511.49 206.55 L 507.74 208.60 L 503.95 210.70 L 500.13 212.87 L 496.29 215.08 L 492.41 217.36 L 488.51 219.68 L 484.59 222.05 L 480.64 224.47 L 476.66 226.93 L 472.67 229.43 L 468.65 231.98 L 464.61 234.56 L 460.56 237.18 L 456.48 239.83 L 452.39 242.51 L 448.29 245.22 L 444.17 247.96 L 440.04 250.71 L 435.89 253.49 L 431.73 256.29 L 427.57 259.10 L 423.39 261.93 L 419.21 264.76 L 415.01 267.61 L 410.81 270.46 L 406.61 273.31 L 402.40 276.16 L 398.19 279.01 L 393.97 281.86 L 389.76 284.69 L 385.54 287.52 L 381.32 290.33 L 377.10 293.13 L 372.89 295.92 L 368.67 298.68 L 364.46 301.42 L 360.26 304.13 L 356.06 306.82 L 351.86 309.48 L 347.67 312.11 L 343.49 314.70 L 339.31 317.25 L 335.14 319.77 L 330.99 322.25 L 326.84 324.68 L 322.70 327.07 L 318.57 329.41 L 314.45 331.70 L 310.35 333.93 L 306.26 336.12 L 302.18 338.25 L 298.11 340.32 L 294.06 342.33 L 290.02 344.28 L 285.99 346.16 L 281.98 347.98 L 277.98 349.74 L 274.00 351.42 L 270.04 353.04 L 266.09 354.58 L 262.15 356.05 L 258.24 357.44 L 254.33 358.75 L 250.45 359.99 L 246.58 361.14 L 242.73 362.21 L 238.89 363.20 L 235.07 364.10 L 231.27 364.91 L 227.49 365.63 L 223.72 366.26 L 219.98 366.79 L 216.25 367.23 L 212.55 367.58 L 208.86 367.82 L 205.20 367.96 L 201.56 368.00 L 197.94 367.93 L 194.35 367.76 L 190.79 367.48 L 187.26 367.09 L 183.77 366.59 L 180.31 365.98 L 176.89 365.26 L 173.51 364.42 L 170.17 363.47 L 166.89 362.41 L 163.65 361.24 L 160.47 359.95 L 157.35 358.56 L 154.30 357.06 L 151.30 355.45 L 148.38 353.74 L 145.53 351.93 L 142.76 350.02 L 140.06 348.02 L 137.44 345.93 L 134.90 343.75 L 132.44 341.49 L 130.07 339.14 L 127.78 336.73 L 125.58 334.24 L 123.46 331.68 L 121.43 329.06 L 119.48 326.37 L 117.62 323.63 L 115.84 320.83 L 114.15 317.99 L 112.54 315.09 L 111.02 312.15 L 109.58 309.16 L 108.21 306.14 L 106.93 303.07 L 105.74 299.98 L 104.62 296.85 L 103.57 293.69 L 102.61 290.50 L 101.73 287.28 L 100.92 284.04 L 100.19 280.79 L 99.53 277.51 L 98.96 274.21 L 98.45 270.90 L 98.02 267.58 L 97.67 264.24 L 97.39 260.90 L 97.19 257.55 L 97.06 254.20 L 97.00 250.84 L 97.02 247.48 L 97.11 244.13 L 97.28 240.77 L 97.52 237.43 L 97.84 234.09 L 98.23 230.76 L 98.69 227.44 L 99.24 224.14 L 99.85 220.85 L 100.54 217.58 L 101.31 214.33 L 102.16 211.11 L 103.08 207.91 L 104.09 204.73 L 105.17 201.58 L 106.33 198.47 L 107.56 195.39 L 108.89 192.35 L 110.29 189.34 L 111.77 186.38 L 113.34 183.46 L 114.99 180.58 L 116.72 177.76 L 118.54 174.99 L 120.45 172.28 L 122.44 169.63 L 124.51 167.03 L 126.67 164.51 L 128.92 162.06 L 131.25 159.68 L 133.66 157.37 L 136.16 155.15 L 138.74 153.02 L 141.40 150.97 L 144.13 149.01 L 146.95 147.15 L 149.83 145.39 L 152.79 143.73 L 155.82 142.18 L 158.91 140.73 L 162.05 139.39 L 165.26 138.16 L 168.52 137.04 L 171.83 136.04 L 175.19 135.15 L 178.59 134.37 L 182.03 133.70 L 185.51 133.14 L 189.02 132.70 L 192.57 132.37 L 196.14 132.14 L 199.75 132.02 L 203.37 132.01 L 207.03 132.10 L 210.70 132.29 L 214.40 132.58 L 218.11 132.98 L 221.85 133.46 L 225.60 134.05 L 229.38 134.72 L 233.17 135.49 L 236.98 136.34 L 240.81 137.29 L 244.65 138.31 L 248.51 139.43 L 252.39 140.62 L 256.28 141.90 L 260.19 143.25 L 264.12 144.68 L 268.06 146.18 L 272.02 147.76 L 275.99 149.41 L 279.98 151.13 L 283.98 152.92 L 288.00 154.77 L 292.03 156.69 L 296.08 158.67 L 300.14 160.71 L 304.21 162.81 L 308.30 164.97 L 312.40 167.18 L 316.51 169.44 L 320.63 171.76 L 324.77 174.12 L 328.91 176.53 L 333.06 178.99 L 337.23 181.48 L 341.40 184.02 L 345.58 186.59 L 349.76 189.20 L 353.96 191.84 L 358.16 194.52 L 362.36 197.22 L 366.57 199.95 L 370.78 202.70 L 374.99 205.47 L 379.21 208.26 L 383.43 211.07 L 387.65 213.89 L 391.87 216.72 L 396.08 219.57 L 400.30 222.41 L 404.51 225.27 L 408.71 228.12 L 412.91 230.97" fill="none" stroke="#F5F7FA" stroke-width="7.5" stroke-linecap="round" stroke-linejoin="round" opacity="0.92"/>
<path d="M 404.49 243.38 L 408.69 246.23 L 412.88 249.07 L 417.07 251.91 L 421.26 254.74 L 425.44 257.56 L 429.61 260.36 L 433.78 263.14 L 437.93 265.91 L 442.08 268.66 L 446.22 271.38 L 450.34 274.07 L 454.45 276.74 L 458.55 279.37 L 462.63 281.97 L 466.70 284.53 L 470.75 287.06 L 474.79 289.54 L 478.80 291.98 L 482.79 294.38 L 486.77 296.73 L 490.72 299.02 L 494.65 301.27 L 498.56 303.47 L 502.44 305.60 L 506.29 307.68 L 510.12 309.70 L 513.92 311.66 L 517.70 313.56 L 521.44 315.39 L 525.15 317.16 L 528.83 318.85 L 532.48 320.48 L 536.09 322.04 L 539.67 323.53 L 543.21 324.94 L 546.72 326.28 L 550.18 327.54 L 553.61 328.73 L 557.00 329.83 L 560.35 330.87 L 563.65 331.82 L 566.91 332.69 L 570.13 333.48 L 573.30 334.20 L 576.43 334.83 L 579.51 335.38 L 582.54 335.85 L 585.52 336.24 L 588.46 336.55 L 591.34 336.78 L 594.18 336.93 L 596.96 336.99 L 599.69 336.98 L 602.37 336.90 L 605.00 336.73 L 607.58 336.49 L 610.10 336.17 L 612.58 335.77 L 615.00 335.30 L 617.37 334.76 L 619.68 334.14 L 621.95 333.46 L 624.17 332.70 L 626.33 331.87 L 628.45 330.97 L 630.52 330.00 L 632.54 328.96 L 634.51 327.85 L 636.43 326.68 L 638.30 325.44 L 640.13 324.14 L 641.91 322.76 L 643.65 321.33 L 645.34 319.83 L 646.98 318.26 L 648.57 316.64 L 650.11 314.95 L 651.61 313.20 L 653.06 311.39 L 654.46 309.52 L 655.81 307.60 L 657.11 305.62 L 658.36 303.58 L 659.56 301.49 L 660.71 299.36 L 661.80 297.17 L 662.84 294.94 L 663.83 292.66 L 664.77 290.34 L 665.65 287.97 L 666.47 285.57 L 667.24 283.14 L 667.95 280.67 L 668.61 278.16 L 669.21 275.64 L 669.75 273.08 L 670.23 270.50 L 670.66 267.90 L 671.03 265.28 L 671.33 262.64 L 671.59 260.00 L 671.78 257.34 L 671.91 254.67 L 671.98 252.00 L 672.00 249.33 L 671.95 246.66 L 671.85 243.99 L 671.69 241.33 L 671.47 238.68 L 671.19 236.04 L 670.85 233.41 L 670.45 230.80 L 670.00 228.21 L 669.48 225.64 L 668.91 223.10 L 668.29 220.58 L 667.60 218.09 L 666.86 215.64 L 666.07 213.22 L 665.21 210.84 L 664.31 208.50 L 663.34 206.20 L 662.33 203.94 L 661.26 201.73 L 660.14 199.57 L 658.97 197.46 L 657.74 195.40 L 656.47 193.39 L 655.14 191.43 L 653.77 189.54 L 652.34 187.70 L 650.87 185.92 L 649.35 184.20 L 647.78 182.54 L 646.16 180.95 L 644.50 179.42 L 642.79 177.95 L 641.03 176.54 L 639.22 175.20 L 637.37 173.93 L 635.47 172.72 L 633.53 171.58 L 631.53 170.51 L 629.49 169.51 L 627.40 168.57 L 625.26 167.71 L 623.06 166.91 L 620.82 166.19 L 618.53 165.54 L 616.19 164.96 L 613.79 164.45 L 611.35 164.02 L 608.85 163.66 L 606.30 163.38 L 603.69 163.18 L 601.04 163.05 L 598.33 163.00 L 595.57 163.03 L 592.76 163.14 L 589.91 163.33 L 587.00 163.60 L 584.04 163.95 L 581.03 164.38 L 577.97 164.89 L 574.87 165.48 L 571.72 166.15 L 568.53 166.90 L 565.29 167.74 L 562.00 168.65 L 558.68 169.64 L 555.31 170.71 L 551.90 171.86 L 548.46 173.08 L 544.97 174.38 L 541.45 175.76 L 537.89 177.21 L 534.29 178.73 L 530.66 180.32 L 527.00 181.99 L 523.30 183.72 L 519.57 185.52 L 515.81 187.38 L 512.03 189.31 L 508.21 191.30 L 504.37 193.35 L 500.50 195.46 L 496.61 197.62 L 492.69 199.85 L 488.75 202.12 L 484.78 204.44 L 480.80 206.81 L 476.79 209.23 L 472.77 211.70 L 468.73 214.20 L 464.67 216.74 L 460.59 219.33 L 456.50 221.94 L 452.40 224.59 L 448.28 227.27 L 444.15 229.98 L 440.01 232.71 L 435.86 235.47 L 431.70 238.25 L 427.53 241.04 L 423.35 243.85 L 419.17 246.67 L 414.98 249.51 L 410.79 252.35 L 406.59 255.20 L 402.39 258.04 L 398.19 260.89 L 393.99 263.74 L 389.79 266.58 L 385.59 269.42 L 381.39 272.24 L 377.20 275.05 L 373.01 277.85 L 368.82 280.63 L 364.64 283.39 L 360.47 286.12 L 356.30 288.83 L 352.15 291.52 L 348.00 294.17 L 343.86 296.79 L 339.74 299.38 L 335.62 301.93 L 331.52 304.44 L 327.43 306.91 L 323.36 309.33 L 319.30 311.71 L 315.25 314.04 L 311.23 316.33 L 307.22 318.56 L 303.23 320.73 L 299.26 322.85 L 295.30 324.91 L 291.37 326.91 L 287.46 328.85 L 283.57 330.73 L 279.71 332.54 L 275.86 334.29 L 272.04 335.96 L 268.25 337.57 L 264.48 339.10 L 260.74 340.56 L 257.02 341.95 L 253.33 343.26 L 249.67 344.50 L 246.03 345.65 L 242.43 346.73 L 238.85 347.72 L 235.30 348.63 L 231.79 349.46 L 228.30 350.20 L 224.85 350.86 L 221.42 351.43 L 218.04 351.92 L 214.68 352.32 L 211.36 352.62 L 208.07 352.84 L 204.82 352.96 L 201.61 353.00 L 198.43 352.94 L 195.30 352.79 L 192.20 352.55 L 189.15 352.21 L 186.13 351.78 L 183.16 351.26 L 180.24 350.64 L 177.36 349.92 L 174.53 349.12 L 171.75 348.22 L 169.02 347.23 L 166.34 346.15 L 163.72 344.98 L 161.15 343.72 L 158.64 342.37 L 156.19 340.94 L 153.80 339.42 L 151.48 337.82 L 149.21 336.13 L 147.01 334.38 L 144.87 332.54 L 142.80 330.63 L 140.79 328.65 L 138.85 326.60 L 136.98 324.48 L 135.17 322.30 L 133.43 320.06 L 131.76 317.76 L 130.16 315.40 L 128.63 312.98 L 127.16 310.51 L 125.76 308.00 L 124.43 305.43 L 123.17 302.82 L 121.98 300.17 L 120.85 297.47 L 119.79 294.74 L 118.80 291.97 L 117.88 289.17 L 117.02 286.34 L 116.24 283.48 L 115.52 280.59 L 114.86 277.68 L 114.28 274.74 L 113.76 271.79 L 113.31 268.82 L 112.92 265.83 L 112.60 262.83 L 112.35 259.82 L 112.17 256.80 L 112.05 253.78 L 112.00 250.76 L 112.02 247.73 L 112.10 244.71 L 112.25 241.69 L 112.47 238.67 L 112.75 235.67 L 113.11 232.68 L 113.52 229.70 L 114.01 226.73 L 114.56 223.79 L 115.18 220.86 L 115.87 217.96 L 116.62 215.09 L 117.44 212.24 L 118.33 209.42 L 119.29 206.64 L 120.31 203.89 L 121.40 201.17 L 122.56 198.50 L 123.79 195.87 L 125.09 193.28 L 126.45 190.74 L 127.88 188.25 L 129.38 185.80 L 130.95 183.42 L 132.59 181.09 L 134.29 178.81 L 136.06 176.60 L 137.90 174.45 L 139.81 172.37 L 141.78 170.35 L 143.82 168.41 L 145.93 166.53 L 148.10 164.74 L 150.33 163.01 L 152.63 161.37 L 154.99 159.81 L 157.41 158.34 L 159.89 156.95 L 162.43 155.64 L 165.02 154.42 L 167.67 153.30 L 170.38 152.26 L 173.13 151.32 L 175.94 150.47 L 178.79 149.71 L 181.69 149.04 L 184.64 148.47 L 187.63 147.99 L 190.67 147.61 L 193.74 147.32 L 196.86 147.12 L 200.02 147.02 L 203.21 147.01 L 206.44 147.09 L 209.71 147.26 L 213.02 147.52 L 216.35 147.87 L 219.73 148.31 L 223.13 148.84 L 226.57 149.46 L 230.04 150.16 L 233.54 150.94 L 237.07 151.81 L 240.63 152.77 L 244.23 153.80 L 247.85 154.92 L 251.50 156.11 L 255.17 157.38 L 258.88 158.73 L 262.61 160.16 L 266.36 161.65 L 270.14 163.23 L 273.95 164.87 L 277.78 166.58 L 281.64 168.36 L 285.51 170.20 L 289.41 172.11 L 293.33 174.08 L 297.28 176.11 L 301.24 178.20 L 305.22 180.35 L 309.22 182.55 L 313.24 184.81 L 317.27 187.12 L 321.32 189.47 L 325.39 191.87 L 329.47 194.32 L 333.57 196.81 L 337.68 199.34 L 341.80 201.91 L 345.93 204.52 L 350.07 207.15 L 354.22 209.82 L 358.39 212.52 L 362.56 215.24 L 366.73 217.99 L 370.92 220.76 L 375.10 223.55 L 379.30 226.35 L 383.49 229.17 L 387.69 232.00 L 391.89 234.84 L 396.09 237.68 L 400.29 240.53 L 404.49 243.38" fill="none" stroke="#F5F7FA" stroke-width="7.5" stroke-linecap="round" stroke-linejoin="round" opacity="0.92"/>
<path d="M 395.51 256.62 L 399.71 259.47 L 403.91 262.32 L 408.11 265.16 L 412.31 268.00 L 416.51 270.83 L 420.70 273.65 L 424.90 276.45 L 429.08 279.24 L 433.27 282.01 L 437.44 284.76 L 441.61 287.48 L 445.78 290.18 L 449.93 292.85 L 454.07 295.48 L 458.20 298.09 L 462.32 300.66 L 466.43 303.19 L 470.53 305.68 L 474.61 308.13 L 478.68 310.53 L 482.73 312.88 L 486.76 315.19 L 490.78 317.45 L 494.78 319.65 L 498.76 321.80 L 502.72 323.89 L 506.67 325.92 L 510.59 327.89 L 514.49 329.80 L 518.36 331.64 L 522.22 333.42 L 526.05 335.13 L 529.86 336.77 L 533.64 338.35 L 537.39 339.84 L 541.12 341.27 L 544.83 342.62 L 548.50 343.89 L 552.15 345.08 L 555.77 346.20 L 559.37 347.23 L 562.93 348.19 L 566.46 349.06 L 569.96 349.84 L 573.43 350.54 L 576.87 351.16 L 580.27 351.69 L 583.65 352.13 L 586.98 352.48 L 590.29 352.74 L 593.56 352.91 L 596.79 352.99 L 599.98 352.98 L 603.14 352.88 L 606.26 352.68 L 609.33 352.39 L 612.37 352.01 L 615.36 351.53 L 618.31 350.96 L 621.21 350.29 L 624.06 349.53 L 626.87 348.68 L 629.62 347.74 L 632.33 346.70 L 634.98 345.58 L 637.57 344.36 L 640.11 343.05 L 642.59 341.66 L 645.01 340.19 L 647.37 338.63 L 649.67 336.99 L 651.90 335.26 L 654.07 333.47 L 656.18 331.59 L 658.22 329.65 L 660.19 327.63 L 662.10 325.55 L 663.94 323.40 L 665.71 321.19 L 667.41 318.91 L 669.05 316.58 L 670.62 314.20 L 672.12 311.75 L 673.55 309.26 L 674.91 306.72 L 676.21 304.13 L 677.44 301.50 L 678.60 298.83 L 679.69 296.11 L 680.71 293.36 L 681.67 290.58 L 682.56 287.76 L 683.38 284.91 L 684.13 282.04 L 684.82 279.14 L 685.44 276.21 L 685.99 273.27 L 686.48 270.30 L 686.89 267.32 L 687.25 264.33 L 687.53 261.33 L 687.75 258.31 L 687.90 255.29 L 687.98 252.27 L 688.00 249.24 L 687.95 246.22 L 687.83 243.20 L 687.65 240.18 L 687.40 237.17 L 687.08 234.17 L 686.69 231.18 L 686.24 228.21 L 685.72 225.26 L 685.14 222.32 L 684.48 219.41 L 683.76 216.52 L 682.98 213.66 L 682.12 210.83 L 681.20 208.03 L 680.21 205.26 L 679.15 202.53 L 678.02 199.83 L 676.83 197.18 L 675.57 194.57 L 674.24 192.00 L 672.84 189.49 L 671.37 187.02 L 669.84 184.60 L 668.24 182.24 L 666.57 179.94 L 664.83 177.70 L 663.02 175.52 L 661.15 173.40 L 659.21 171.35 L 657.20 169.37 L 655.13 167.46 L 652.99 165.62 L 650.79 163.87 L 648.52 162.18 L 646.20 160.58 L 643.81 159.06 L 641.36 157.63 L 638.85 156.28 L 636.28 155.02 L 633.66 153.85 L 630.98 152.77 L 628.25 151.78 L 625.47 150.88 L 622.64 150.08 L 619.76 149.36 L 616.84 148.74 L 613.87 148.22 L 610.85 147.79 L 607.80 147.45 L 604.70 147.21 L 601.57 147.06 L 598.39 147.00 L 595.18 147.04 L 591.93 147.16 L 588.64 147.38 L 585.32 147.68 L 581.96 148.08 L 578.58 148.57 L 575.15 149.14 L 571.70 149.80 L 568.21 150.54 L 564.70 151.37 L 561.15 152.28 L 557.57 153.27 L 553.97 154.35 L 550.33 155.50 L 546.67 156.74 L 542.98 158.05 L 539.26 159.44 L 535.52 160.90 L 531.75 162.43 L 527.96 164.04 L 524.14 165.71 L 520.29 167.46 L 516.43 169.27 L 512.54 171.15 L 508.63 173.09 L 504.70 175.09 L 500.74 177.15 L 496.77 179.27 L 492.78 181.44 L 488.77 183.67 L 484.75 185.96 L 480.70 188.29 L 476.64 190.67 L 472.57 193.09 L 468.48 195.56 L 464.38 198.07 L 460.26 200.62 L 456.14 203.21 L 452.00 205.83 L 447.85 208.48 L 443.70 211.17 L 439.53 213.88 L 435.36 216.61 L 431.18 219.37 L 426.99 222.15 L 422.80 224.95 L 418.61 227.76 L 414.41 230.58 L 410.21 233.42 L 406.01 236.26 L 401.81 239.11 L 397.61 241.96 L 393.41 244.80 L 389.21 247.65 L 385.02 250.49 L 380.83 253.33 L 376.65 256.15 L 372.47 258.96 L 368.30 261.75 L 364.14 264.53 L 359.99 267.29 L 355.85 270.02 L 351.72 272.73 L 347.60 275.41 L 343.50 278.06 L 339.41 280.67 L 335.33 283.26 L 331.27 285.80 L 327.23 288.30 L 323.21 290.77 L 319.20 293.19 L 315.22 295.56 L 311.25 297.88 L 307.31 300.15 L 303.39 302.38 L 299.50 304.54 L 295.63 306.65 L 291.79 308.70 L 287.97 310.69 L 284.19 312.62 L 280.43 314.48 L 276.70 316.28 L 273.00 318.01 L 269.34 319.68 L 265.71 321.27 L 262.11 322.79 L 258.55 324.24 L 255.03 325.62 L 251.54 326.92 L 248.10 328.14 L 244.69 329.29 L 241.32 330.36 L 238.00 331.35 L 234.71 332.26 L 231.47 333.10 L 228.28 333.85 L 225.13 334.52 L 222.03 335.11 L 218.97 335.62 L 215.96 336.05 L 213.00 336.40 L 210.09 336.67 L 207.24 336.86 L 204.43 336.97 L 201.67 337.00 L 198.96 336.95 L 196.31 336.82 L 193.70 336.62 L 191.15 336.34 L 188.65 335.98 L 186.21 335.55 L 183.81 335.04 L 181.47 334.46 L 179.18 333.81 L 176.94 333.09 L 174.74 332.29 L 172.60 331.43 L 170.51 330.49 L 168.47 329.49 L 166.47 328.42 L 164.53 327.28 L 162.63 326.07 L 160.78 324.80 L 158.97 323.46 L 157.21 322.05 L 155.50 320.58 L 153.84 319.05 L 152.22 317.46 L 150.65 315.80 L 149.13 314.08 L 147.66 312.30 L 146.23 310.46 L 144.86 308.57 L 143.53 306.61 L 142.26 304.60 L 141.03 302.54 L 139.86 300.43 L 138.74 298.27 L 137.67 296.06 L 136.66 293.80 L 135.69 291.50 L 134.79 289.16 L 133.93 286.78 L 133.14 284.36 L 132.40 281.91 L 131.71 279.42 L 131.09 276.90 L 130.52 274.36 L 130.00 271.79 L 129.55 269.20 L 129.15 266.59 L 128.81 263.96 L 128.53 261.32 L 128.31 258.67 L 128.15 256.01 L 128.05 253.34 L 128.00 250.67 L 128.02 248.00 L 128.09 245.33 L 128.22 242.66 L 128.41 240.00 L 128.67 237.36 L 128.97 234.72 L 129.34 232.10 L 129.77 229.50 L 130.25 226.92 L 130.79 224.36 L 131.39 221.84 L 132.05 219.33 L 132.76 216.86 L 133.53 214.43 L 134.35 212.03 L 135.23 209.66 L 136.17 207.34 L 137.16 205.06 L 138.20 202.83 L 139.29 200.64 L 140.44 198.51 L 141.64 196.42 L 142.89 194.38 L 144.19 192.40 L 145.54 190.48 L 146.94 188.61 L 148.39 186.80 L 149.89 185.05 L 151.43 183.36 L 153.02 181.74 L 154.66 180.17 L 156.35 178.67 L 158.09 177.24 L 159.87 175.86 L 161.70 174.56 L 163.57 173.32 L 165.49 172.15 L 167.46 171.04 L 169.48 170.00 L 171.55 169.03 L 173.67 168.13 L 175.83 167.30 L 178.05 166.54 L 180.32 165.86 L 182.63 165.24 L 185.00 164.70 L 187.42 164.23 L 189.90 163.83 L 192.42 163.51 L 195.00 163.27 L 197.63 163.10 L 200.31 163.02 L 203.04 163.01 L 205.82 163.07 L 208.66 163.22 L 211.54 163.45 L 214.48 163.76 L 217.46 164.15 L 220.49 164.62 L 223.57 165.17 L 226.70 165.80 L 229.87 166.52 L 233.09 167.31 L 236.35 168.18 L 239.65 169.13 L 243.00 170.17 L 246.39 171.27 L 249.82 172.46 L 253.28 173.72 L 256.79 175.06 L 260.33 176.47 L 263.91 177.96 L 267.52 179.52 L 271.17 181.15 L 274.85 182.84 L 278.56 184.61 L 282.30 186.44 L 286.08 188.34 L 289.88 190.30 L 293.71 192.32 L 297.56 194.40 L 301.44 196.53 L 305.35 198.73 L 309.28 200.98 L 313.23 203.27 L 317.21 205.62 L 321.20 208.02 L 325.21 210.46 L 329.25 212.94 L 333.30 215.47 L 337.37 218.03 L 341.45 220.63 L 345.55 223.26 L 349.66 225.93 L 353.78 228.62 L 357.92 231.34 L 362.07 234.09 L 366.22 236.86 L 370.39 239.64 L 374.56 242.44 L 378.74 245.26 L 382.93 248.09 L 387.12 250.93 L 391.31 253.77 L 395.51 256.62" fill="none" stroke="#F5F7FA" stroke-width="7.5" stroke-linecap="round" stroke-linejoin="round" opacity="0.92"/>
<path d="M 387.09 269.03 L 391.29 271.88 L 395.49 274.73 L 399.70 277.59 L 403.92 280.43 L 408.13 283.28 L 412.35 286.11 L 416.57 288.93 L 420.79 291.74 L 425.01 294.53 L 429.22 297.30 L 433.43 300.05 L 437.64 302.78 L 441.84 305.48 L 446.04 308.16 L 450.24 310.80 L 454.42 313.41 L 458.60 315.98 L 462.77 318.52 L 466.94 321.01 L 471.09 323.47 L 475.23 325.88 L 479.37 328.24 L 483.49 330.56 L 487.60 332.82 L 491.70 335.03 L 495.79 337.19 L 499.86 339.29 L 503.92 341.33 L 507.97 343.31 L 512.00 345.23 L 516.02 347.08 L 520.02 348.87 L 524.01 350.59 L 527.98 352.24 L 531.94 353.82 L 535.88 355.32 L 539.81 356.75 L 543.72 358.10 L 547.61 359.38 L 551.49 360.57 L 555.35 361.69 L 559.19 362.71 L 563.02 363.66 L 566.83 364.51 L 570.62 365.28 L 574.40 365.95 L 578.15 366.54 L 581.89 367.02 L 585.60 367.42 L 589.30 367.71 L 592.97 367.90 L 596.63 367.99 L 600.25 367.98 L 603.86 367.86 L 607.43 367.63 L 610.98 367.30 L 614.49 366.86 L 617.97 366.30 L 621.41 365.63 L 624.81 364.85 L 628.17 363.96 L 631.48 362.96 L 634.74 361.84 L 637.95 360.61 L 641.09 359.27 L 644.18 357.82 L 647.21 356.27 L 650.17 354.61 L 653.05 352.85 L 655.87 350.99 L 658.60 349.03 L 661.26 346.98 L 663.84 344.85 L 666.34 342.63 L 668.75 340.32 L 671.08 337.94 L 673.33 335.49 L 675.49 332.97 L 677.56 330.37 L 679.55 327.72 L 681.46 325.01 L 683.28 322.24 L 685.01 319.42 L 686.66 316.54 L 688.23 313.62 L 689.71 310.66 L 691.11 307.65 L 692.44 304.61 L 693.67 301.53 L 694.83 298.42 L 695.91 295.27 L 696.92 292.09 L 697.84 288.89 L 698.69 285.67 L 699.46 282.42 L 700.15 279.15 L 700.76 275.86 L 701.31 272.56 L 701.77 269.24 L 702.16 265.91 L 702.48 262.57 L 702.72 259.23 L 702.89 255.87 L 702.98 252.52 L 703.00 249.16 L 702.94 245.80 L 702.81 242.45 L 702.61 239.10 L 702.33 235.76 L 701.98 232.42 L 701.55 229.10 L 701.04 225.79 L 700.47 222.49 L 699.81 219.21 L 699.08 215.96 L 698.27 212.72 L 697.39 209.50 L 696.43 206.31 L 695.38 203.15 L 694.26 200.02 L 693.07 196.93 L 691.79 193.86 L 690.42 190.84 L 688.98 187.85 L 687.46 184.91 L 685.85 182.01 L 684.16 179.17 L 682.38 176.37 L 680.52 173.63 L 678.57 170.94 L 676.54 168.32 L 674.42 165.76 L 672.22 163.27 L 669.93 160.86 L 667.56 158.51 L 665.10 156.25 L 662.56 154.07 L 659.94 151.98 L 657.24 149.98 L 654.47 148.07 L 651.62 146.26 L 648.70 144.55 L 645.70 142.94 L 642.65 141.44 L 639.53 140.05 L 636.35 138.76 L 633.11 137.59 L 629.83 136.53 L 626.49 135.58 L 623.11 134.74 L 619.69 134.02 L 616.23 133.41 L 612.74 132.91 L 609.21 132.52 L 605.65 132.24 L 602.06 132.07 L 598.44 132.00 L 594.80 132.04 L 591.14 132.18 L 587.45 132.42 L 583.75 132.77 L 580.02 133.21 L 576.28 133.74 L 572.51 134.37 L 568.73 135.09 L 564.93 135.90 L 561.11 136.80 L 557.27 137.79 L 553.42 138.86 L 549.55 140.01 L 545.67 141.25 L 541.76 142.56 L 537.85 143.95 L 533.91 145.42 L 529.96 146.96 L 526.00 148.58 L 522.02 150.26 L 518.02 152.02 L 514.01 153.84 L 509.98 155.72 L 505.94 157.67 L 501.89 159.68 L 497.82 161.75 L 493.74 163.88 L 489.65 166.07 L 485.55 168.30 L 481.43 170.59 L 477.30 172.93 L 473.16 175.32 L 469.01 177.75 L 464.86 180.23 L 460.69 182.75 L 456.51 185.30 L 452.33 187.89 L 448.14 190.52 L 443.94 193.18 L 439.74 195.87 L 435.54 198.58 L 431.33 201.32 L 427.11 204.08 L 422.90 206.87 L 418.68 209.67 L 414.46 212.48 L 410.24 215.31 L 406.03 218.14 L 401.81 220.99 L 397.60 223.84 L 393.39 226.69 L 389.19 229.54 L 384.99 232.39 L 380.79 235.24 L 376.61 238.07 L 372.43 240.90 L 368.27 243.71 L 364.11 246.51 L 359.96 249.29 L 355.83 252.04 L 351.71 254.78 L 347.61 257.49 L 343.52 260.17 L 339.44 262.82 L 335.39 265.44 L 331.35 268.02 L 327.33 270.57 L 323.34 273.07 L 319.36 275.53 L 315.41 277.95 L 311.49 280.32 L 307.59 282.64 L 303.71 284.92 L 299.87 287.13 L 296.05 289.30 L 292.26 291.40 L 288.51 293.45 L 284.79 295.43 L 281.10 297.36 L 277.45 299.22 L 273.83 301.01 L 270.26 302.74 L 266.72 304.39 L 263.22 305.98 L 259.77 307.50 L 256.36 308.94 L 253.00 310.31 L 249.68 311.60 L 246.41 312.82 L 243.19 313.97 L 240.02 315.03 L 236.91 316.02 L 233.84 316.94 L 230.84 317.77 L 227.89 318.53 L 224.99 319.21 L 222.16 319.82 L 219.38 320.35 L 216.67 320.80 L 214.02 321.18 L 211.43 321.49 L 208.91 321.72 L 206.45 321.88 L 204.05 321.97 L 201.72 322.00 L 199.46 321.96 L 197.25 321.85 L 195.11 321.68 L 193.04 321.46 L 191.02 321.17 L 189.06 320.82 L 187.17 320.42 L 185.32 319.97 L 183.54 319.46 L 181.80 318.90 L 180.11 318.28 L 178.47 317.62 L 176.88 316.91 L 175.33 316.15 L 173.81 315.33 L 172.34 314.47 L 170.90 313.56 L 169.49 312.59 L 168.12 311.57 L 166.78 310.50 L 165.47 309.38 L 164.19 308.20 L 162.94 306.96 L 161.72 305.67 L 160.53 304.33 L 159.37 302.92 L 158.24 301.46 L 157.14 299.95 L 156.07 298.38 L 155.04 296.75 L 154.04 295.07 L 153.08 293.34 L 152.15 291.55 L 151.26 289.72 L 150.42 287.83 L 149.61 285.90 L 148.84 283.93 L 148.12 281.91 L 147.44 279.85 L 146.81 277.75 L 146.22 275.61 L 145.68 273.45 L 145.19 271.25 L 144.75 269.03 L 144.35 266.78 L 144.01 264.51 L 143.71 262.22 L 143.47 259.91 L 143.27 257.59 L 143.13 255.26 L 143.04 252.93 L 143.00 250.59 L 143.01 248.24 L 143.08 245.91 L 143.20 243.57 L 143.36 241.25 L 143.58 238.94 L 143.85 236.64 L 144.17 234.36 L 144.54 232.10 L 144.96 229.86 L 145.43 227.65 L 145.95 225.46 L 146.51 223.31 L 147.12 221.20 L 147.78 219.12 L 148.48 217.08 L 149.22 215.08 L 150.01 213.13 L 150.84 211.22 L 151.70 209.36 L 152.61 207.55 L 153.55 205.79 L 154.53 204.08 L 155.55 202.43 L 156.60 200.83 L 157.68 199.29 L 158.80 197.80 L 159.94 196.37 L 161.12 194.99 L 162.33 193.68 L 163.56 192.41 L 164.83 191.21 L 166.12 190.05 L 167.45 188.96 L 168.80 187.91 L 170.19 186.92 L 171.61 185.98 L 173.07 185.09 L 174.56 184.25 L 176.10 183.47 L 177.67 182.73 L 179.29 182.04 L 180.95 181.40 L 182.66 180.82 L 184.42 180.28 L 186.24 179.80 L 188.11 179.37 L 190.03 179.00 L 192.02 178.68 L 194.07 178.42 L 196.17 178.22 L 198.35 178.09 L 200.58 178.01 L 202.88 178.00 L 205.24 178.06 L 207.67 178.19 L 210.16 178.39 L 212.72 178.66 L 215.34 179.00 L 218.02 179.42 L 220.76 179.91 L 223.57 180.47 L 226.43 181.12 L 229.35 181.84 L 232.33 182.63 L 235.37 183.51 L 238.46 184.46 L 241.60 185.49 L 244.80 186.60 L 248.04 187.78 L 251.33 189.03 L 254.67 190.37 L 258.06 191.77 L 261.49 193.25 L 264.97 194.80 L 268.48 196.43 L 272.04 198.12 L 275.64 199.88 L 279.27 201.70 L 282.94 203.60 L 286.64 205.55 L 290.38 207.57 L 294.15 209.64 L 297.95 211.78 L 301.78 213.97 L 305.64 216.21 L 309.53 218.51 L 313.45 220.86 L 317.38 223.25 L 321.35 225.69 L 325.33 228.18 L 329.34 230.70 L 333.37 233.27 L 337.41 235.87 L 341.48 238.50 L 345.56 241.17 L 349.66 243.86 L 353.77 246.59 L 357.90 249.33 L 362.03 252.10 L 366.19 254.89 L 370.35 257.69 L 374.52 260.51 L 378.70 263.35 L 382.89 266.19 L 387.09 269.03" fill="none" stroke="#F5F7FA" stroke-width="7.5" stroke-linecap="round" stroke-linejoin="round" opacity="0.92"/>
<path d="M 378.66 281.44 L 382.87 284.30 L 387.08 287.15 L 391.30 290.01 L 395.53 292.87 L 399.76 295.72 L 404.00 298.57 L 408.24 301.41 L 412.49 304.23 L 416.74 307.05 L 421.00 309.85 L 425.25 312.62 L 429.51 315.38 L 433.76 318.12 L 438.02 320.83 L 442.27 323.51 L 446.52 326.16 L 450.77 328.78 L 455.02 331.36 L 459.26 333.90 L 463.50 336.41 L 467.74 338.87 L 471.97 341.29 L 476.20 343.67 L 480.42 345.99 L 484.64 348.27 L 488.85 350.49 L 493.05 352.66 L 497.25 354.77 L 501.45 356.82 L 505.63 358.81 L 509.82 360.74 L 513.99 362.60 L 518.16 364.40 L 522.33 366.13 L 526.48 367.79 L 530.64 369.38 L 534.79 370.89 L 538.93 372.32 L 543.07 373.67 L 547.20 374.95 L 551.33 376.14 L 555.46 377.24 L 559.58 378.26 L 563.70 379.18 L 567.81 380.01 L 571.92 380.75 L 576.03 381.39 L 580.13 381.92 L 584.22 382.35 L 588.31 382.68 L 592.39 382.89 L 596.47 382.99 L 600.53 382.98 L 604.57 382.84 L 608.61 382.59 L 612.62 382.21 L 616.61 381.71 L 620.58 381.07 L 624.51 380.31 L 628.41 379.41 L 632.27 378.39 L 636.09 377.23 L 639.85 375.94 L 643.56 374.52 L 647.21 372.97 L 650.80 371.29 L 654.31 369.48 L 657.74 367.55 L 661.10 365.51 L 664.36 363.35 L 667.54 361.08 L 670.62 358.70 L 673.61 356.23 L 676.50 353.66 L 679.29 351.00 L 681.98 348.25 L 684.56 345.43 L 687.04 342.53 L 689.42 339.56 L 691.70 336.53 L 693.87 333.43 L 695.94 330.28 L 697.91 327.08 L 699.78 323.83 L 701.55 320.53 L 703.22 317.19 L 704.79 313.81 L 706.28 310.39 L 707.66 306.95 L 708.96 303.47 L 710.16 299.96 L 711.28 296.43 L 712.30 292.87 L 713.24 289.30 L 714.09 285.70 L 714.86 282.08 L 715.54 278.46 L 716.14 274.81 L 716.65 271.16 L 717.08 267.49 L 717.43 263.82 L 717.69 260.14 L 717.88 256.45 L 717.98 252.77 L 718.00 249.08 L 717.94 245.39 L 717.79 241.70 L 717.57 238.02 L 717.26 234.34 L 716.87 230.67 L 716.40 227.01 L 715.85 223.36 L 715.21 219.73 L 714.49 216.11 L 713.68 212.50 L 712.78 208.91 L 711.80 205.35 L 710.73 201.80 L 709.57 198.28 L 708.32 194.79 L 706.98 191.33 L 705.55 187.89 L 704.02 184.50 L 702.39 181.14 L 700.67 177.82 L 698.85 174.54 L 696.94 171.31 L 694.92 168.14 L 692.80 165.01 L 690.57 161.95 L 688.25 158.95 L 685.82 156.01 L 683.28 153.15 L 680.65 150.36 L 677.91 147.66 L 675.07 145.04 L 672.13 142.52 L 669.09 140.10 L 665.96 137.77 L 662.74 135.56 L 659.43 133.45 L 656.04 131.47 L 652.56 129.60 L 649.01 127.86 L 645.40 126.24 L 641.72 124.76 L 637.98 123.40 L 634.19 122.17 L 630.35 121.08 L 626.47 120.12 L 622.55 119.29 L 618.60 118.60 L 614.62 118.03 L 610.62 117.58 L 606.59 117.27 L 602.55 117.07 L 598.50 117.00 L 594.43 117.04 L 590.35 117.20 L 586.27 117.47 L 582.18 117.85 L 578.08 118.33 L 573.98 118.92 L 569.87 119.61 L 565.76 120.39 L 561.64 121.27 L 557.52 122.24 L 553.40 123.30 L 549.27 124.45 L 545.14 125.68 L 541.00 126.99 L 536.86 128.39 L 532.71 129.86 L 528.56 131.41 L 524.41 133.03 L 520.24 134.72 L 516.08 136.49 L 511.90 138.32 L 507.73 140.22 L 503.54 142.18 L 499.35 144.20 L 495.15 146.28 L 490.95 148.42 L 486.74 150.62 L 482.53 152.87 L 478.31 155.17 L 474.09 157.52 L 469.86 159.91 L 465.62 162.35 L 461.38 164.84 L 457.14 167.36 L 452.90 169.93 L 448.65 172.53 L 444.40 175.16 L 440.14 177.83 L 435.89 180.52 L 431.63 183.25 L 427.38 185.99 L 423.12 188.76 L 418.87 191.55 L 414.62 194.36 L 410.37 197.18 L 406.12 200.01 L 401.88 202.86 L 397.64 205.71 L 393.41 208.56 L 389.19 211.42 L 384.97 214.28 L 380.76 217.13 L 376.56 219.98 L 372.38 222.82 L 368.20 225.65 L 364.03 228.47 L 359.88 231.27 L 355.75 234.05 L 351.62 236.82 L 347.52 239.56 L 343.43 242.27 L 339.36 244.96 L 335.31 247.61 L 331.28 250.23 L 327.28 252.82 L 323.29 255.37 L 319.33 257.88 L 315.40 260.34 L 311.50 262.76 L 307.62 265.13 L 303.77 267.46 L 299.95 269.73 L 296.17 271.95 L 292.42 274.11 L 288.70 276.22 L 285.03 278.26 L 281.39 280.25 L 277.79 282.17 L 274.23 284.03 L 270.71 285.82 L 267.24 287.54 L 263.81 289.19 L 260.44 290.77 L 257.11 292.28 L 253.83 293.72 L 250.61 295.09 L 247.44 296.38 L 244.33 297.59 L 241.28 298.73 L 238.29 299.79 L 235.36 300.78 L 232.49 301.69 L 229.69 302.52 L 226.96 303.28 L 224.30 303.97 L 221.71 304.58 L 219.19 305.12 L 216.74 305.58 L 214.37 305.98 L 212.08 306.31 L 209.86 306.57 L 207.72 306.77 L 205.66 306.90 L 203.68 306.98 L 201.78 307.00 L 199.95 306.97 L 198.20 306.88 L 196.52 306.75 L 194.92 306.57 L 193.38 306.36 L 191.92 306.10 L 190.52 305.80 L 189.18 305.47 L 187.89 305.10 L 186.66 304.71 L 185.48 304.28 L 184.34 303.82 L 183.25 303.33 L 182.18 302.81 L 181.15 302.25 L 180.15 301.67 L 179.17 301.04 L 178.21 300.39 L 177.27 299.69 L 176.35 298.95 L 175.44 298.17 L 174.54 297.34 L 173.66 296.47 L 172.79 295.55 L 171.92 294.57 L 171.07 293.55 L 170.24 292.47 L 169.42 291.33 L 168.61 290.14 L 167.82 288.90 L 167.05 287.60 L 166.29 286.25 L 165.56 284.84 L 164.86 283.38 L 164.18 281.86 L 163.52 280.30 L 162.90 278.69 L 162.31 277.03 L 161.75 275.33 L 161.22 273.59 L 160.73 271.81 L 160.28 269.99 L 159.86 268.14 L 159.49 266.26 L 159.15 264.35 L 158.86 262.42 L 158.61 260.47 L 158.40 258.50 L 158.23 256.51 L 158.11 254.51 L 158.03 252.51 L 158.00 250.50 L 158.01 248.49 L 158.07 246.49 L 158.17 244.49 L 158.31 242.49 L 158.50 240.52 L 158.73 238.55 L 159.00 236.61 L 159.32 234.69 L 159.67 232.79 L 160.07 230.93 L 160.50 229.09 L 160.97 227.29 L 161.48 225.53 L 162.02 223.81 L 162.60 222.13 L 163.21 220.50 L 163.85 218.91 L 164.51 217.37 L 165.21 215.89 L 165.93 214.45 L 166.67 213.07 L 167.43 211.74 L 168.21 210.47 L 169.01 209.25 L 169.83 208.09 L 170.65 206.99 L 171.50 205.93 L 172.35 204.93 L 173.22 203.99 L 174.10 203.09 L 174.99 202.24 L 175.89 201.43 L 176.81 200.68 L 177.74 199.96 L 178.69 199.28 L 179.66 198.64 L 180.65 198.04 L 181.66 197.47 L 182.71 196.93 L 183.79 196.42 L 184.91 195.95 L 186.07 195.50 L 187.27 195.09 L 188.53 194.71 L 189.84 194.36 L 191.21 194.05 L 192.64 193.77 L 194.14 193.53 L 195.71 193.33 L 197.35 193.18 L 199.06 193.07 L 200.85 193.01 L 202.72 193.00 L 204.66 193.05 L 206.68 193.16 L 208.78 193.33 L 210.96 193.55 L 213.22 193.85 L 215.55 194.21 L 217.95 194.64 L 220.44 195.14 L 222.99 195.72 L 225.62 196.37 L 228.32 197.09 L 231.08 197.88 L 233.92 198.76 L 236.81 199.71 L 239.77 200.73 L 242.80 201.83 L 245.88 203.01 L 249.02 204.26 L 252.21 205.59 L 255.46 206.99 L 258.77 208.46 L 262.12 210.01 L 265.52 211.63 L 268.97 213.31 L 272.46 215.07 L 276.00 216.89 L 279.58 218.78 L 283.20 220.74 L 286.86 222.75 L 290.56 224.83 L 294.29 226.96 L 298.06 229.15 L 301.86 231.40 L 305.69 233.70 L 309.55 236.05 L 313.45 238.44 L 317.37 240.89 L 321.31 243.37 L 325.28 245.90 L 329.28 248.47 L 333.29 251.07 L 337.33 253.71 L 341.39 256.38 L 345.47 259.08 L 349.57 261.81 L 353.68 264.56 L 357.81 267.34 L 361.96 270.13 L 366.12 272.94 L 370.29 275.76 L 374.47 278.60 L 378.66 281.44" fill="none" stroke="#F5F7FA" stroke-width="7.5" stroke-linecap="round" stroke-linejoin="round" opacity="0.92"/>
<path d="M 481.34 241.70 L 479.87 242.62 L 478.40 243.55 L 476.93 244.49 L 475.46 245.43 L 473.98 246.38 L 472.49 247.33 L 471.01 248.29 L 469.52 249.25 L 468.03 250.21 L 466.53 251.19 L 465.03 252.16 L 463.53 253.14 L 462.03 254.13 L 460.52 255.12 L 459.01 256.12 L 457.50 257.11 L 455.99 258.12 L 454.47 259.12 L 452.95 260.13 L 451.43 261.15 L 449.90 262.16 L 448.38 263.18 L 446.85 264.21 L 445.31 265.23 L 443.78 266.26 L 442.25 267.30 L 440.71 268.33 L 439.17 269.37 L 437.63 270.41 L 436.08 271.45 L 434.54 272.50 L 432.99 273.54 L 431.44 274.59 L 429.89 275.64 L 428.34 276.69 L 426.79 277.75 L 425.23 278.80 L 423.67 279.86 L 422.12 280.92 L 420.56 281.97 L 419.00 283.03 L 417.43 284.09 L 415.87 285.15 L 414.31 286.21 L 412.74 287.27 L 411.17 288.34 L 409.61 289.40 L 408.04 290.46 L 406.47 291.52 L 404.90 292.58 L 403.32 293.64 L 401.75 294.70 L 400.18 295.76 L 398.61 296.82 L 397.03 297.88 L 395.46 298.93 L 393.88 299.99 L 392.30 301.04 L 390.73 302.09 L 389.15 303.14 L 387.57 304.19 L 385.99 305.24 L 384.41 306.28 L 382.83 307.33 L 381.25 308.37 L 379.67 309.41 L 378.09 310.44 L 376.51 311.47 L 374.93 312.50 L 373.35 313.53 L 371.77 314.56 L 370.19 315.58 L 368.61 316.60 L 367.03 317.61 L 365.45 318.62 L 363.87 319.63 L 362.29 320.63 L 360.71 321.63 L 359.13 322.63" fill="none" stroke="#0A0E17" stroke-width="14.5" stroke-linecap="round" stroke-linejoin="round" opacity="0.94"/>
<path d="M 481.34 241.70 L 479.87 242.62 L 478.40 243.55 L 476.93 244.49 L 475.46 245.43 L 473.98 246.38 L 472.49 247.33 L 471.01 248.29 L 469.52 249.25 L 468.03 250.21 L 466.53 251.19 L 465.03 252.16 L 463.53 253.14 L 462.03 254.13 L 460.52 255.12 L 459.01 256.12 L 457.50 257.11 L 455.99 258.12 L 454.47 259.12 L 452.95 260.13 L 451.43 261.15 L 449.90 262.16 L 448.38 263.18 L 446.85 264.21 L 445.31 265.23 L 443.78 266.26 L 442.25 267.30 L 440.71 268.33 L 439.17 269.37 L 437.63 270.41 L 436.08 271.45 L 434.54 272.50 L 432.99 273.54 L 431.44 274.59 L 429.89 275.64 L 428.34 276.69 L 426.79 277.75 L 425.23 278.80 L 423.67 279.86 L 422.12 280.92 L 420.56 281.97 L 419.00 283.03 L 417.43 284.09 L 415.87 285.15 L 414.31 286.21 L 412.74 287.27 L 411.17 288.34 L 409.61 289.40 L 408.04 290.46 L 406.47 291.52 L 404.90 292.58 L 403.32 293.64 L 401.75 294.70 L 400.18 295.76 L 398.61 296.82 L 397.03 297.88 L 395.46 298.93 L 393.88 299.99 L 392.30 301.04 L 390.73 302.09 L 389.15 303.14 L 387.57 304.19 L 385.99 305.24 L 384.41 306.28 L 382.83 307.33 L 381.25 308.37 L 379.67 309.41 L 378.09 310.44 L 376.51 311.47 L 374.93 312.50 L 373.35 313.53 L 371.77 314.56 L 370.19 315.58 L 368.61 316.60 L 367.03 317.61 L 365.45 318.62 L 363.87 319.63 L 362.29 320.63 L 360.71 321.63 L 359.13 322.63" fill="none" stroke="#F5F7FA" stroke-width="7.5" stroke-linecap="round" stroke-linejoin="round" opacity="1"/>
<path d="M 473.35 229.00 L 471.86 229.94 L 470.37 230.89 L 468.88 231.83 L 467.38 232.79 L 465.88 233.75 L 464.38 234.71 L 462.88 235.68 L 461.37 236.65 L 459.86 237.63 L 458.35 238.62 L 456.83 239.60 L 455.32 240.59 L 453.80 241.59 L 452.28 242.59 L 450.75 243.59 L 449.23 244.60 L 447.70 245.61 L 446.17 246.63 L 444.64 247.64 L 443.11 248.66 L 441.57 249.69 L 440.04 250.72 L 438.50 251.75 L 436.96 252.78 L 435.42 253.81 L 433.87 254.85 L 432.33 255.89 L 430.78 256.93 L 429.23 257.98 L 427.69 259.02 L 426.14 260.07 L 424.58 261.12 L 423.03 262.17 L 421.48 263.22 L 419.92 264.28 L 418.37 265.33 L 416.81 266.39 L 415.25 267.45 L 413.69 268.50 L 412.13 269.56 L 410.57 270.62 L 409.01 271.68 L 407.45 272.74 L 405.89 273.80 L 404.33 274.86 L 402.76 275.92 L 401.20 276.98 L 399.63 278.03 L 398.07 279.09 L 396.50 280.15 L 394.94 281.21 L 393.37 282.26 L 391.81 283.32 L 390.24 284.37 L 388.67 285.42 L 387.11 286.47 L 385.54 287.52 L 383.97 288.57 L 382.41 289.61 L 380.84 290.65 L 379.27 291.70 L 377.71 292.73 L 376.14 293.77 L 374.57 294.81 L 373.01 295.84 L 371.44 296.87 L 369.88 297.89 L 368.31 298.91 L 366.75 299.93 L 365.19 300.95 L 363.62 301.96 L 362.06 302.97 L 360.50 303.98 L 358.94 304.98 L 357.38 305.98 L 355.82 306.97 L 354.26 307.96 L 352.70 308.95 L 351.14 309.93" fill="none" stroke="#0A0E17" stroke-width="14.5" stroke-linecap="round" stroke-linejoin="round" opacity="0.94"/>
<path d="M 473.35 229.00 L 471.86 229.94 L 470.37 230.89 L 468.88 231.83 L 467.38 232.79 L 465.88 233.75 L 464.38 234.71 L 462.88 235.68 L 461.37 236.65 L 459.86 237.63 L 458.35 238.62 L 456.83 239.60 L 455.32 240.59 L 453.80 241.59 L 452.28 242.59 L 450.75 243.59 L 449.23 244.60 L 447.70 245.61 L 446.17 246.63 L 444.64 247.64 L 443.11 248.66 L 441.57 249.69 L 440.04 250.72 L 438.50 251.75 L 436.96 252.78 L 435.42 253.81 L 433.87 254.85 L 432.33 255.89 L 430.78 256.93 L 429.23 257.98 L 427.69 259.02 L 426.14 260.07 L 424.58 261.12 L 423.03 262.17 L 421.48 263.22 L 419.92 264.28 L 418.37 265.33 L 416.81 266.39 L 415.25 267.45 L 413.69 268.50 L 412.13 269.56 L 410.57 270.62 L 409.01 271.68 L 407.45 272.74 L 405.89 273.80 L 404.33 274.86 L 402.76 275.92 L 401.20 276.98 L 399.63 278.03 L 398.07 279.09 L 396.50 280.15 L 394.94 281.21 L 393.37 282.26 L 391.81 283.32 L 390.24 284.37 L 388.67 285.42 L 387.11 286.47 L 385.54 287.52 L 383.97 288.57 L 382.41 289.61 L 380.84 290.65 L 379.27 291.70 L 377.71 292.73 L 376.14 293.77 L 374.57 294.81 L 373.01 295.84 L 371.44 296.87 L 369.88 297.89 L 368.31 298.91 L 366.75 299.93 L 365.19 300.95 L 363.62 301.96 L 362.06 302.97 L 360.50 303.98 L 358.94 304.98 L 357.38 305.98 L 355.82 306.97 L 354.26 307.96 L 352.70 308.95 L 351.14 309.93" fill="none" stroke="#F5F7FA" stroke-width="7.5" stroke-linecap="round" stroke-linejoin="round" opacity="1"/>
<path d="M 465.36 216.31 L 463.85 217.26 L 462.34 218.22 L 460.83 219.18 L 459.31 220.15 L 457.79 221.12 L 456.27 222.10 L 454.74 223.08 L 453.22 224.06 L 451.69 225.05 L 450.16 226.05 L 448.63 227.04 L 447.10 228.05 L 445.57 229.05 L 444.03 230.06 L 442.49 231.07 L 440.96 232.09 L 439.42 233.11 L 437.87 234.13 L 436.33 235.16 L 434.79 236.18 L 433.24 237.21 L 431.70 238.25 L 430.15 239.28 L 428.60 240.32 L 427.05 241.36 L 425.50 242.41 L 423.95 243.45 L 422.39 244.50 L 420.84 245.54 L 419.29 246.59 L 417.73 247.65 L 416.18 248.70 L 414.62 249.75 L 413.06 250.81 L 411.51 251.86 L 409.95 252.92 L 408.39 253.98 L 406.83 255.03 L 405.27 256.09 L 403.71 257.15 L 402.15 258.21 L 400.59 259.27 L 399.03 260.32 L 397.47 261.38 L 395.91 262.44 L 394.35 263.50 L 392.79 264.55 L 391.23 265.61 L 389.67 266.66 L 388.11 267.72 L 386.55 268.77 L 384.99 269.82 L 383.43 270.87 L 381.87 271.92 L 380.32 272.96 L 378.76 274.01 L 377.20 275.05 L 375.64 276.09 L 374.09 277.13 L 372.53 278.17 L 370.98 279.20 L 369.42 280.23 L 367.87 281.26 L 366.32 282.28 L 364.76 283.31 L 363.21 284.33 L 361.66 285.34 L 360.11 286.35 L 358.57 287.36 L 357.02 288.37 L 355.47 289.37 L 353.93 290.37 L 352.39 291.36 L 350.84 292.35 L 349.30 293.34 L 347.76 294.32 L 346.23 295.30 L 344.69 296.27 L 343.16 297.24" fill="none" stroke="#0A0E17" stroke-width="14.5" stroke-linecap="round" stroke-linejoin="round" opacity="0.94"/>
<path d="M 465.36 216.31 L 463.85 217.26 L 462.34 218.22 L 460.83 219.18 L 459.31 220.15 L 457.79 221.12 L 456.27 222.10 L 454.74 223.08 L 453.22 224.06 L 451.69 225.05 L 450.16 226.05 L 448.63 227.04 L 447.10 228.05 L 445.57 229.05 L 444.03 230.06 L 442.49 231.07 L 440.96 232.09 L 439.42 233.11 L 437.87 234.13 L 436.33 235.16 L 434.79 236.18 L 433.24 237.21 L 431.70 238.25 L 430.15 239.28 L 428.60 240.32 L 427.05 241.36 L 425.50 242.41 L 423.95 243.45 L 422.39 244.50 L 420.84 245.54 L 419.29 246.59 L 417.73 247.65 L 416.18 248.70 L 414.62 249.75 L 413.06 250.81 L 411.51 251.86 L 409.95 252.92 L 408.39 253.98 L 406.83 255.03 L 405.27 256.09 L 403.71 257.15 L 402.15 258.21 L 400.59 259.27 L 399.03 260.32 L 397.47 261.38 L 395.91 262.44 L 394.35 263.50 L 392.79 264.55 L 391.23 265.61 L 389.67 266.66 L 388.11 267.72 L 386.55 268.77 L 384.99 269.82 L 383.43 270.87 L 381.87 271.92 L 380.32 272.96 L 378.76 274.01 L 377.20 275.05 L 375.64 276.09 L 374.09 277.13 L 372.53 278.17 L 370.98 279.20 L 369.42 280.23 L 367.87 281.26 L 366.32 282.28 L 364.76 283.31 L 363.21 284.33 L 361.66 285.34 L 360.11 286.35 L 358.57 287.36 L 357.02 288.37 L 355.47 289.37 L 353.93 290.37 L 352.39 291.36 L 350.84 292.35 L 349.30 293.34 L 347.76 294.32 L 346.23 295.30 L 344.69 296.27 L 343.16 297.24" fill="none" stroke="#F5F7FA" stroke-width="7.5" stroke-linecap="round" stroke-linejoin="round" opacity="1"/>
<path d="M 456.84 202.76 L 455.31 203.73 L 453.77 204.70 L 452.24 205.68 L 450.70 206.66 L 449.16 207.65 L 447.61 208.64 L 446.07 209.63 L 444.53 210.63 L 442.98 211.63 L 441.43 212.64 L 439.89 213.65 L 438.34 214.66 L 436.79 215.67 L 435.24 216.69 L 433.68 217.72 L 432.13 218.74 L 430.58 219.77 L 429.02 220.80 L 427.47 221.83 L 425.91 222.87 L 424.36 223.91 L 422.80 224.95 L 421.24 225.99 L 419.68 227.04 L 418.13 228.08 L 416.57 229.13 L 415.01 230.18 L 413.45 231.23 L 411.89 232.28 L 410.33 233.34 L 408.77 234.39 L 407.21 235.45 L 405.65 236.50 L 404.09 237.56 L 402.53 238.62 L 400.97 239.68 L 399.41 240.73 L 397.85 241.79 L 396.29 242.85 L 394.73 243.91 L 393.17 244.97 L 391.61 246.02 L 390.05 247.08 L 388.49 248.14 L 386.94 249.19 L 385.38 250.25 L 383.82 251.30 L 382.27 252.35 L 380.71 253.41 L 379.16 254.46 L 377.61 255.50 L 376.05 256.55 L 374.50 257.59 L 372.95 258.64 L 371.40 259.68 L 369.85 260.72 L 368.30 261.75 L 366.76 262.79 L 365.21 263.82 L 363.67 264.84 L 362.13 265.87 L 360.58 266.89 L 359.04 267.91 L 357.51 268.93 L 355.97 269.94 L 354.43 270.95 L 352.90 271.95 L 351.37 272.96 L 349.84 273.95 L 348.31 274.95 L 346.78 275.94 L 345.26 276.92 L 343.73 277.90 L 342.21 278.88 L 340.69 279.85 L 339.17 280.82 L 337.66 281.78 L 336.15 282.74 L 334.64 283.69" fill="none" stroke="#0A0E17" stroke-width="14.5" stroke-linecap="round" stroke-linejoin="round" opacity="0.94"/>
<path d="M 456.84 202.76 L 455.31 203.73 L 453.77 204.70 L 452.24 205.68 L 450.70 206.66 L 449.16 207.65 L 447.61 208.64 L 446.07 209.63 L 444.53 210.63 L 442.98 211.63 L 441.43 212.64 L 439.89 213.65 L 438.34 214.66 L 436.79 215.67 L 435.24 216.69 L 433.68 217.72 L 432.13 218.74 L 430.58 219.77 L 429.02 220.80 L 427.47 221.83 L 425.91 222.87 L 424.36 223.91 L 422.80 224.95 L 421.24 225.99 L 419.68 227.04 L 418.13 228.08 L 416.57 229.13 L 415.01 230.18 L 413.45 231.23 L 411.89 232.28 L 410.33 233.34 L 408.77 234.39 L 407.21 235.45 L 405.65 236.50 L 404.09 237.56 L 402.53 238.62 L 400.97 239.68 L 399.41 240.73 L 397.85 241.79 L 396.29 242.85 L 394.73 243.91 L 393.17 244.97 L 391.61 246.02 L 390.05 247.08 L 388.49 248.14 L 386.94 249.19 L 385.38 250.25 L 383.82 251.30 L 382.27 252.35 L 380.71 253.41 L 379.16 254.46 L 377.61 255.50 L 376.05 256.55 L 374.50 257.59 L 372.95 258.64 L 371.40 259.68 L 369.85 260.72 L 368.30 261.75 L 366.76 262.79 L 365.21 263.82 L 363.67 264.84 L 362.13 265.87 L 360.58 266.89 L 359.04 267.91 L 357.51 268.93 L 355.97 269.94 L 354.43 270.95 L 352.90 271.95 L 351.37 272.96 L 349.84 273.95 L 348.31 274.95 L 346.78 275.94 L 345.26 276.92 L 343.73 277.90 L 342.21 278.88 L 340.69 279.85 L 339.17 280.82 L 337.66 281.78 L 336.15 282.74 L 334.64 283.69" fill="none" stroke="#F5F7FA" stroke-width="7.5" stroke-linecap="round" stroke-linejoin="round" opacity="1"/>
<path d="M 448.86 190.07 L 447.30 191.05 L 445.74 192.04 L 444.18 193.03 L 442.62 194.02 L 441.06 195.02 L 439.50 196.02 L 437.94 197.03 L 436.38 198.04 L 434.81 199.05 L 433.25 200.07 L 431.69 201.09 L 430.12 202.11 L 428.56 203.13 L 426.99 204.16 L 425.43 205.19 L 423.86 206.23 L 422.29 207.27 L 420.73 208.30 L 419.16 209.35 L 417.59 210.39 L 416.03 211.43 L 414.46 212.48 L 412.89 213.53 L 411.33 214.58 L 409.76 215.63 L 408.19 216.68 L 406.63 217.74 L 405.06 218.79 L 403.50 219.85 L 401.93 220.91 L 400.37 221.97 L 398.80 223.02 L 397.24 224.08 L 395.67 225.14 L 394.11 226.20 L 392.55 227.26 L 390.99 228.32 L 389.43 229.38 L 387.87 230.44 L 386.31 231.50 L 384.75 232.55 L 383.19 233.61 L 381.63 234.67 L 380.08 235.72 L 378.52 236.78 L 376.97 237.83 L 375.42 238.88 L 373.86 239.93 L 372.31 240.98 L 370.77 242.02 L 369.22 243.07 L 367.67 244.11 L 366.13 245.15 L 364.58 246.19 L 363.04 247.22 L 361.50 248.25 L 359.96 249.28 L 358.43 250.31 L 356.89 251.34 L 355.36 252.36 L 353.83 253.37 L 352.30 254.39 L 350.77 255.40 L 349.25 256.41 L 347.72 257.41 L 346.20 258.41 L 344.68 259.41 L 343.17 260.40 L 341.65 261.38 L 340.14 262.37 L 338.63 263.35 L 337.12 264.32 L 335.62 265.29 L 334.12 266.25 L 332.62 267.21 L 331.12 268.17 L 329.63 269.11 L 328.14 270.06 L 326.65 271.00" fill="none" stroke="#0A0E17" stroke-width="14.5" stroke-linecap="round" stroke-linejoin="round" opacity="0.94"/>
<path d="M 448.86 190.07 L 447.30 191.05 L 445.74 192.04 L 444.18 193.03 L 442.62 194.02 L 441.06 195.02 L 439.50 196.02 L 437.94 197.03 L 436.38 198.04 L 434.81 199.05 L 433.25 200.07 L 431.69 201.09 L 430.12 202.11 L 428.56 203.13 L 426.99 204.16 L 425.43 205.19 L 423.86 206.23 L 422.29 207.27 L 420.73 208.30 L 419.16 209.35 L 417.59 210.39 L 416.03 211.43 L 414.46 212.48 L 412.89 213.53 L 411.33 214.58 L 409.76 215.63 L 408.19 216.68 L 406.63 217.74 L 405.06 218.79 L 403.50 219.85 L 401.93 220.91 L 400.37 221.97 L 398.80 223.02 L 397.24 224.08 L 395.67 225.14 L 394.11 226.20 L 392.55 227.26 L 390.99 228.32 L 389.43 229.38 L 387.87 230.44 L 386.31 231.50 L 384.75 232.55 L 383.19 233.61 L 381.63 234.67 L 380.08 235.72 L 378.52 236.78 L 376.97 237.83 L 375.42 238.88 L 373.86 239.93 L 372.31 240.98 L 370.77 242.02 L 369.22 243.07 L 367.67 244.11 L 366.13 245.15 L 364.58 246.19 L 363.04 247.22 L 361.50 248.25 L 359.96 249.28 L 358.43 250.31 L 356.89 251.34 L 355.36 252.36 L 353.83 253.37 L 352.30 254.39 L 350.77 255.40 L 349.25 256.41 L 347.72 257.41 L 346.20 258.41 L 344.68 259.41 L 343.17 260.40 L 341.65 261.38 L 340.14 262.37 L 338.63 263.35 L 337.12 264.32 L 335.62 265.29 L 334.12 266.25 L 332.62 267.21 L 331.12 268.17 L 329.63 269.11 L 328.14 270.06 L 326.65 271.00" fill="none" stroke="#F5F7FA" stroke-width="7.5" stroke-linecap="round" stroke-linejoin="round" opacity="1"/>
<path d="M 440.87 177.37 L 439.29 178.37 L 437.71 179.37 L 436.13 180.37 L 434.55 181.38 L 432.97 182.39 L 431.39 183.40 L 429.81 184.42 L 428.23 185.44 L 426.65 186.47 L 425.07 187.50 L 423.49 188.53 L 421.91 189.56 L 420.33 190.59 L 418.75 191.63 L 417.17 192.67 L 415.59 193.72 L 414.01 194.76 L 412.43 195.81 L 410.85 196.86 L 409.27 197.91 L 407.70 198.96 L 406.12 200.01 L 404.54 201.07 L 402.97 202.12 L 401.39 203.18 L 399.82 204.24 L 398.25 205.30 L 396.68 206.36 L 395.10 207.42 L 393.53 208.48 L 391.96 209.54 L 390.39 210.60 L 388.83 211.66 L 387.26 212.73 L 385.69 213.79 L 384.13 214.85 L 382.57 215.91 L 381.00 216.97 L 379.44 218.03 L 377.88 219.08 L 376.33 220.14 L 374.77 221.20 L 373.21 222.25 L 371.66 223.31 L 370.11 224.36 L 368.56 225.41 L 367.01 226.46 L 365.46 227.50 L 363.92 228.55 L 362.37 229.59 L 360.83 230.63 L 359.29 231.67 L 357.75 232.70 L 356.22 233.74 L 354.69 234.77 L 353.15 235.79 L 351.62 236.82 L 350.10 237.84 L 348.57 238.85 L 347.05 239.87 L 345.53 240.88 L 344.01 241.88 L 342.50 242.89 L 340.99 243.88 L 339.48 244.88 L 337.97 245.87 L 336.47 246.86 L 334.97 247.84 L 333.47 248.81 L 331.97 249.79 L 330.48 250.75 L 328.99 251.71 L 327.51 252.67 L 326.02 253.62 L 324.54 254.57 L 323.07 255.51 L 321.60 256.45 L 320.13 257.38 L 318.66 258.30" fill="none" stroke="#0A0E17" stroke-width="14.5" stroke-linecap="round" stroke-linejoin="round" opacity="0.94"/>
<path d="M 440.87 177.37 L 439.29 178.37 L 437.71 179.37 L 436.13 180.37 L 434.55 181.38 L 432.97 182.39 L 431.39 183.40 L 429.81 184.42 L 428.23 185.44 L 426.65 186.47 L 425.07 187.50 L 423.49 188.53 L 421.91 189.56 L 420.33 190.59 L 418.75 191.63 L 417.17 192.67 L 415.59 193.72 L 414.01 194.76 L 412.43 195.81 L 410.85 196.86 L 409.27 197.91 L 407.70 198.96 L 406.12 200.01 L 404.54 201.07 L 402.97 202.12 L 401.39 203.18 L 399.82 204.24 L 398.25 205.30 L 396.68 206.36 L 395.10 207.42 L 393.53 208.48 L 391.96 209.54 L 390.39 210.60 L 388.83 211.66 L 387.26 212.73 L 385.69 213.79 L 384.13 214.85 L 382.57 215.91 L 381.00 216.97 L 379.44 218.03 L 377.88 219.08 L 376.33 220.14 L 374.77 221.20 L 373.21 222.25 L 371.66 223.31 L 370.11 224.36 L 368.56 225.41 L 367.01 226.46 L 365.46 227.50 L 363.92 228.55 L 362.37 229.59 L 360.83 230.63 L 359.29 231.67 L 357.75 232.70 L 356.22 233.74 L 354.69 234.77 L 353.15 235.79 L 351.62 236.82 L 350.10 237.84 L 348.57 238.85 L 347.05 239.87 L 345.53 240.88 L 344.01 241.88 L 342.50 242.89 L 340.99 243.88 L 339.48 244.88 L 337.97 245.87 L 336.47 246.86 L 334.97 247.84 L 333.47 248.81 L 331.97 249.79 L 330.48 250.75 L 328.99 251.71 L 327.51 252.67 L 326.02 253.62 L 324.54 254.57 L 323.07 255.51 L 321.60 256.45 L 320.13 257.38 L 318.66 258.30" fill="none" stroke="#F5F7FA" stroke-width="7.5" stroke-linecap="round" stroke-linejoin="round" opacity="1"/>
<circle cx="121" cy="250" r="5" fill="#8A2BE2" opacity="0.75"/>
<circle cx="679" cy="250" r="5" fill="#00D1C1" opacity="0.75"/>
<circle cx="400" cy="250" r="5" fill="#4B5BFF" opacity="0.75"/>
</g>
</svg>
